%TF.GenerationSoftware,KiCad,Pcbnew,9.0.6-9.0.6~ubuntu22.04.1*%
%TF.CreationDate,2025-12-15T08:39:12+01:00*%
%TF.ProjectId,EVA1_v2,45564131-5f76-4322-9e6b-696361645f70,rev?*%
%TF.SameCoordinates,Original*%
%TF.FileFunction,Soldermask,Top*%
%TF.FilePolarity,Negative*%
%FSLAX46Y46*%
G04 Gerber Fmt 4.6, Leading zero omitted, Abs format (unit mm)*
G04 Created by KiCad (PCBNEW 9.0.6-9.0.6~ubuntu22.04.1) date 2025-12-15 08:39:12*
%MOMM*%
%LPD*%
G01*
G04 APERTURE LIST*
G04 Aperture macros list*
%AMRoundRect*
0 Rectangle with rounded corners*
0 $1 Rounding radius*
0 $2 $3 $4 $5 $6 $7 $8 $9 X,Y pos of 4 corners*
0 Add a 4 corners polygon primitive as box body*
4,1,4,$2,$3,$4,$5,$6,$7,$8,$9,$2,$3,0*
0 Add four circle primitives for the rounded corners*
1,1,$1+$1,$2,$3*
1,1,$1+$1,$4,$5*
1,1,$1+$1,$6,$7*
1,1,$1+$1,$8,$9*
0 Add four rect primitives between the rounded corners*
20,1,$1+$1,$2,$3,$4,$5,0*
20,1,$1+$1,$4,$5,$6,$7,0*
20,1,$1+$1,$6,$7,$8,$9,0*
20,1,$1+$1,$8,$9,$2,$3,0*%
%AMFreePoly0*
4,1,23,0.550000,-0.750000,0.000000,-0.750000,0.000000,-0.745722,-0.065263,-0.745722,-0.191342,-0.711940,-0.304381,-0.646677,-0.396677,-0.554381,-0.461940,-0.441342,-0.495722,-0.315263,-0.495722,-0.250000,-0.500000,-0.250000,-0.500000,0.250000,-0.495722,0.250000,-0.495722,0.315263,-0.461940,0.441342,-0.396677,0.554381,-0.304381,0.646677,-0.191342,0.711940,-0.065263,0.745722,0.000000,0.745722,
0.000000,0.750000,0.550000,0.750000,0.550000,-0.750000,0.550000,-0.750000,$1*%
%AMFreePoly1*
4,1,23,0.000000,0.745722,0.065263,0.745722,0.191342,0.711940,0.304381,0.646677,0.396677,0.554381,0.461940,0.441342,0.495722,0.315263,0.495722,0.250000,0.500000,0.250000,0.500000,-0.250000,0.495722,-0.250000,0.495722,-0.315263,0.461940,-0.441342,0.396677,-0.554381,0.304381,-0.646677,0.191342,-0.711940,0.065263,-0.745722,0.000000,-0.745722,0.000000,-0.750000,-0.550000,-0.750000,
-0.550000,0.750000,0.000000,0.750000,0.000000,0.745722,0.000000,0.745722,$1*%
%AMFreePoly2*
4,1,23,0.500000,-0.750000,0.000000,-0.750000,0.000000,-0.745722,-0.065263,-0.745722,-0.191342,-0.711940,-0.304381,-0.646677,-0.396677,-0.554381,-0.461940,-0.441342,-0.495722,-0.315263,-0.495722,-0.250000,-0.500000,-0.250000,-0.500000,0.250000,-0.495722,0.250000,-0.495722,0.315263,-0.461940,0.441342,-0.396677,0.554381,-0.304381,0.646677,-0.191342,0.711940,-0.065263,0.745722,0.000000,0.745722,
0.000000,0.750000,0.500000,0.750000,0.500000,-0.750000,0.500000,-0.750000,$1*%
%AMFreePoly3*
4,1,23,0.000000,0.745722,0.065263,0.745722,0.191342,0.711940,0.304381,0.646677,0.396677,0.554381,0.461940,0.441342,0.495722,0.315263,0.495722,0.250000,0.500000,0.250000,0.500000,-0.250000,0.495722,-0.250000,0.495722,-0.315263,0.461940,-0.441342,0.396677,-0.554381,0.304381,-0.646677,0.191342,-0.711940,0.065263,-0.745722,0.000000,-0.745722,0.000000,-0.750000,-0.500000,-0.750000,
-0.500000,0.750000,0.000000,0.750000,0.000000,0.745722,0.000000,0.745722,$1*%
G04 Aperture macros list end*
%ADD10R,1.600000X1.600000*%
%ADD11O,1.600000X1.600000*%
%ADD12RoundRect,0.250000X0.412500X0.650000X-0.412500X0.650000X-0.412500X-0.650000X0.412500X-0.650000X0*%
%ADD13C,1.600000*%
%ADD14C,3.200000*%
%ADD15C,3.000000*%
%ADD16C,4.500000*%
%ADD17C,2.400000*%
%ADD18O,2.400000X2.400000*%
%ADD19RoundRect,0.150000X0.150000X-0.825000X0.150000X0.825000X-0.150000X0.825000X-0.150000X-0.825000X0*%
%ADD20RoundRect,0.250000X0.650000X-0.412500X0.650000X0.412500X-0.650000X0.412500X-0.650000X-0.412500X0*%
%ADD21RoundRect,0.250000X-0.625000X0.400000X-0.625000X-0.400000X0.625000X-0.400000X0.625000X0.400000X0*%
%ADD22FreePoly0,0.000000*%
%ADD23R,1.000000X1.500000*%
%ADD24FreePoly1,0.000000*%
%ADD25R,1.500000X1.500000*%
%ADD26C,1.500000*%
%ADD27FreePoly0,180.000000*%
%ADD28FreePoly1,180.000000*%
%ADD29RoundRect,0.250000X-0.412500X-0.650000X0.412500X-0.650000X0.412500X0.650000X-0.412500X0.650000X0*%
%ADD30RoundRect,0.250000X-0.650000X0.412500X-0.650000X-0.412500X0.650000X-0.412500X0.650000X0.412500X0*%
%ADD31R,1.700000X1.700000*%
%ADD32O,1.700000X1.700000*%
%ADD33C,2.500000*%
%ADD34C,2.100000*%
%ADD35C,1.750000*%
%ADD36R,4.400000X1.800000*%
%ADD37O,4.000000X1.800000*%
%ADD38O,1.800000X4.000000*%
%ADD39RoundRect,0.250000X-0.400000X-0.625000X0.400000X-0.625000X0.400000X0.625000X-0.400000X0.625000X0*%
%ADD40R,1.800000X1.800000*%
%ADD41O,1.800000X1.800000*%
%ADD42FreePoly2,180.000000*%
%ADD43FreePoly3,180.000000*%
%ADD44C,1.700000*%
%ADD45RoundRect,0.375000X0.625000X0.375000X-0.625000X0.375000X-0.625000X-0.375000X0.625000X-0.375000X0*%
%ADD46RoundRect,0.500000X0.500000X1.400000X-0.500000X1.400000X-0.500000X-1.400000X0.500000X-1.400000X0*%
%ADD47RoundRect,0.250000X0.625000X-0.400000X0.625000X0.400000X-0.625000X0.400000X-0.625000X-0.400000X0*%
%ADD48FreePoly0,270.000000*%
%ADD49R,1.500000X1.000000*%
%ADD50FreePoly1,270.000000*%
%ADD51C,2.000000*%
%ADD52RoundRect,0.250000X-0.875000X-1.025000X0.875000X-1.025000X0.875000X1.025000X-0.875000X1.025000X0*%
%ADD53C,4.000000*%
%ADD54R,0.700000X1.750000*%
%ADD55R,1.450000X1.000000*%
%ADD56R,1.000000X1.550000*%
%ADD57R,0.800000X1.500000*%
%ADD58R,1.300000X1.500000*%
%ADD59R,0.800000X1.400000*%
%ADD60C,1.524000*%
G04 APERTURE END LIST*
D10*
%TO.C,U26*%
X153289000Y-45847000D03*
D11*
X155829000Y-45847000D03*
X158369000Y-45847000D03*
X160909000Y-45847000D03*
X163449000Y-45847000D03*
X165989000Y-45847000D03*
X168529000Y-45847000D03*
X171069000Y-45847000D03*
X171069000Y-38227000D03*
X168529000Y-38227000D03*
X165989000Y-38227000D03*
X163449000Y-38227000D03*
X160909000Y-38227000D03*
X158369000Y-38227000D03*
X155829000Y-38227000D03*
X153289000Y-38227000D03*
%TD*%
D12*
%TO.C,C111*%
X169397000Y-21975000D03*
X166272000Y-21975000D03*
%TD*%
D10*
%TO.C,U35*%
X206240000Y-65380000D03*
D11*
X203700000Y-65380000D03*
X201160000Y-65380000D03*
X198620000Y-65380000D03*
X196080000Y-65380000D03*
X193540000Y-65380000D03*
X191000000Y-65380000D03*
X188460000Y-65380000D03*
X188460000Y-73000000D03*
X191000000Y-73000000D03*
X193540000Y-73000000D03*
X196080000Y-73000000D03*
X198620000Y-73000000D03*
X201160000Y-73000000D03*
X203700000Y-73000000D03*
X206240000Y-73000000D03*
%TD*%
D10*
%TO.C,U4*%
X112160000Y-120420000D03*
D11*
X114700000Y-120420000D03*
X117240000Y-120420000D03*
X119780000Y-120420000D03*
X122320000Y-120420000D03*
X124860000Y-120420000D03*
X127400000Y-120420000D03*
X127400000Y-112800000D03*
X124860000Y-112800000D03*
X122320000Y-112800000D03*
X119780000Y-112800000D03*
X117240000Y-112800000D03*
X114700000Y-112800000D03*
X112160000Y-112800000D03*
%TD*%
D10*
%TO.C,C23*%
X226862000Y-61849000D03*
D13*
X229362000Y-61849000D03*
%TD*%
D14*
%TO.C,H4*%
X31500000Y-130250000D03*
%TD*%
D15*
%TO.C,J11*%
X141000000Y-136920000D03*
D16*
X135920000Y-136920000D03*
X141000000Y-142000000D03*
X146080000Y-136920000D03*
%TD*%
D13*
%TO.C,C14*%
X215200000Y-60200000D03*
X215200000Y-65200000D03*
%TD*%
D12*
%TO.C,C109*%
X185200000Y-82600000D03*
X182075000Y-82600000D03*
%TD*%
D17*
%TO.C,R3*%
X133400000Y-122000000D03*
D18*
X146100000Y-122000000D03*
%TD*%
D13*
%TO.C,C15*%
X185800000Y-85344000D03*
X185800000Y-90344000D03*
%TD*%
D10*
%TO.C,U36*%
X211740000Y-42000000D03*
D11*
X209200000Y-42000000D03*
X206660000Y-42000000D03*
X204120000Y-42000000D03*
X201580000Y-42000000D03*
X199040000Y-42000000D03*
X196500000Y-42000000D03*
X193960000Y-42000000D03*
X191420000Y-42000000D03*
X188880000Y-42000000D03*
X188880000Y-49620000D03*
X191420000Y-49620000D03*
X193960000Y-49620000D03*
X196500000Y-49620000D03*
X199040000Y-49620000D03*
X201580000Y-49620000D03*
X204120000Y-49620000D03*
X206660000Y-49620000D03*
X209200000Y-49620000D03*
X211740000Y-49620000D03*
%TD*%
D13*
%TO.C,C25*%
X236631000Y-56769000D03*
X231631000Y-56769000D03*
%TD*%
D19*
%TO.C,U31*%
X118580000Y-103600000D03*
X119850000Y-103600000D03*
X121120000Y-103600000D03*
X122390000Y-103600000D03*
X123660000Y-103600000D03*
X124930000Y-103600000D03*
X126200000Y-103600000D03*
X126200000Y-98650000D03*
X124930000Y-98650000D03*
X123660000Y-98650000D03*
X122390000Y-98650000D03*
X121120000Y-98650000D03*
X119850000Y-98650000D03*
X118580000Y-98650000D03*
%TD*%
D14*
%TO.C,H2*%
X229000000Y-30750000D03*
%TD*%
D20*
%TO.C,C112*%
X185600000Y-47934000D03*
X185600000Y-44809000D03*
%TD*%
D21*
%TO.C,R111*%
X182600000Y-71400000D03*
X182600000Y-74500000D03*
%TD*%
D22*
%TO.C,JP3*%
X94300000Y-122400000D03*
D23*
X95600000Y-122400000D03*
D24*
X96900000Y-122400000D03*
%TD*%
D17*
%TO.C,R10*%
X162250000Y-117250000D03*
D18*
X174950000Y-117250000D03*
%TD*%
D17*
%TO.C,R4*%
X146000000Y-117750000D03*
D18*
X133300000Y-117750000D03*
%TD*%
D22*
%TO.C,JP5*%
X84000000Y-120800000D03*
D23*
X85300000Y-120800000D03*
D24*
X86600000Y-120800000D03*
%TD*%
D10*
%TO.C,Y2*%
X218059000Y-76962000D03*
D13*
X233299000Y-76962000D03*
X233299000Y-69342000D03*
X218059000Y-69342000D03*
%TD*%
D10*
%TO.C,U22*%
X191760000Y-83800000D03*
D11*
X194300000Y-83800000D03*
X196840000Y-83800000D03*
X199380000Y-83800000D03*
X201920000Y-83800000D03*
X204460000Y-83800000D03*
X207000000Y-83800000D03*
X207000000Y-76180000D03*
X204460000Y-76180000D03*
X201920000Y-76180000D03*
X199380000Y-76180000D03*
X196840000Y-76180000D03*
X194300000Y-76180000D03*
X191760000Y-76180000D03*
%TD*%
D25*
%TO.C,Q3*%
X157750000Y-118080000D03*
D26*
X155210000Y-115540000D03*
X157750000Y-113000000D03*
%TD*%
D10*
%TO.C,U21*%
X132540000Y-92160000D03*
D11*
X130000000Y-92160000D03*
X127460000Y-92160000D03*
X124920000Y-92160000D03*
X122380000Y-92160000D03*
X119840000Y-92160000D03*
X117300000Y-92160000D03*
X114760000Y-92160000D03*
X112220000Y-92160000D03*
X109680000Y-92160000D03*
X107140000Y-92160000D03*
X104600000Y-92160000D03*
X104600000Y-107400000D03*
X107140000Y-107400000D03*
X109680000Y-107400000D03*
X112220000Y-107400000D03*
X114760000Y-107400000D03*
X117300000Y-107400000D03*
X119840000Y-107400000D03*
X122380000Y-107400000D03*
X124920000Y-107400000D03*
X127460000Y-107400000D03*
X130000000Y-107400000D03*
X132540000Y-107400000D03*
%TD*%
D13*
%TO.C,C29*%
X217972000Y-63754000D03*
X222972000Y-63754000D03*
%TD*%
D27*
%TO.C,JP1*%
X82000000Y-86000000D03*
D23*
X80700000Y-86000000D03*
D28*
X79400000Y-86000000D03*
%TD*%
D17*
%TO.C,R1*%
X165750000Y-82250000D03*
D18*
X153050000Y-82250000D03*
%TD*%
D21*
%TO.C,R16*%
X67800000Y-127900000D03*
X67800000Y-131000000D03*
%TD*%
D14*
%TO.C,H6*%
X229000000Y-130250000D03*
%TD*%
D21*
%TO.C,R20*%
X68000000Y-110100000D03*
X68000000Y-113200000D03*
%TD*%
D29*
%TO.C,C101*%
X47275000Y-24200000D03*
X50400000Y-24200000D03*
%TD*%
D10*
%TO.C,U2*%
X26162000Y-74295000D03*
D11*
X28702000Y-74295000D03*
X31242000Y-74295000D03*
X33782000Y-74295000D03*
X36322000Y-74295000D03*
X38862000Y-74295000D03*
X41402000Y-74295000D03*
X43942000Y-74295000D03*
X46482000Y-74295000D03*
X49022000Y-74295000D03*
X49022000Y-66675000D03*
X46482000Y-66675000D03*
X43942000Y-66675000D03*
X41402000Y-66675000D03*
X38862000Y-66675000D03*
X36322000Y-66675000D03*
X33782000Y-66675000D03*
X31242000Y-66675000D03*
X28702000Y-66675000D03*
X26162000Y-66675000D03*
%TD*%
D12*
%TO.C,C106*%
X93525000Y-87000000D03*
X90400000Y-87000000D03*
%TD*%
D17*
%TO.C,R7*%
X133400000Y-126400000D03*
D18*
X146100000Y-126400000D03*
%TD*%
D21*
%TO.C,R18*%
X70400000Y-127900000D03*
X70400000Y-131000000D03*
%TD*%
D10*
%TO.C,U8*%
X63470000Y-76500000D03*
D11*
X66010000Y-76500000D03*
X68550000Y-76500000D03*
X71090000Y-76500000D03*
X73630000Y-76500000D03*
X76170000Y-76500000D03*
X78710000Y-76500000D03*
X81250000Y-76500000D03*
X81250000Y-68880000D03*
X78710000Y-68880000D03*
X76170000Y-68880000D03*
X73630000Y-68880000D03*
X71090000Y-68880000D03*
X68550000Y-68880000D03*
X66010000Y-68880000D03*
X63470000Y-68880000D03*
%TD*%
D30*
%TO.C,C114*%
X215165240Y-61176327D03*
X215165240Y-64301327D03*
%TD*%
D10*
%TO.C,U9*%
X26162000Y-102362000D03*
D11*
X28702000Y-102362000D03*
X31242000Y-102362000D03*
X33782000Y-102362000D03*
X36322000Y-102362000D03*
X38862000Y-102362000D03*
X41402000Y-102362000D03*
X43942000Y-102362000D03*
X46482000Y-102362000D03*
X49022000Y-102362000D03*
X51562000Y-102362000D03*
X54102000Y-102362000D03*
X56642000Y-102362000D03*
X59182000Y-102362000D03*
X59182000Y-87122000D03*
X56642000Y-87122000D03*
X54102000Y-87122000D03*
X51562000Y-87122000D03*
X49022000Y-87122000D03*
X46482000Y-87122000D03*
X43942000Y-87122000D03*
X41402000Y-87122000D03*
X38862000Y-87122000D03*
X36322000Y-87122000D03*
X33782000Y-87122000D03*
X31242000Y-87122000D03*
X28702000Y-87122000D03*
X26162000Y-87122000D03*
%TD*%
D31*
%TO.C,J2*%
X151400000Y-130800000D03*
D32*
X151400000Y-133340000D03*
%TD*%
D31*
%TO.C,J6*%
X122301000Y-23114000D03*
%TD*%
D10*
%TO.C,U6*%
X63441515Y-50975801D03*
D11*
X65981515Y-50975801D03*
X68521515Y-50975801D03*
X71061515Y-50975801D03*
X73601515Y-50975801D03*
X76141515Y-50975801D03*
X78681515Y-50975801D03*
X81221515Y-50975801D03*
X81221515Y-43355801D03*
X78681515Y-43355801D03*
X76141515Y-43355801D03*
X73601515Y-43355801D03*
X71061515Y-43355801D03*
X68521515Y-43355801D03*
X65981515Y-43355801D03*
X63441515Y-43355801D03*
%TD*%
D10*
%TO.C,U17*%
X144653000Y-105283000D03*
D11*
X147193000Y-105283000D03*
X149733000Y-105283000D03*
X152273000Y-105283000D03*
X154813000Y-105283000D03*
X157353000Y-105283000D03*
X159893000Y-105283000D03*
X162433000Y-105283000D03*
X164973000Y-105283000D03*
X167513000Y-105283000D03*
X170053000Y-105283000D03*
X172593000Y-105283000D03*
X175133000Y-105283000D03*
X177673000Y-105283000D03*
X177673000Y-90043000D03*
X175133000Y-90043000D03*
X172593000Y-90043000D03*
X170053000Y-90043000D03*
X167513000Y-90043000D03*
X164973000Y-90043000D03*
X162433000Y-90043000D03*
X159893000Y-90043000D03*
X157353000Y-90043000D03*
X154813000Y-90043000D03*
X152273000Y-90043000D03*
X149733000Y-90043000D03*
X147193000Y-90043000D03*
X144653000Y-90043000D03*
%TD*%
D13*
%TO.C,C1*%
X46228000Y-25400000D03*
X51228000Y-25400000D03*
%TD*%
D33*
%TO.C,J5*%
X187750000Y-137500000D03*
X202750000Y-137500000D03*
D17*
X202750000Y-132500000D03*
X195250000Y-132500000D03*
X187750000Y-132500000D03*
X200250000Y-130000000D03*
X190250000Y-130000000D03*
X192750000Y-142500000D03*
X197750000Y-142500000D03*
%TD*%
%TO.C,R9*%
X162206292Y-113067889D03*
D18*
X174906292Y-113067889D03*
%TD*%
D10*
%TO.C,U10*%
X66020000Y-89820000D03*
D11*
X68560000Y-89820000D03*
X71100000Y-89820000D03*
X73640000Y-89820000D03*
X76180000Y-89820000D03*
X78720000Y-89820000D03*
X81260000Y-89820000D03*
X83800000Y-89820000D03*
X83800000Y-82200000D03*
X81260000Y-82200000D03*
X78720000Y-82200000D03*
X76180000Y-82200000D03*
X73640000Y-82200000D03*
X71100000Y-82200000D03*
X68560000Y-82200000D03*
X66020000Y-82200000D03*
%TD*%
D14*
%TO.C,H3*%
X226500000Y-30750000D03*
%TD*%
D34*
%TO.C,SW1*%
X87350000Y-138610000D03*
X80340000Y-138610000D03*
D35*
X86100000Y-141100000D03*
X81600000Y-141100000D03*
%TD*%
D10*
%TO.C,U45*%
X184536000Y-118100000D03*
D11*
X187076000Y-118100000D03*
X189616000Y-118100000D03*
X192156000Y-118100000D03*
X194696000Y-118100000D03*
X197236000Y-118100000D03*
X199776000Y-118100000D03*
X202316000Y-118100000D03*
X204856000Y-118100000D03*
X207396000Y-118100000D03*
X207396000Y-110480000D03*
X204856000Y-110480000D03*
X202316000Y-110480000D03*
X199776000Y-110480000D03*
X197236000Y-110480000D03*
X194696000Y-110480000D03*
X192156000Y-110480000D03*
X189616000Y-110480000D03*
X187076000Y-110480000D03*
X184536000Y-110480000D03*
%TD*%
D21*
%TO.C,R22*%
X60600000Y-111600000D03*
X60600000Y-114700000D03*
%TD*%
D36*
%TO.C,J8*%
X97600000Y-131000000D03*
D37*
X97600000Y-136800000D03*
D38*
X102400000Y-134000000D03*
%TD*%
D25*
%TO.C,Q2*%
X151250000Y-118250000D03*
D26*
X148710000Y-115710000D03*
X151250000Y-113170000D03*
%TD*%
D31*
%TO.C,JP8*%
X209042000Y-139954000D03*
D32*
X209042000Y-137414000D03*
%TD*%
D10*
%TO.C,U24*%
X219324000Y-102098000D03*
D11*
X221864000Y-102098000D03*
X224404000Y-102098000D03*
X226944000Y-102098000D03*
X229484000Y-102098000D03*
X232024000Y-102098000D03*
X234564000Y-102098000D03*
X234564000Y-94478000D03*
X232024000Y-94478000D03*
X229484000Y-94478000D03*
X226944000Y-94478000D03*
X224404000Y-94478000D03*
X221864000Y-94478000D03*
X219324000Y-94478000D03*
%TD*%
D17*
%TO.C,R17*%
X115570000Y-31242000D03*
D18*
X128270000Y-31242000D03*
%TD*%
D10*
%TO.C,U25*%
X153162000Y-33528000D03*
D11*
X155702000Y-33528000D03*
X158242000Y-33528000D03*
X160782000Y-33528000D03*
X163322000Y-33528000D03*
X165862000Y-33528000D03*
X168402000Y-33528000D03*
X170942000Y-33528000D03*
X170942000Y-25908000D03*
X168402000Y-25908000D03*
X165862000Y-25908000D03*
X163322000Y-25908000D03*
X160782000Y-25908000D03*
X158242000Y-25908000D03*
X155702000Y-25908000D03*
X153162000Y-25908000D03*
%TD*%
D17*
%TO.C,R13*%
X125603000Y-23114000D03*
D18*
X138303000Y-23114000D03*
%TD*%
D13*
%TO.C,C27*%
X214630000Y-95758000D03*
X214630000Y-100758000D03*
%TD*%
D22*
%TO.C,JP7*%
X37600000Y-40200000D03*
D23*
X38900000Y-40200000D03*
D24*
X40200000Y-40200000D03*
%TD*%
D13*
%TO.C,C8*%
X126746000Y-123992000D03*
X126746000Y-128992000D03*
%TD*%
D29*
%TO.C,C2*%
X111475000Y-136800000D03*
X114600000Y-136800000D03*
%TD*%
D39*
%TO.C,R117*%
X123100000Y-31200000D03*
X126200000Y-31200000D03*
%TD*%
D40*
%TO.C,D2*%
X179832000Y-137287000D03*
D41*
X179832000Y-129667000D03*
%TD*%
D10*
%TO.C,U19*%
X85287843Y-117116441D03*
D11*
X87827843Y-117116441D03*
X90367843Y-117116441D03*
X92907843Y-117116441D03*
X95447843Y-117116441D03*
X97987843Y-117116441D03*
X100527843Y-117116441D03*
X100527843Y-109496441D03*
X97987843Y-109496441D03*
X95447843Y-109496441D03*
X92907843Y-109496441D03*
X90367843Y-109496441D03*
X87827843Y-109496441D03*
X85287843Y-109496441D03*
%TD*%
D42*
%TO.C,JP10*%
X146080000Y-108585000D03*
D43*
X144780000Y-108585000D03*
%TD*%
D31*
%TO.C,JP9*%
X218948000Y-129794000D03*
D32*
X216408000Y-129794000D03*
X213868000Y-129794000D03*
%TD*%
D20*
%TO.C,C110*%
X178600000Y-116362500D03*
X178600000Y-113237500D03*
%TD*%
D17*
%TO.C,R12*%
X174750000Y-123750000D03*
D18*
X162050000Y-123750000D03*
%TD*%
D10*
%TO.C,C19*%
X218233620Y-40386000D03*
D13*
X215733620Y-40386000D03*
%TD*%
D31*
%TO.C,J12*%
X50000000Y-129900000D03*
D44*
X52540000Y-129900000D03*
X55080000Y-129900000D03*
X57620000Y-129900000D03*
X60160000Y-129900000D03*
X62700000Y-129900000D03*
%TD*%
D13*
%TO.C,C11*%
X170400000Y-22000000D03*
X165400000Y-22000000D03*
%TD*%
D30*
%TO.C,C127*%
X214600000Y-96675000D03*
X214600000Y-99800000D03*
%TD*%
D45*
%TO.C,U33*%
X123038000Y-129554000D03*
X123038000Y-127254000D03*
D46*
X116738000Y-127254000D03*
D45*
X123038000Y-124954000D03*
%TD*%
D10*
%TO.C,U1*%
X26162000Y-58420000D03*
D11*
X28702000Y-58420000D03*
X31242000Y-58420000D03*
X33782000Y-58420000D03*
X36322000Y-58420000D03*
X38862000Y-58420000D03*
X41402000Y-58420000D03*
X43942000Y-58420000D03*
X46482000Y-58420000D03*
X49022000Y-58420000D03*
X51562000Y-58420000D03*
X54102000Y-58420000D03*
X56642000Y-58420000D03*
X59182000Y-58420000D03*
X59182000Y-43180000D03*
X56642000Y-43180000D03*
X54102000Y-43180000D03*
X51562000Y-43180000D03*
X49022000Y-43180000D03*
X46482000Y-43180000D03*
X43942000Y-43180000D03*
X41402000Y-43180000D03*
X38862000Y-43180000D03*
X36322000Y-43180000D03*
X33782000Y-43180000D03*
X31242000Y-43180000D03*
X28702000Y-43180000D03*
X26162000Y-43180000D03*
%TD*%
D13*
%TO.C,C4*%
X94700000Y-127400000D03*
X99700000Y-127400000D03*
%TD*%
%TO.C,C3*%
X61976000Y-78486000D03*
X61976000Y-83486000D03*
%TD*%
D31*
%TO.C,J13*%
X43660000Y-129900000D03*
D44*
X46200000Y-129900000D03*
%TD*%
D39*
%TO.C,R2*%
X45300000Y-104800000D03*
X48400000Y-104800000D03*
%TD*%
D10*
%TO.C,U12*%
X65400000Y-104800000D03*
D11*
X67940000Y-104800000D03*
X70480000Y-104800000D03*
X73020000Y-104800000D03*
X75560000Y-104800000D03*
X78100000Y-104800000D03*
X80640000Y-104800000D03*
X80640000Y-97180000D03*
X78100000Y-97180000D03*
X75560000Y-97180000D03*
X73020000Y-97180000D03*
X70480000Y-97180000D03*
X67940000Y-97180000D03*
X65400000Y-97180000D03*
%TD*%
D10*
%TO.C,U28*%
X153289000Y-69342000D03*
D11*
X155829000Y-69342000D03*
X158369000Y-69342000D03*
X160909000Y-69342000D03*
X163449000Y-69342000D03*
X165989000Y-69342000D03*
X168529000Y-69342000D03*
X171069000Y-69342000D03*
X171069000Y-61722000D03*
X168529000Y-61722000D03*
X165989000Y-61722000D03*
X163449000Y-61722000D03*
X160909000Y-61722000D03*
X158369000Y-61722000D03*
X155829000Y-61722000D03*
X153289000Y-61722000D03*
%TD*%
D30*
%TO.C,C108*%
X126746000Y-124929500D03*
X126746000Y-128054500D03*
%TD*%
D10*
%TO.C,U7*%
X63500000Y-63627000D03*
D11*
X66040000Y-63627000D03*
X68580000Y-63627000D03*
X71120000Y-63627000D03*
X73660000Y-63627000D03*
X76200000Y-63627000D03*
X78740000Y-63627000D03*
X81280000Y-63627000D03*
X81280000Y-56007000D03*
X78740000Y-56007000D03*
X76200000Y-56007000D03*
X73660000Y-56007000D03*
X71120000Y-56007000D03*
X68580000Y-56007000D03*
X66040000Y-56007000D03*
X63500000Y-56007000D03*
%TD*%
D10*
%TO.C,U11*%
X177327000Y-39000000D03*
D11*
X179867000Y-39000000D03*
X182407000Y-39000000D03*
X184947000Y-39000000D03*
X187487000Y-39000000D03*
X190027000Y-39000000D03*
X192567000Y-39000000D03*
X195107000Y-39000000D03*
X197647000Y-39000000D03*
X200187000Y-39000000D03*
X202727000Y-39000000D03*
X205267000Y-39000000D03*
X207807000Y-39000000D03*
X210347000Y-39000000D03*
X210347000Y-23760000D03*
X207807000Y-23760000D03*
X205267000Y-23760000D03*
X202727000Y-23760000D03*
X200187000Y-23760000D03*
X197647000Y-23760000D03*
X195107000Y-23760000D03*
X192567000Y-23760000D03*
X190027000Y-23760000D03*
X187487000Y-23760000D03*
X184947000Y-23760000D03*
X182407000Y-23760000D03*
X179867000Y-23760000D03*
X177327000Y-23760000D03*
%TD*%
D47*
%TO.C,R29*%
X62700000Y-122500000D03*
X62700000Y-119400000D03*
%TD*%
D30*
%TO.C,C133*%
X214000000Y-122275000D03*
X214000000Y-125400000D03*
%TD*%
D17*
%TO.C,R14*%
X197993000Y-123444000D03*
D18*
X210693000Y-123444000D03*
%TD*%
D10*
%TO.C,Y3*%
X218049849Y-76977099D03*
D13*
X225669849Y-76977099D03*
X225669849Y-69357099D03*
X218049849Y-69357099D03*
%TD*%
D12*
%TO.C,C104*%
X98725000Y-127400000D03*
X95600000Y-127400000D03*
%TD*%
D48*
%TO.C,JP4*%
X25000000Y-79900000D03*
D49*
X25000000Y-81200000D03*
D50*
X25000000Y-82500000D03*
%TD*%
D12*
%TO.C,C125*%
X235641000Y-56800000D03*
X232516000Y-56800000D03*
%TD*%
D10*
%TO.C,U27*%
X153289000Y-57912000D03*
D11*
X155829000Y-57912000D03*
X158369000Y-57912000D03*
X160909000Y-57912000D03*
X163449000Y-57912000D03*
X165989000Y-57912000D03*
X168529000Y-57912000D03*
X171069000Y-57912000D03*
X171069000Y-50292000D03*
X168529000Y-50292000D03*
X165989000Y-50292000D03*
X163449000Y-50292000D03*
X160909000Y-50292000D03*
X158369000Y-50292000D03*
X155829000Y-50292000D03*
X153289000Y-50292000D03*
%TD*%
D30*
%TO.C,C134*%
X214600000Y-84600000D03*
X214600000Y-87725000D03*
%TD*%
D13*
%TO.C,C10*%
X178600000Y-117200000D03*
X178600000Y-112200000D03*
%TD*%
D20*
%TO.C,C107*%
X213485000Y-76414000D03*
X213485000Y-73289000D03*
%TD*%
D13*
%TO.C,C33*%
X213995000Y-121158000D03*
X213995000Y-126158000D03*
%TD*%
D40*
%TO.C,D1*%
X151630000Y-123500000D03*
D41*
X159250000Y-123500000D03*
%TD*%
D13*
%TO.C,C13*%
X168000000Y-75400000D03*
X173000000Y-75400000D03*
%TD*%
D10*
%TO.C,C18*%
X232243620Y-40386000D03*
D13*
X229743620Y-40386000D03*
%TD*%
D51*
%TO.C,TP1*%
X208788000Y-129400000D03*
%TD*%
D47*
%TO.C,R26*%
X60300000Y-122500000D03*
X60300000Y-119400000D03*
%TD*%
%TO.C,R28*%
X34700000Y-122800000D03*
X34700000Y-119700000D03*
%TD*%
%TO.C,R25*%
X24700000Y-122700000D03*
X24700000Y-119600000D03*
%TD*%
D30*
%TO.C,C115*%
X185800000Y-86275000D03*
X185800000Y-89400000D03*
%TD*%
D17*
%TO.C,R15*%
X195072000Y-123444000D03*
D18*
X182372000Y-123444000D03*
%TD*%
D31*
%TO.C,J1*%
X131191000Y-40005000D03*
%TD*%
D10*
%TO.C,U32*%
X184600000Y-104600000D03*
D11*
X187140000Y-104600000D03*
X189680000Y-104600000D03*
X192220000Y-104600000D03*
X194760000Y-104600000D03*
X197300000Y-104600000D03*
X199840000Y-104600000D03*
X202380000Y-104600000D03*
X204920000Y-104600000D03*
X207460000Y-104600000D03*
X207460000Y-96980000D03*
X204920000Y-96980000D03*
X202380000Y-96980000D03*
X199840000Y-96980000D03*
X197300000Y-96980000D03*
X194760000Y-96980000D03*
X192220000Y-96980000D03*
X189680000Y-96980000D03*
X187140000Y-96980000D03*
X184600000Y-96980000D03*
%TD*%
D17*
%TO.C,R8*%
X133300000Y-113250000D03*
D18*
X146000000Y-113250000D03*
%TD*%
D17*
%TO.C,R6*%
X213614000Y-103759000D03*
D18*
X213614000Y-116459000D03*
%TD*%
D30*
%TO.C,C103*%
X62000000Y-79675000D03*
X62000000Y-82800000D03*
%TD*%
D13*
%TO.C,C9*%
X181200000Y-82600000D03*
X186200000Y-82600000D03*
%TD*%
D29*
%TO.C,C113*%
X169075000Y-75400000D03*
X172200000Y-75400000D03*
%TD*%
%TO.C,C129*%
X218875000Y-63800000D03*
X222000000Y-63800000D03*
%TD*%
D10*
%TO.C,C16*%
X225258620Y-40386000D03*
D13*
X222758620Y-40386000D03*
%TD*%
D52*
%TO.C,C123*%
X226400000Y-63400000D03*
X232800000Y-63400000D03*
%TD*%
D20*
%TO.C,C131*%
X115341500Y-39482500D03*
X115341500Y-36357500D03*
%TD*%
D13*
%TO.C,C12*%
X185644000Y-48756000D03*
X185644000Y-43756000D03*
%TD*%
D10*
%TO.C,U14*%
X80264000Y-35560000D03*
D11*
X82804000Y-35560000D03*
X85344000Y-35560000D03*
X87884000Y-35560000D03*
X90424000Y-35560000D03*
X92964000Y-35560000D03*
X95504000Y-35560000D03*
X98044000Y-35560000D03*
X100584000Y-35560000D03*
X103124000Y-35560000D03*
X103124000Y-27940000D03*
X100584000Y-27940000D03*
X98044000Y-27940000D03*
X95504000Y-27940000D03*
X92964000Y-27940000D03*
X90424000Y-27940000D03*
X87884000Y-27940000D03*
X85344000Y-27940000D03*
X82804000Y-27940000D03*
X80264000Y-27940000D03*
%TD*%
D13*
%TO.C,C6*%
X94400000Y-87000000D03*
X89400000Y-87000000D03*
%TD*%
D14*
%TO.C,H8*%
X29000000Y-30750000D03*
%TD*%
D47*
%TO.C,R27*%
X57900000Y-122500000D03*
X57900000Y-119400000D03*
%TD*%
D17*
%TO.C,R11*%
X182600000Y-66600000D03*
D18*
X182600000Y-79300000D03*
%TD*%
D14*
%TO.C,H5*%
X226500000Y-130250000D03*
%TD*%
D39*
%TO.C,R113*%
X128100000Y-23200000D03*
X131200000Y-23200000D03*
%TD*%
D33*
%TO.C,J4*%
X157500000Y-137500000D03*
X172500000Y-137500000D03*
D17*
X172500000Y-132500000D03*
X165000000Y-132500000D03*
X157500000Y-132500000D03*
X170000000Y-130000000D03*
X160000000Y-130000000D03*
X162500000Y-142500000D03*
X167500000Y-142500000D03*
%TD*%
D10*
%TO.C,U23*%
X219202000Y-125222000D03*
D11*
X221742000Y-125222000D03*
X224282000Y-125222000D03*
X226822000Y-125222000D03*
X229362000Y-125222000D03*
X231902000Y-125222000D03*
X234442000Y-125222000D03*
X234442000Y-117602000D03*
X231902000Y-117602000D03*
X229362000Y-117602000D03*
X226822000Y-117602000D03*
X224282000Y-117602000D03*
X221742000Y-117602000D03*
X219202000Y-117602000D03*
%TD*%
D14*
%TO.C,H1*%
X31500000Y-30750000D03*
%TD*%
D13*
%TO.C,C31*%
X115228500Y-40371500D03*
X115228500Y-35371500D03*
%TD*%
%TO.C,C34*%
X214630000Y-83606000D03*
X214630000Y-88606000D03*
%TD*%
D10*
%TO.C,U20*%
X219202000Y-114554000D03*
D11*
X221742000Y-114554000D03*
X224282000Y-114554000D03*
X226822000Y-114554000D03*
X229362000Y-114554000D03*
X231902000Y-114554000D03*
X234442000Y-114554000D03*
X234442000Y-106934000D03*
X231902000Y-106934000D03*
X229362000Y-106934000D03*
X226822000Y-106934000D03*
X224282000Y-106934000D03*
X221742000Y-106934000D03*
X219202000Y-106934000D03*
%TD*%
D10*
%TO.C,U13*%
X189400000Y-94000000D03*
D11*
X191940000Y-94000000D03*
X194480000Y-94000000D03*
X197020000Y-94000000D03*
X199560000Y-94000000D03*
X202100000Y-94000000D03*
X204640000Y-94000000D03*
X207180000Y-94000000D03*
X207180000Y-86380000D03*
X204640000Y-86380000D03*
X202100000Y-86380000D03*
X199560000Y-86380000D03*
X197020000Y-86380000D03*
X194480000Y-86380000D03*
X191940000Y-86380000D03*
X189400000Y-86380000D03*
%TD*%
D10*
%TO.C,U5*%
X37846000Y-35560000D03*
D11*
X40386000Y-35560000D03*
X42926000Y-35560000D03*
X45466000Y-35560000D03*
X48006000Y-35560000D03*
X50546000Y-35560000D03*
X53086000Y-35560000D03*
X55626000Y-35560000D03*
X58166000Y-35560000D03*
X60706000Y-35560000D03*
X60706000Y-27940000D03*
X58166000Y-27940000D03*
X55626000Y-27940000D03*
X53086000Y-27940000D03*
X50546000Y-27940000D03*
X48006000Y-27940000D03*
X45466000Y-27940000D03*
X42926000Y-27940000D03*
X40386000Y-27940000D03*
X37846000Y-27940000D03*
%TD*%
D34*
%TO.C,SW2*%
X42250000Y-138610000D03*
X35240000Y-138610000D03*
D35*
X41000000Y-141100000D03*
X36500000Y-141100000D03*
%TD*%
D10*
%TO.C,U16*%
X89281000Y-81661000D03*
D11*
X91821000Y-81661000D03*
X94361000Y-81661000D03*
X96901000Y-81661000D03*
X99441000Y-81661000D03*
X101981000Y-81661000D03*
X104521000Y-81661000D03*
X107061000Y-81661000D03*
X109601000Y-81661000D03*
X112141000Y-81661000D03*
X114681000Y-81661000D03*
X117221000Y-81661000D03*
X119761000Y-81661000D03*
X122301000Y-81661000D03*
X124841000Y-81661000D03*
X127381000Y-81661000D03*
X129921000Y-81661000D03*
X132461000Y-81661000D03*
X135001000Y-81661000D03*
X137541000Y-81661000D03*
X137541000Y-66421000D03*
X135001000Y-66421000D03*
X132461000Y-66421000D03*
X129921000Y-66421000D03*
X127381000Y-66421000D03*
X124841000Y-66421000D03*
X122301000Y-66421000D03*
X119761000Y-66421000D03*
X117221000Y-66421000D03*
X114681000Y-66421000D03*
X112141000Y-66421000D03*
X109601000Y-66421000D03*
X107061000Y-66421000D03*
X104521000Y-66421000D03*
X101981000Y-66421000D03*
X99441000Y-66421000D03*
X96901000Y-66421000D03*
X94361000Y-66421000D03*
X91821000Y-66421000D03*
X89281000Y-66421000D03*
%TD*%
D21*
%TO.C,R106*%
X213600000Y-109300000D03*
X213600000Y-112400000D03*
%TD*%
D10*
%TO.C,U29*%
X219329000Y-89662000D03*
D11*
X221869000Y-89662000D03*
X224409000Y-89662000D03*
X226949000Y-89662000D03*
X229489000Y-89662000D03*
X232029000Y-89662000D03*
X234569000Y-89662000D03*
X234569000Y-82042000D03*
X232029000Y-82042000D03*
X229489000Y-82042000D03*
X226949000Y-82042000D03*
X224409000Y-82042000D03*
X221869000Y-82042000D03*
X219329000Y-82042000D03*
%TD*%
D31*
%TO.C,J7*%
X132080000Y-30988000D03*
%TD*%
D53*
%TO.C,J3*%
X48800000Y-139850000D03*
X73800000Y-139850000D03*
D10*
X65615000Y-137960000D03*
D13*
X63325000Y-137960000D03*
X61035000Y-137960000D03*
X58745000Y-137960000D03*
X56455000Y-137960000D03*
X66760000Y-139860000D03*
X64470000Y-139860000D03*
X62180000Y-139860000D03*
X59890000Y-139860000D03*
X57600000Y-139860000D03*
X65615000Y-141760000D03*
X63325000Y-141760000D03*
X61035000Y-141760000D03*
X58745000Y-141760000D03*
X56455000Y-141760000D03*
%TD*%
D21*
%TO.C,R23*%
X63200000Y-111600000D03*
X63200000Y-114700000D03*
%TD*%
D54*
%TO.C,J10*%
X125950000Y-143550000D03*
X124850000Y-143550000D03*
X123750000Y-143550000D03*
X122650000Y-143550000D03*
X121550000Y-143550000D03*
X120450000Y-143550000D03*
X119350000Y-143550000D03*
X118250000Y-143550000D03*
D55*
X117125000Y-134325000D03*
D56*
X128350000Y-132750000D03*
D57*
X116800000Y-135825000D03*
D58*
X117050000Y-143425000D03*
D25*
X128400000Y-143425000D03*
D59*
X128750000Y-135175000D03*
%TD*%
D10*
%TO.C,U18*%
X85200000Y-106600000D03*
D11*
X87740000Y-106600000D03*
X90280000Y-106600000D03*
X92820000Y-106600000D03*
X95360000Y-106600000D03*
X97900000Y-106600000D03*
X100440000Y-106600000D03*
X100440000Y-98980000D03*
X97900000Y-98980000D03*
X95360000Y-98980000D03*
X92820000Y-98980000D03*
X90280000Y-98980000D03*
X87740000Y-98980000D03*
X85200000Y-98980000D03*
%TD*%
D14*
%TO.C,H9*%
X29000000Y-130250000D03*
%TD*%
D60*
%TO.C,U34*%
X22140000Y-124968000D03*
X24680000Y-124968000D03*
X27220000Y-124968000D03*
X29760000Y-124968000D03*
X32300000Y-124968000D03*
X34840000Y-124968000D03*
X37380000Y-124968000D03*
X39920000Y-124968000D03*
X42460000Y-124968000D03*
X45000000Y-124968000D03*
X47540000Y-124968000D03*
X50080000Y-124968000D03*
X52620000Y-124968000D03*
X55160000Y-124968000D03*
X57700000Y-124968000D03*
X60240000Y-124968000D03*
X62780000Y-124968000D03*
X65320000Y-124968000D03*
X67860000Y-124968000D03*
X70400000Y-124968000D03*
X70400000Y-107188000D03*
X67860000Y-107188000D03*
X65320000Y-107188000D03*
X62780000Y-107188000D03*
X60240000Y-107188000D03*
X57700000Y-107188000D03*
X55160000Y-107188000D03*
X52620000Y-107188000D03*
X50080000Y-107188000D03*
X47540000Y-107188000D03*
X45000000Y-107188000D03*
X42460000Y-107188000D03*
X39920000Y-107188000D03*
X37380000Y-107188000D03*
X34840000Y-107188000D03*
X32300000Y-107188000D03*
X29760000Y-107188000D03*
X27220000Y-107188000D03*
X24680000Y-107188000D03*
X22140000Y-107188000D03*
%TD*%
D21*
%TO.C,R19*%
X70400000Y-110100000D03*
X70400000Y-113200000D03*
%TD*%
D10*
%TO.C,C17*%
X218186000Y-25400000D03*
D13*
X215686000Y-25400000D03*
%TD*%
D10*
%TO.C,U15*%
X89281000Y-58801000D03*
D11*
X91821000Y-58801000D03*
X94361000Y-58801000D03*
X96901000Y-58801000D03*
X99441000Y-58801000D03*
X101981000Y-58801000D03*
X104521000Y-58801000D03*
X107061000Y-58801000D03*
X109601000Y-58801000D03*
X112141000Y-58801000D03*
X114681000Y-58801000D03*
X117221000Y-58801000D03*
X119761000Y-58801000D03*
X122301000Y-58801000D03*
X124841000Y-58801000D03*
X127381000Y-58801000D03*
X129921000Y-58801000D03*
X132461000Y-58801000D03*
X135001000Y-58801000D03*
X137541000Y-58801000D03*
X137541000Y-43561000D03*
X135001000Y-43561000D03*
X132461000Y-43561000D03*
X129921000Y-43561000D03*
X127381000Y-43561000D03*
X124841000Y-43561000D03*
X122301000Y-43561000D03*
X119761000Y-43561000D03*
X117221000Y-43561000D03*
X114681000Y-43561000D03*
X112141000Y-43561000D03*
X109601000Y-43561000D03*
X107061000Y-43561000D03*
X104521000Y-43561000D03*
X101981000Y-43561000D03*
X99441000Y-43561000D03*
X96901000Y-43561000D03*
X94361000Y-43561000D03*
X91821000Y-43561000D03*
X89281000Y-43561000D03*
%TD*%
D17*
%TO.C,R21*%
X215400000Y-56896000D03*
D18*
X228100000Y-56896000D03*
%TD*%
D31*
%TO.C,J9*%
X88392000Y-126492000D03*
D32*
X85852000Y-126492000D03*
X83312000Y-126492000D03*
X80772000Y-126492000D03*
X78232000Y-126492000D03*
X75692000Y-126492000D03*
%TD*%
D13*
%TO.C,C7*%
X213400000Y-72400000D03*
X213400000Y-77400000D03*
%TD*%
D10*
%TO.C,U3*%
X31242000Y-99695000D03*
D11*
X33782000Y-99695000D03*
X36322000Y-99695000D03*
X38862000Y-99695000D03*
X41402000Y-99695000D03*
X43942000Y-99695000D03*
X46482000Y-99695000D03*
X49022000Y-99695000D03*
X51562000Y-99695000D03*
X54102000Y-99695000D03*
X56642000Y-99695000D03*
X59182000Y-99695000D03*
X59182000Y-84455000D03*
X56642000Y-84455000D03*
X54102000Y-84455000D03*
X51562000Y-84455000D03*
X49022000Y-84455000D03*
X46482000Y-84455000D03*
X43942000Y-84455000D03*
X41402000Y-84455000D03*
X38862000Y-84455000D03*
X36322000Y-84455000D03*
X33782000Y-84455000D03*
X31242000Y-84455000D03*
%TD*%
D10*
%TO.C,U30*%
X232751620Y-45466000D03*
D11*
X230211620Y-45466000D03*
X227671620Y-45466000D03*
X225131620Y-45466000D03*
X222591620Y-45466000D03*
X220051620Y-45466000D03*
X217511620Y-45466000D03*
X214971620Y-45466000D03*
X214971620Y-53086000D03*
X217511620Y-53086000D03*
X220051620Y-53086000D03*
X222591620Y-53086000D03*
X225131620Y-53086000D03*
X227671620Y-53086000D03*
X230211620Y-53086000D03*
X232751620Y-53086000D03*
%TD*%
M02*
