M48
; DRILL file {KiCad 9.0.6-9.0.6~ubuntu22.04.1} date 2025-12-15T08:39:19+0100
; FORMAT={-:-/ absolute / metric / decimal}
; #@! TF.CreationDate,2025-12-15T08:39:19+01:00
; #@! TF.GenerationSoftware,Kicad,Pcbnew,9.0.6-9.0.6~ubuntu22.04.1
; #@! TF.FileFunction,MixedPlating,1,2
FMAT,2
METRIC
; #@! TA.AperFunction,Plated,PTH,ViaDrill
T1C0.400
; #@! TA.AperFunction,Plated,PTH,ViaDrill
T2C0.600
; #@! TA.AperFunction,Plated,PTH,ComponentDrill
T3C0.762
; #@! TA.AperFunction,Plated,PTH,ComponentDrill
T4C0.800
; #@! TA.AperFunction,Plated,PTH,ComponentDrill
T5C0.900
; #@! TA.AperFunction,Plated,PTH,ComponentDrill
T6C0.990
; #@! TA.AperFunction,Plated,PTH,ComponentDrill
T7C1.000
; #@! TA.AperFunction,Plated,PTH,ComponentDrill
T8C1.200
; #@! TA.AperFunction,Plated,PTH,ComponentDrill
T9C1.300
; #@! TA.AperFunction,Plated,PTH,ComponentDrill
T10C1.570
; #@! TA.AperFunction,Plated,PTH,ComponentDrill
T11C2.700
; #@! TA.AperFunction,Plated,PTH,ComponentDrill
T12C3.200
; #@! TA.AperFunction,NonPlated,NPTH,ComponentDrill
T13C2.400
; #@! TA.AperFunction,NonPlated,NPTH,ComponentDrill
T14C3.200
%
G90
G05
T1
X22.352Y-43.18
X22.606Y-66.802
X22.606Y-84.582
X22.606Y-87.376
X22.606Y-102.616
X25.2Y-78.2
X26.0Y-111.4
X26.67Y-70.358
X27.22Y-119.38
X27.287Y-79.756
X27.432Y-82.296
X27.577Y-61.722
X28.702Y-50.546
X28.702Y-64.516
X28.702Y-68.58
X28.702Y-75.946
X28.956Y-81.534
X29.972Y-62.23
X29.972Y-77.724
X30.734Y-38.608
X31.242Y-53.594
X31.242Y-93.218
X31.496Y-51.054
X31.75Y-80.01
X32.258Y-63.246
X33.782Y-77.724
X34.036Y-52.832
X34.036Y-93.726
X34.925Y-112.8
X35.052Y-48.006
X35.052Y-95.25
X35.3Y-135.4
X35.56Y-37.5
X36.576Y-53.594
X37.0Y-47.2
X37.084Y-22.606
X37.1Y-127.0
X37.5Y-120.3
X37.592Y-75.692
X37.6Y-40.2
X38.4Y-46.8
X38.5Y-133.7
X38.608Y-91.44
X38.7Y-114.6
X38.7Y-129.0
X38.862Y-54.61
X39.37Y-45.847
X39.502Y-93.197
X39.529Y-94.919
X41.402Y-81.788
X41.9Y-112.4
X41.91Y-25.654
X42.177Y-90.6
X42.6Y-111.4
X42.672Y-68.834
X42.672Y-78.74
X42.926Y-80.511
X43.688Y-56.134
X43.942Y-64.77
X45.212Y-33.528
X45.212Y-70.104
X45.212Y-91.44
X45.374Y-56.176
X46.228Y-30.15
X46.482Y-49.022
X46.736Y-75.692
X46.736Y-81.446
X46.791Y-72.557
X47.655Y-45.055
X47.699Y-90.4
X47.752Y-65.278
X47.752Y-93.218
X48.514Y-78.994
X49.022Y-64.516
X49.276Y-26.276
X49.8Y-122.325
X50.546Y-64.008
X51.308Y-32.6
X51.45Y-61.455
X51.816Y-72.39
X52.07Y-75.692
X52.578Y-92.456
X54.102Y-61.963
X55.762Y-68.061
X55.867Y-79.456
X56.6Y-61.8
X56.642Y-82.804
X58.166Y-80.518
X58.2Y-63.4
X58.674Y-72.958
X58.8Y-112.268
X59.182Y-49.276
X60.713Y-115.03
X60.96Y-33.5
X61.4Y-38.4
X61.4Y-92.4
X61.65Y-56.007
X61.8Y-109.541
X62.4Y-93.4
X62.738Y-22.352
X64.262Y-54.61
X64.366Y-109.541
X64.5Y-66.25
X65.25Y-33.75
X66.0Y-73.25
X66.04Y-59.436
X66.294Y-39.712
X67.2Y-85.8
X67.2Y-94.8
X68.352Y-93.552
X68.8Y-80.0
X69.652Y-72.475
X69.76Y-78.8
X70.75Y-60.75
X71.09Y-71.25
X71.6Y-80.0
X71.755Y-46.609
X71.8Y-118.8
X72.0Y-87.0
X72.39Y-48.768
X72.4Y-95.2
X72.5Y-59.25
X72.927Y-115.4
X73.0Y-66.382
X73.66Y-46.736
X73.66Y-53.34
X73.914Y-26.416
X74.422Y-118.11
X74.55Y-27.735
X74.6Y-74.25
X75.184Y-121.158
X75.2Y-122.8
X75.75Y-65.907
X75.946Y-22.606
X76.1Y-86.2
X76.2Y-53.594
X76.367Y-117.107
X76.5Y-71.75
X77.4Y-60.4
X77.47Y-121.666
X77.978Y-115.57
X78.25Y-37.25
X78.74Y-58.928
X79.4Y-101.2
X80.0Y-80.0
X80.0Y-92.2
X80.264Y-31.0
X80.518Y-113.03
X80.518Y-118.123
X80.75Y-38.5
X80.772Y-40.894
X81.788Y-33.0
X81.95Y-104.6
X82.0Y-86.0
X82.137Y-98.8
X83.0Y-67.0
X83.75Y-39.712
X83.775Y-71.26
X83.885Y-52.578
X84.283Y-42.418
X84.4Y-93.0
X84.525Y-45.72
X85.344Y-63.0
X85.344Y-25.59
X85.5Y-32.225
X85.598Y-58.801
X85.6Y-76.5
X85.6Y-80.2
X85.611Y-50.546
X85.945Y-30.239
X86.011Y-115.656
X86.27Y-89.82
X86.36Y-38.735
X86.394Y-63.75
X87.389Y-40.975
X87.8Y-90.6
X87.839Y-46.736
X87.884Y-114.3
X88.646Y-76.2
X88.732Y-25.139
X88.9Y-68.58
X89.225Y-53.594
X90.17Y-23.749
X90.2Y-125.8
X90.424Y-51.816
X90.652Y-39.598
X91.44Y-25.019
X92.202Y-73.914
X92.6Y-103.8
X92.6Y-121.251
X92.837Y-24.257
X93.218Y-60.198
X94.134Y-92.734
X94.234Y-53.594
X94.742Y-52.324
X95.2Y-96.0
X95.504Y-30.225
X96.774Y-73.406
X96.948Y-85.093
X97.72Y-48.42
X98.044Y-32.225
X98.298Y-77.0
X98.6Y-95.4
X99.314Y-74.422
X99.356Y-78.375
X99.4Y-87.6
X99.417Y-123.45
X99.441Y-62.738
X99.568Y-112.268
X99.568Y-54.102
X99.825Y-85.224
X100.576Y-56.642
X100.584Y-32.225
X100.584Y-59.944
X100.6Y-96.0
X101.826Y-71.12
X102.0Y-90.4
X102.4Y-113.0
X103.8Y-111.4
X103.886Y-54.102
X104.4Y-104.6
X104.775Y-37.211
X105.0Y-63.75
X105.5Y-85.75
X107.061Y-72.0
X107.256Y-60.825
X107.568Y-41.182
X108.0Y-123.025
X108.476Y-86.0
X108.826Y-69.055
X110.0Y-96.775
X110.25Y-71.75
X110.75Y-86.75
X111.0Y-128.0
X111.475Y-136.8
X111.5Y-77.25
X112.0Y-109.5
X113.792Y-87.63
X114.6Y-136.8
X114.808Y-77.978
X115.2Y-142.75
X115.281Y-63.534
X116.0Y-93.98
X116.078Y-99.568
X116.2Y-105.0
X116.332Y-51.054
X116.475Y-131.8
X117.094Y-62.23
X117.348Y-46.736
X117.602Y-77.47
X117.729Y-34.4
X118.618Y-88.392
X118.618Y-123.025
X119.38Y-22.733
X120.0Y-74.943
X120.142Y-47.752
X120.4Y-25.781
X120.45Y-141.6
X120.73Y-90.05
X120.904Y-109.5
X122.139Y-69.388
X123.1Y-31.2
X123.382Y-123.201
X123.894Y-94.975
X123.952Y-26.475
X124.714Y-51.308
X124.714Y-73.406
X124.793Y-75.597
X125.984Y-80.01
X126.2Y-103.6
X126.365Y-67.881
X127.381Y-55.499
X127.485Y-45.362
X127.672Y-54.49
X128.4Y-142.825
X128.674Y-54.174
X128.75Y-135.175
X129.564Y-88.405
X130.0Y-29.458
X130.0Y-117.2
X130.2Y-33.6
X131.045Y-77.457
X131.255Y-51.117
X132.588Y-72.644
X132.668Y-70.163
X133.35Y-47.117
X133.858Y-73.66
X134.0Y-77.221
X134.366Y-94.975
X134.841Y-23.63
X135.001Y-50.94
X135.128Y-61.976
X135.166Y-75.692
X135.2Y-90.0
X135.641Y-55.372
X135.952Y-104.2
X137.16Y-53.096
X137.225Y-69.873
X137.225Y-89.167
X137.795Y-48.006
X137.922Y-54.102
X138.975Y-72.425
X139.065Y-28.668
X139.2Y-122.4
X139.225Y-96.525
X139.25Y-108.966
X139.954Y-45.974
X140.157Y-63.225
X140.462Y-68.199
X140.867Y-55.049
X140.97Y-103.378
X141.224Y-101.854
X141.5Y-88.0
X141.666Y-59.852
X142.24Y-120.396
X142.5Y-100.584
X142.748Y-22.152
X142.748Y-31.877
X142.748Y-62.23
X142.793Y-38.989
X142.867Y-45.466
X143.002Y-99.314
X143.129Y-23.876
X143.243Y-34.938
X143.51Y-92.5
X143.51Y-98.044
X144.018Y-60.706
X144.78Y-66.294
X145.428Y-50.75
X145.542Y-97.282
X145.878Y-52.07
X146.5Y-80.5
X146.558Y-41.148
X146.558Y-53.594
X149.479Y-39.878
X149.5Y-84.25
X149.733Y-26.924
X149.733Y-96.525
X149.934Y-36.053
X150.045Y-68.938
X150.25Y-83.0
X150.512Y-47.401
X150.622Y-46.355
X151.13Y-34.29
X151.53Y-71.867
X152.711Y-30.601
X153.067Y-71.77
X153.152Y-77.975
X153.232Y-66.478
X153.289Y-101.835
X153.797Y-73.533
X154.94Y-101.092
X155.022Y-73.051
X155.575Y-64.77
X156.718Y-103.189
X156.972Y-71.501
X157.1Y-126.238
X158.115Y-42.164
X159.512Y-29.845
X159.639Y-48.641
X159.766Y-39.878
X159.766Y-96.533
X161.2Y-31.0
X162.052Y-77.5
X162.56Y-95.625
X163.449Y-28.943
X163.449Y-40.513
X163.992Y-103.645
X164.719Y-73.501
X164.973Y-41.529
X165.799Y-76.399
X167.132Y-55.118
X167.386Y-95.175
X169.024Y-64.021
X169.799Y-73.051
X169.926Y-94.725
X172.6Y-82.0
X172.6Y-117.2
X172.902Y-94.275
X173.6Y-36.8
X173.825Y-52.895
X174.0Y-82.4
X174.159Y-48.903
X174.625Y-29.21
X174.8Y-57.8
X175.7Y-48.467
X175.999Y-59.822
X176.2Y-61.4
X176.4Y-84.8
X176.53Y-98.298
X176.889Y-55.889
X177.4Y-110.467
X177.6Y-60.8
X178.8Y-59.8
X179.0Y-37.2
X179.0Y-47.4
X179.3Y-49.3
X179.396Y-96.223
X180.4Y-49.8
X180.425Y-96.43
X180.47Y-91.316
X180.6Y-77.4
X180.775Y-90.12
X181.2Y-53.8
X181.2Y-116.0
X181.355Y-50.43
X181.6Y-111.8
X181.737Y-105.537
X182.063Y-90.932
X182.2Y-53.8
X182.6Y-116.0
X182.638Y-55.572
X183.2Y-52.6
X183.4Y-53.6
X183.413Y-56.413
X183.6Y-87.884
X184.785Y-93.599
X186.3Y-29.3
X186.436Y-92.583
X188.2Y-88.8
X188.8Y-21.0
X190.2Y-106.8
X191.4Y-32.6
X193.064Y-119.864
X193.548Y-112.395
X194.0Y-31.0
X194.183Y-79.121
X194.8Y-57.688
X195.6Y-74.8
X196.2Y-30.0
X197.2Y-58.6
X199.2Y-28.4
X201.6Y-27.6
X202.559Y-106.293
X204.784Y-25.816
X205.486Y-60.706
X206.0Y-100.8
X206.2Y-124.2
X206.756Y-58.039
X207.0Y-26.6
X207.8Y-30.0
X208.0Y-81.0
X208.6Y-65.0
X209.0Y-83.4
X210.2Y-74.8
X210.347Y-96.6
X210.347Y-99.568
X210.347Y-107.061
X210.347Y-113.538
X210.347Y-118.11
X210.4Y-76.18
X211.0Y-29.2
X211.074Y-127.508
X211.2Y-89.2
X211.2Y-94.8
X212.4Y-92.2
X212.4Y-106.6
X215.4Y-82.0
X216.662Y-126.746
X220.726Y-109.982
X221.488Y-73.6
X223.266Y-108.966
X225.4Y-86.4
X227.965Y-111.252
X228.6Y-71.4
X229.484Y-105.41
X230.759Y-78.994
X237.0Y-66.4
T2
X146.65Y-76.75
X179.419Y-125.635
T3
X22.14Y-107.188
X22.14Y-124.968
X24.68Y-107.188
X24.68Y-124.968
X27.22Y-107.188
X27.22Y-124.968
X29.76Y-107.188
X29.76Y-124.968
X32.3Y-107.188
X32.3Y-124.968
X34.84Y-107.188
X34.84Y-124.968
X37.38Y-107.188
X37.38Y-124.968
X39.92Y-107.188
X39.92Y-124.968
X42.46Y-107.188
X42.46Y-124.968
X45.0Y-107.188
X45.0Y-124.968
X47.54Y-107.188
X47.54Y-124.968
X50.08Y-107.188
X50.08Y-124.968
X52.62Y-107.188
X52.62Y-124.968
X55.16Y-107.188
X55.16Y-124.968
X57.7Y-107.188
X57.7Y-124.968
X60.24Y-107.188
X60.24Y-124.968
X62.78Y-107.188
X62.78Y-124.968
X65.32Y-107.188
X65.32Y-124.968
X67.86Y-107.188
X67.86Y-124.968
X70.4Y-107.188
X70.4Y-124.968
T4
X26.162Y-43.18
X26.162Y-58.42
X26.162Y-66.675
X26.162Y-74.295
X26.162Y-87.122
X26.162Y-102.362
X28.702Y-43.18
X28.702Y-58.42
X28.702Y-66.675
X28.702Y-74.295
X28.702Y-87.122
X28.702Y-102.362
X31.242Y-43.18
X31.242Y-58.42
X31.242Y-66.675
X31.242Y-74.295
X31.242Y-84.455
X31.242Y-87.122
X31.242Y-99.695
X31.242Y-102.362
X33.782Y-43.18
X33.782Y-58.42
X33.782Y-66.675
X33.782Y-74.295
X33.782Y-84.455
X33.782Y-87.122
X33.782Y-99.695
X33.782Y-102.362
X36.322Y-43.18
X36.322Y-58.42
X36.322Y-66.675
X36.322Y-74.295
X36.322Y-84.455
X36.322Y-87.122
X36.322Y-99.695
X36.322Y-102.362
X37.846Y-27.94
X37.846Y-35.56
X38.862Y-43.18
X38.862Y-58.42
X38.862Y-66.675
X38.862Y-74.295
X38.862Y-84.455
X38.862Y-87.122
X38.862Y-99.695
X38.862Y-102.362
X40.386Y-27.94
X40.386Y-35.56
X41.402Y-43.18
X41.402Y-58.42
X41.402Y-66.675
X41.402Y-74.295
X41.402Y-84.455
X41.402Y-87.122
X41.402Y-99.695
X41.402Y-102.362
X42.926Y-27.94
X42.926Y-35.56
X43.942Y-43.18
X43.942Y-58.42
X43.942Y-66.675
X43.942Y-74.295
X43.942Y-84.455
X43.942Y-87.122
X43.942Y-99.695
X43.942Y-102.362
X45.466Y-27.94
X45.466Y-35.56
X46.228Y-25.4
X46.482Y-43.18
X46.482Y-58.42
X46.482Y-66.675
X46.482Y-74.295
X46.482Y-84.455
X46.482Y-87.122
X46.482Y-99.695
X46.482Y-102.362
X48.006Y-27.94
X48.006Y-35.56
X49.022Y-43.18
X49.022Y-58.42
X49.022Y-66.675
X49.022Y-74.295
X49.022Y-84.455
X49.022Y-87.122
X49.022Y-99.695
X49.022Y-102.362
X50.546Y-27.94
X50.546Y-35.56
X51.228Y-25.4
X51.562Y-43.18
X51.562Y-58.42
X51.562Y-84.455
X51.562Y-87.122
X51.562Y-99.695
X51.562Y-102.362
X53.086Y-27.94
X53.086Y-35.56
X54.102Y-43.18
X54.102Y-58.42
X54.102Y-84.455
X54.102Y-87.122
X54.102Y-99.695
X54.102Y-102.362
X55.626Y-27.94
X55.626Y-35.56
X56.642Y-43.18
X56.642Y-58.42
X56.642Y-84.455
X56.642Y-87.122
X56.642Y-99.695
X56.642Y-102.362
X58.166Y-27.94
X58.166Y-35.56
X59.182Y-43.18
X59.182Y-58.42
X59.182Y-84.455
X59.182Y-87.122
X59.182Y-99.695
X59.182Y-102.362
X60.706Y-27.94
X60.706Y-35.56
X61.976Y-78.486
X61.976Y-83.486
X63.442Y-43.356
X63.442Y-50.976
X63.47Y-68.88
X63.47Y-76.5
X63.5Y-56.007
X63.5Y-63.627
X65.4Y-97.18
X65.4Y-104.8
X65.982Y-43.356
X65.982Y-50.976
X66.01Y-68.88
X66.01Y-76.5
X66.02Y-82.2
X66.02Y-89.82
X66.04Y-56.007
X66.04Y-63.627
X67.94Y-97.18
X67.94Y-104.8
X68.522Y-43.356
X68.522Y-50.976
X68.55Y-68.88
X68.55Y-76.5
X68.56Y-82.2
X68.56Y-89.82
X68.58Y-56.007
X68.58Y-63.627
X70.48Y-97.18
X70.48Y-104.8
X71.062Y-43.356
X71.062Y-50.976
X71.09Y-68.88
X71.09Y-76.5
X71.1Y-82.2
X71.1Y-89.82
X71.12Y-56.007
X71.12Y-63.627
X73.02Y-97.18
X73.02Y-104.8
X73.602Y-43.356
X73.602Y-50.976
X73.63Y-68.88
X73.63Y-76.5
X73.64Y-82.2
X73.64Y-89.82
X73.66Y-56.007
X73.66Y-63.627
X75.56Y-97.18
X75.56Y-104.8
X76.142Y-43.356
X76.142Y-50.976
X76.17Y-68.88
X76.17Y-76.5
X76.18Y-82.2
X76.18Y-89.82
X76.2Y-56.007
X76.2Y-63.627
X78.1Y-97.18
X78.1Y-104.8
X78.682Y-43.356
X78.682Y-50.976
X78.71Y-68.88
X78.71Y-76.5
X78.72Y-82.2
X78.72Y-89.82
X78.74Y-56.007
X78.74Y-63.627
X80.264Y-27.94
X80.264Y-35.56
X80.64Y-97.18
X80.64Y-104.8
X81.222Y-43.356
X81.222Y-50.976
X81.25Y-68.88
X81.25Y-76.5
X81.26Y-82.2
X81.26Y-89.82
X81.28Y-56.007
X81.28Y-63.627
X82.804Y-27.94
X82.804Y-35.56
X83.8Y-82.2
X83.8Y-89.82
X85.2Y-98.98
X85.2Y-106.6
X85.288Y-109.496
X85.288Y-117.116
X85.344Y-27.94
X85.344Y-35.56
X87.74Y-98.98
X87.74Y-106.6
X87.828Y-109.496
X87.828Y-117.116
X87.884Y-27.94
X87.884Y-35.56
X89.281Y-43.561
X89.281Y-58.801
X89.281Y-66.421
X89.281Y-81.661
X89.4Y-87.0
X90.28Y-98.98
X90.28Y-106.6
X90.368Y-109.496
X90.368Y-117.116
X90.424Y-27.94
X90.424Y-35.56
X91.821Y-43.561
X91.821Y-58.801
X91.821Y-66.421
X91.821Y-81.661
X92.82Y-98.98
X92.82Y-106.6
X92.908Y-109.496
X92.908Y-117.116
X92.964Y-27.94
X92.964Y-35.56
X94.361Y-43.561
X94.361Y-58.801
X94.361Y-66.421
X94.361Y-81.661
X94.4Y-87.0
X94.7Y-127.4
X95.36Y-98.98
X95.36Y-106.6
X95.448Y-109.496
X95.448Y-117.116
X95.504Y-27.94
X95.504Y-35.56
X96.901Y-43.561
X96.901Y-58.801
X96.901Y-66.421
X96.901Y-81.661
X97.9Y-98.98
X97.9Y-106.6
X97.988Y-109.496
X97.988Y-117.116
X98.044Y-27.94
X98.044Y-35.56
X99.441Y-43.561
X99.441Y-58.801
X99.441Y-66.421
X99.441Y-81.661
X99.7Y-127.4
X100.44Y-98.98
X100.44Y-106.6
X100.528Y-109.496
X100.528Y-117.116
X100.584Y-27.94
X100.584Y-35.56
X101.981Y-43.561
X101.981Y-58.801
X101.981Y-66.421
X101.981Y-81.661
X103.124Y-27.94
X103.124Y-35.56
X104.521Y-43.561
X104.521Y-58.801
X104.521Y-66.421
X104.521Y-81.661
X104.6Y-92.16
X104.6Y-107.4
X107.061Y-43.561
X107.061Y-58.801
X107.061Y-66.421
X107.061Y-81.661
X107.14Y-92.16
X107.14Y-107.4
X109.601Y-43.561
X109.601Y-58.801
X109.601Y-66.421
X109.601Y-81.661
X109.68Y-92.16
X109.68Y-107.4
X112.141Y-43.561
X112.141Y-58.801
X112.141Y-66.421
X112.141Y-81.661
X112.16Y-112.8
X112.16Y-120.42
X112.22Y-92.16
X112.22Y-107.4
X114.681Y-43.561
X114.681Y-58.801
X114.681Y-66.421
X114.681Y-81.661
X114.7Y-112.8
X114.7Y-120.42
X114.76Y-92.16
X114.76Y-107.4
X115.228Y-35.371
X115.228Y-40.371
X117.221Y-43.561
X117.221Y-58.801
X117.221Y-66.421
X117.221Y-81.661
X117.24Y-112.8
X117.24Y-120.42
X117.3Y-92.16
X117.3Y-107.4
X119.761Y-43.561
X119.761Y-58.801
X119.761Y-66.421
X119.761Y-81.661
X119.78Y-112.8
X119.78Y-120.42
X119.84Y-92.16
X119.84Y-107.4
X122.301Y-43.561
X122.301Y-58.801
X122.301Y-66.421
X122.301Y-81.661
X122.32Y-112.8
X122.32Y-120.42
X122.38Y-92.16
X122.38Y-107.4
X124.841Y-43.561
X124.841Y-58.801
X124.841Y-66.421
X124.841Y-81.661
X124.86Y-112.8
X124.86Y-120.42
X124.92Y-92.16
X124.92Y-107.4
X126.746Y-123.992
X126.746Y-128.992
X127.381Y-43.561
X127.381Y-58.801
X127.381Y-66.421
X127.381Y-81.661
X127.4Y-112.8
X127.4Y-120.42
X127.46Y-92.16
X127.46Y-107.4
X129.921Y-43.561
X129.921Y-58.801
X129.921Y-66.421
X129.921Y-81.661
X130.0Y-92.16
X130.0Y-107.4
X132.461Y-43.561
X132.461Y-58.801
X132.461Y-66.421
X132.461Y-81.661
X132.54Y-92.16
X132.54Y-107.4
X135.001Y-43.561
X135.001Y-58.801
X135.001Y-66.421
X135.001Y-81.661
X137.541Y-43.561
X137.541Y-58.801
X137.541Y-66.421
X137.541Y-81.661
X144.653Y-90.043
X144.653Y-105.283
X147.193Y-90.043
X147.193Y-105.283
X148.71Y-115.71
X149.733Y-90.043
X149.733Y-105.283
X151.25Y-113.17
X151.25Y-118.25
X152.273Y-90.043
X152.273Y-105.283
X153.162Y-25.908
X153.162Y-33.528
X153.289Y-38.227
X153.289Y-45.847
X153.289Y-50.292
X153.289Y-57.912
X153.289Y-61.722
X153.289Y-69.342
X154.813Y-90.043
X154.813Y-105.283
X155.21Y-115.54
X155.702Y-25.908
X155.702Y-33.528
X155.829Y-38.227
X155.829Y-45.847
X155.829Y-50.292
X155.829Y-57.912
X155.829Y-61.722
X155.829Y-69.342
X157.353Y-90.043
X157.353Y-105.283
X157.75Y-113.0
X157.75Y-118.08
X158.242Y-25.908
X158.242Y-33.528
X158.369Y-38.227
X158.369Y-45.847
X158.369Y-50.292
X158.369Y-57.912
X158.369Y-61.722
X158.369Y-69.342
X159.893Y-90.043
X159.893Y-105.283
X160.782Y-25.908
X160.782Y-33.528
X160.909Y-38.227
X160.909Y-45.847
X160.909Y-50.292
X160.909Y-57.912
X160.909Y-61.722
X160.909Y-69.342
X162.433Y-90.043
X162.433Y-105.283
X163.322Y-25.908
X163.322Y-33.528
X163.449Y-38.227
X163.449Y-45.847
X163.449Y-50.292
X163.449Y-57.912
X163.449Y-61.722
X163.449Y-69.342
X164.973Y-90.043
X164.973Y-105.283
X165.4Y-22.0
X165.862Y-25.908
X165.862Y-33.528
X165.989Y-38.227
X165.989Y-45.847
X165.989Y-50.292
X165.989Y-57.912
X165.989Y-61.722
X165.989Y-69.342
X167.513Y-90.043
X167.513Y-105.283
X168.0Y-75.4
X168.402Y-25.908
X168.402Y-33.528
X168.529Y-38.227
X168.529Y-45.847
X168.529Y-50.292
X168.529Y-57.912
X168.529Y-61.722
X168.529Y-69.342
X170.053Y-90.043
X170.053Y-105.283
X170.4Y-22.0
X170.942Y-25.908
X170.942Y-33.528
X171.069Y-38.227
X171.069Y-45.847
X171.069Y-50.292
X171.069Y-57.912
X171.069Y-61.722
X171.069Y-69.342
X172.593Y-90.043
X172.593Y-105.283
X173.0Y-75.4
X175.133Y-90.043
X175.133Y-105.283
X177.327Y-23.76
X177.327Y-39.0
X177.673Y-90.043
X177.673Y-105.283
X178.6Y-112.2
X178.6Y-117.2
X179.867Y-23.76
X179.867Y-39.0
X181.2Y-82.6
X182.407Y-23.76
X182.407Y-39.0
X184.536Y-110.48
X184.536Y-118.1
X184.6Y-96.98
X184.6Y-104.6
X184.947Y-23.76
X184.947Y-39.0
X185.644Y-43.756
X185.644Y-48.756
X185.8Y-85.344
X185.8Y-90.344
X186.2Y-82.6
X187.076Y-110.48
X187.076Y-118.1
X187.14Y-96.98
X187.14Y-104.6
X187.487Y-23.76
X187.487Y-39.0
X188.46Y-65.38
X188.46Y-73.0
X188.88Y-42.0
X188.88Y-49.62
X189.4Y-86.38
X189.4Y-94.0
X189.616Y-110.48
X189.616Y-118.1
X189.68Y-96.98
X189.68Y-104.6
X190.027Y-23.76
X190.027Y-39.0
X191.0Y-65.38
X191.0Y-73.0
X191.42Y-42.0
X191.42Y-49.62
X191.76Y-76.18
X191.76Y-83.8
X191.94Y-86.38
X191.94Y-94.0
X192.156Y-110.48
X192.156Y-118.1
X192.22Y-96.98
X192.22Y-104.6
X192.567Y-23.76
X192.567Y-39.0
X193.54Y-65.38
X193.54Y-73.0
X193.96Y-42.0
X193.96Y-49.62
X194.3Y-76.18
X194.3Y-83.8
X194.48Y-86.38
X194.48Y-94.0
X194.696Y-110.48
X194.696Y-118.1
X194.76Y-96.98
X194.76Y-104.6
X195.107Y-23.76
X195.107Y-39.0
X196.08Y-65.38
X196.08Y-73.0
X196.5Y-42.0
X196.5Y-49.62
X196.84Y-76.18
X196.84Y-83.8
X197.02Y-86.38
X197.02Y-94.0
X197.236Y-110.48
X197.236Y-118.1
X197.3Y-96.98
X197.3Y-104.6
X197.647Y-23.76
X197.647Y-39.0
X198.62Y-65.38
X198.62Y-73.0
X199.04Y-42.0
X199.04Y-49.62
X199.38Y-76.18
X199.38Y-83.8
X199.56Y-86.38
X199.56Y-94.0
X199.776Y-110.48
X199.776Y-118.1
X199.84Y-96.98
X199.84Y-104.6
X200.187Y-23.76
X200.187Y-39.0
X201.16Y-65.38
X201.16Y-73.0
X201.58Y-42.0
X201.58Y-49.62
X201.92Y-76.18
X201.92Y-83.8
X202.1Y-86.38
X202.1Y-94.0
X202.316Y-110.48
X202.316Y-118.1
X202.38Y-96.98
X202.38Y-104.6
X202.727Y-23.76
X202.727Y-39.0
X203.7Y-65.38
X203.7Y-73.0
X204.12Y-42.0
X204.12Y-49.62
X204.46Y-76.18
X204.46Y-83.8
X204.64Y-86.38
X204.64Y-94.0
X204.856Y-110.48
X204.856Y-118.1
X204.92Y-96.98
X204.92Y-104.6
X205.267Y-23.76
X205.267Y-39.0
X206.24Y-65.38
X206.24Y-73.0
X206.66Y-42.0
X206.66Y-49.62
X207.0Y-76.18
X207.0Y-83.8
X207.18Y-86.38
X207.18Y-94.0
X207.396Y-110.48
X207.396Y-118.1
X207.46Y-96.98
X207.46Y-104.6
X207.807Y-23.76
X207.807Y-39.0
X209.2Y-42.0
X209.2Y-49.62
X210.347Y-23.76
X210.347Y-39.0
X211.74Y-42.0
X211.74Y-49.62
X213.4Y-72.4
X213.4Y-77.4
X213.995Y-121.158
X213.995Y-126.158
X214.63Y-83.606
X214.63Y-88.606
X214.63Y-95.758
X214.63Y-100.758
X214.972Y-45.466
X214.972Y-53.086
X215.2Y-60.2
X215.2Y-65.2
X215.686Y-25.4
X215.734Y-40.386
X217.512Y-45.466
X217.512Y-53.086
X217.972Y-63.754
X218.05Y-69.357
X218.05Y-76.977
X218.059Y-69.342
X218.059Y-76.962
X218.186Y-25.4
X218.234Y-40.386
X219.202Y-106.934
X219.202Y-114.554
X219.202Y-117.602
X219.202Y-125.222
X219.324Y-94.478
X219.324Y-102.098
X219.329Y-82.042
X219.329Y-89.662
X220.052Y-45.466
X220.052Y-53.086
X221.742Y-106.934
X221.742Y-114.554
X221.742Y-117.602
X221.742Y-125.222
X221.864Y-94.478
X221.864Y-102.098
X221.869Y-82.042
X221.869Y-89.662
X222.592Y-45.466
X222.592Y-53.086
X222.759Y-40.386
X222.972Y-63.754
X224.282Y-106.934
X224.282Y-114.554
X224.282Y-117.602
X224.282Y-125.222
X224.404Y-94.478
X224.404Y-102.098
X224.409Y-82.042
X224.409Y-89.662
X225.132Y-45.466
X225.132Y-53.086
X225.259Y-40.386
X225.67Y-69.357
X225.67Y-76.977
X226.822Y-106.934
X226.822Y-114.554
X226.822Y-117.602
X226.822Y-125.222
X226.862Y-61.849
X226.944Y-94.478
X226.944Y-102.098
X226.949Y-82.042
X226.949Y-89.662
X227.672Y-45.466
X227.672Y-53.086
X229.362Y-61.849
X229.362Y-106.934
X229.362Y-114.554
X229.362Y-117.602
X229.362Y-125.222
X229.484Y-94.478
X229.484Y-102.098
X229.489Y-82.042
X229.489Y-89.662
X229.744Y-40.386
X230.212Y-45.466
X230.212Y-53.086
X231.631Y-56.769
X231.902Y-106.934
X231.902Y-114.554
X231.902Y-117.602
X231.902Y-125.222
X232.024Y-94.478
X232.024Y-102.098
X232.029Y-82.042
X232.029Y-89.662
X232.244Y-40.386
X232.752Y-45.466
X232.752Y-53.086
X233.299Y-69.342
X233.299Y-76.962
X234.442Y-106.934
X234.442Y-114.554
X234.442Y-117.602
X234.442Y-125.222
X234.564Y-94.478
X234.564Y-102.098
X234.569Y-82.042
X234.569Y-89.662
X236.631Y-56.769
T5
X151.63Y-123.5
X159.25Y-123.5
X179.832Y-129.667
X179.832Y-137.287
T6
X36.5Y-141.1
X41.0Y-141.1
X81.6Y-141.1
X86.1Y-141.1
T7
X43.66Y-129.9
X46.2Y-129.9
X50.0Y-129.9
X52.54Y-129.9
X55.08Y-129.9
X56.455Y-137.96
X56.455Y-141.76
X57.6Y-139.86
X57.62Y-129.9
X58.745Y-137.96
X58.745Y-141.76
X59.89Y-139.86
X60.16Y-129.9
X61.035Y-137.96
X61.035Y-141.76
X62.18Y-139.86
X62.7Y-129.9
X63.325Y-137.96
X63.325Y-141.76
X64.47Y-139.86
X65.615Y-137.96
X65.615Y-141.76
X66.76Y-139.86
X75.692Y-126.492
X78.232Y-126.492
X80.772Y-126.492
X83.312Y-126.492
X85.852Y-126.492
X88.392Y-126.492
X122.301Y-23.114
X131.191Y-40.005
X132.08Y-30.988
X151.4Y-130.8
X151.4Y-133.34
X208.788Y-129.4
X209.042Y-137.414
X209.042Y-139.954
X213.868Y-129.794
X216.408Y-129.794
X218.948Y-129.794
T8
X115.57Y-31.242
X125.603Y-23.114
X128.27Y-31.242
X133.3Y-113.25
X133.3Y-117.75
X133.4Y-122.0
X133.4Y-126.4
X138.303Y-23.114
X146.0Y-113.25
X146.0Y-117.75
X146.1Y-122.0
X146.1Y-126.4
X153.05Y-82.25
X162.05Y-123.75
X162.206Y-113.068
X162.25Y-117.25
X165.75Y-82.25
X174.75Y-123.75
X174.906Y-113.068
X174.95Y-117.25
X182.372Y-123.444
X182.6Y-66.6
X182.6Y-79.3
X195.072Y-123.444
X197.993Y-123.444
X210.693Y-123.444
X213.614Y-103.759
X213.614Y-116.459
X215.4Y-56.896
X228.1Y-56.896
T9
X35.24Y-138.61
X42.25Y-138.61
X80.34Y-138.61
X87.35Y-138.61
X157.5Y-132.5
X160.0Y-130.0
X162.5Y-142.5
X165.0Y-132.5
X167.5Y-142.5
X170.0Y-130.0
X172.5Y-132.5
X187.75Y-132.5
X190.25Y-130.0
X192.75Y-142.5
X195.25Y-132.5
X197.75Y-142.5
X200.25Y-130.0
X202.75Y-132.5
T10
X141.0Y-136.92
T11
X135.92Y-136.92
X141.0Y-142.0
X146.08Y-136.92
T12
X48.8Y-139.85
X73.8Y-139.85
T13
X157.5Y-137.5
X172.5Y-137.5
X187.75Y-137.5
X202.75Y-137.5
T14
X29.0Y-30.75
X29.0Y-130.25
X31.5Y-30.75
X31.5Y-130.25
X226.5Y-30.75
X226.5Y-130.25
X229.0Y-30.75
X229.0Y-130.25
T4
G00X96.3Y-131.0
M15
G01X98.9Y-131.0
M16
G05
G00X96.5Y-136.8
M15
G01X98.7Y-136.8
M16
G05
G00X102.4Y-135.1
M15
G01X102.4Y-132.9
M16
G05
M30
