%TF.GenerationSoftware,KiCad,Pcbnew,8.0.7-8.0.7-0~ubuntu22.04.1*%
%TF.CreationDate,2025-01-30T17:32:51+01:00*%
%TF.ProjectId,EVA1_production,45564131-5f70-4726-9f64-756374696f6e,rev?*%
%TF.SameCoordinates,Original*%
%TF.FileFunction,Copper,L2,Bot*%
%TF.FilePolarity,Positive*%
%FSLAX46Y46*%
G04 Gerber Fmt 4.6, Leading zero omitted, Abs format (unit mm)*
G04 Created by KiCad (PCBNEW 8.0.7-8.0.7-0~ubuntu22.04.1) date 2025-01-30 17:32:51*
%MOMM*%
%LPD*%
G01*
G04 APERTURE LIST*
%TA.AperFunction,ComponentPad*%
%ADD10R,1.700000X1.700000*%
%TD*%
%TA.AperFunction,ComponentPad*%
%ADD11O,1.700000X1.700000*%
%TD*%
%TA.AperFunction,ComponentPad*%
%ADD12R,1.600000X1.600000*%
%TD*%
%TA.AperFunction,ComponentPad*%
%ADD13O,1.600000X1.600000*%
%TD*%
%TA.AperFunction,ComponentPad*%
%ADD14C,1.600000*%
%TD*%
%TA.AperFunction,ComponentPad*%
%ADD15C,2.400000*%
%TD*%
%TA.AperFunction,ComponentPad*%
%ADD16O,2.400000X2.400000*%
%TD*%
%TA.AperFunction,ComponentPad*%
%ADD17R,1.500000X1.500000*%
%TD*%
%TA.AperFunction,ComponentPad*%
%ADD18C,1.500000*%
%TD*%
%TA.AperFunction,WasherPad*%
%ADD19C,2.500000*%
%TD*%
%TA.AperFunction,ComponentPad*%
%ADD20R,4.400000X1.800000*%
%TD*%
%TA.AperFunction,ComponentPad*%
%ADD21O,4.000000X1.800000*%
%TD*%
%TA.AperFunction,ComponentPad*%
%ADD22O,1.800000X4.000000*%
%TD*%
%TA.AperFunction,ComponentPad*%
%ADD23R,1.800000X1.800000*%
%TD*%
%TA.AperFunction,ComponentPad*%
%ADD24O,1.800000X1.800000*%
%TD*%
%TA.AperFunction,ComponentPad*%
%ADD25C,2.000000*%
%TD*%
%TA.AperFunction,ViaPad*%
%ADD26C,0.800000*%
%TD*%
%TA.AperFunction,ViaPad*%
%ADD27C,1.200000*%
%TD*%
%TA.AperFunction,Conductor*%
%ADD28C,0.250000*%
%TD*%
%TA.AperFunction,Conductor*%
%ADD29C,0.800000*%
%TD*%
%TA.AperFunction,Conductor*%
%ADD30C,0.400000*%
%TD*%
G04 APERTURE END LIST*
D10*
%TO.P,J9,1,Pin_1*%
%TO.N,GND*%
X102362000Y-133985000D03*
D11*
%TO.P,J9,2,Pin_2*%
%TO.N,/Video*%
X99822000Y-133985000D03*
%TO.P,J9,3,Pin_3*%
%TO.N,/CSYNC*%
X97282000Y-133985000D03*
%TO.P,J9,4,Pin_4*%
%TO.N,Net-(J9-Pin_4)*%
X94742000Y-133985000D03*
%TD*%
D12*
%TO.P,U26,1,OEa*%
%TO.N,/Graphic RAM\u002C MUX and Shiftregister/~{CPUH_En}*%
X148556630Y-50800000D03*
D13*
%TO.P,U26,2,I0a*%
%TO.N,/A7*%
X151096630Y-50800000D03*
%TO.P,U26,3,O3b*%
%TO.N,/Graphic RAM\u002C MUX and Shiftregister/VA7*%
X153636630Y-50800000D03*
%TO.P,U26,4,I1a*%
%TO.N,/A12*%
X156176630Y-50800000D03*
%TO.P,U26,5,O2b*%
%TO.N,/Graphic RAM\u002C MUX and Shiftregister/VA1*%
X158716630Y-50800000D03*
%TO.P,U26,6,I2a*%
%TO.N,/A10*%
X161256630Y-50800000D03*
%TO.P,U26,7,O1b*%
%TO.N,/Graphic RAM\u002C MUX and Shiftregister/VA6*%
X163796630Y-50800000D03*
%TO.P,U26,8,I3a*%
%TO.N,/A9*%
X166336630Y-50800000D03*
%TO.P,U26,9,O0b*%
%TO.N,/Graphic RAM\u002C MUX and Shiftregister/VA4*%
X168876630Y-50800000D03*
%TO.P,U26,10,GND*%
%TO.N,GND*%
X171416630Y-50800000D03*
%TO.P,U26,11,I0b*%
%TO.N,/A11*%
X171416630Y-43180000D03*
%TO.P,U26,12,O3a*%
%TO.N,/Graphic RAM\u002C MUX and Shiftregister/VA2*%
X168876630Y-43180000D03*
%TO.P,U26,13,I1b*%
%TO.N,/A13*%
X166336630Y-43180000D03*
%TO.P,U26,14,O2a*%
%TO.N,/Graphic RAM\u002C MUX and Shiftregister/VA3*%
X163796630Y-43180000D03*
%TO.P,U26,15,I2b*%
%TO.N,/A8*%
X161256630Y-43180000D03*
%TO.P,U26,16,O1a*%
%TO.N,/Graphic RAM\u002C MUX and Shiftregister/VA5*%
X158716630Y-43180000D03*
%TO.P,U26,17,I3b*%
%TO.N,GND*%
X156176630Y-43180000D03*
%TO.P,U26,18,O0a*%
%TO.N,/Graphic RAM\u002C MUX and Shiftregister/VA0*%
X153636630Y-43180000D03*
%TO.P,U26,19,OEb*%
%TO.N,/Graphic RAM\u002C MUX and Shiftregister/~{CPUH_En}*%
X151096630Y-43180000D03*
%TO.P,U26,20,VCC*%
%TO.N,+5V*%
X148556630Y-43180000D03*
%TD*%
D12*
%TO.P,U21,1,E*%
%TO.N,/~{E}*%
X132250000Y-100000000D03*
D13*
%TO.P,U21,2,A0*%
%TO.N,/A14*%
X134790000Y-100000000D03*
%TO.P,U21,3,A1*%
%TO.N,/A15*%
X137330000Y-100000000D03*
%TO.P,U21,4,O0*%
%TO.N,Net-(U21A-O0)*%
X139870000Y-100000000D03*
%TO.P,U21,5,O1*%
%TO.N,/~{4000}*%
X142410000Y-100000000D03*
%TO.P,U21,6,O2*%
%TO.N,/~{8000}*%
X144950000Y-100000000D03*
%TO.P,U21,7,O3*%
%TO.N,/~{CEROM}*%
X147490000Y-100000000D03*
%TO.P,U21,8,GND*%
%TO.N,GND*%
X150030000Y-100000000D03*
%TO.P,U21,9,O3*%
%TO.N,unconnected-(U21B-O3-Pad9)*%
X150030000Y-92380000D03*
%TO.P,U21,10,O2*%
%TO.N,unconnected-(U21B-O2-Pad10)*%
X147490000Y-92380000D03*
%TO.P,U21,11,O1*%
%TO.N,/~{1000}*%
X144950000Y-92380000D03*
%TO.P,U21,12,O0*%
%TO.N,unconnected-(U21B-O0-Pad12)*%
X142410000Y-92380000D03*
%TO.P,U21,13,A1*%
%TO.N,/A13*%
X139870000Y-92380000D03*
%TO.P,U21,14,A0*%
%TO.N,/A12*%
X137330000Y-92380000D03*
%TO.P,U21,15,E*%
%TO.N,Net-(U21A-O0)*%
X134790000Y-92380000D03*
%TO.P,U21,16,VCC*%
%TO.N,+5V*%
X132250000Y-92380000D03*
%TD*%
D12*
%TO.P,U31,1*%
%TO.N,/~{E}*%
X162750000Y-122250000D03*
D13*
%TO.P,U31,2*%
%TO.N,/~{8000}*%
X165290000Y-122250000D03*
%TO.P,U31,3*%
%TO.N,/Graphic RAM\u002C MUX and Shiftregister/~{GRAM_En}*%
X167830000Y-122250000D03*
%TO.P,U31,4*%
X170370000Y-122250000D03*
%TO.P,U31,5*%
%TO.N,/R{slash}~{W}*%
X172910000Y-122250000D03*
%TO.P,U31,6*%
%TO.N,Net-(U31-Pad6)*%
X175450000Y-122250000D03*
%TO.P,U31,7,GND*%
%TO.N,GND*%
X177990000Y-122250000D03*
%TO.P,U31,8*%
%TO.N,/Text RAM\u002C MUX and Shiftregister1/~{TRAMWE}*%
X177990000Y-114630000D03*
%TO.P,U31,9*%
%TO.N,/~{1000}*%
X175450000Y-114630000D03*
%TO.P,U31,10*%
%TO.N,Net-(U31-Pad10)*%
X172910000Y-114630000D03*
%TO.P,U31,11*%
X170370000Y-114630000D03*
%TO.P,U31,12*%
%TO.N,/Graphic RAM\u002C MUX and Shiftregister/RASCLKIN*%
X167830000Y-114630000D03*
%TO.P,U31,13*%
%TO.N,/R{slash}~{W}*%
X165290000Y-114630000D03*
%TO.P,U31,14,VCC*%
%TO.N,+5V*%
X162750000Y-114630000D03*
%TD*%
D12*
%TO.P,U4,1,~{R}*%
%TO.N,/Video Signal Genration/U18_4*%
X26670000Y-115316000D03*
D13*
%TO.P,U4,2,D*%
%TO.N,/LD7*%
X29210000Y-115316000D03*
%TO.P,U4,3,C*%
%TO.N,Net-(U4A-C)*%
X31750000Y-115316000D03*
%TO.P,U4,4,~{S}*%
%TO.N,+5V*%
X34290000Y-115316000D03*
%TO.P,U4,5,Q*%
%TO.N,Net-(U4A-Q)*%
X36830000Y-115316000D03*
%TO.P,U4,6,~{Q}*%
%TO.N,unconnected-(U4A-~{Q}-Pad6)*%
X39370000Y-115316000D03*
%TO.P,U4,7,GND*%
%TO.N,GND*%
X41910000Y-115316000D03*
%TO.P,U4,8,~{Q}*%
%TO.N,unconnected-(U4B-~{Q}-Pad8)*%
X41910000Y-107696000D03*
%TO.P,U4,9,Q*%
%TO.N,Net-(U4B-Q)*%
X39370000Y-107696000D03*
%TO.P,U4,10,~{S}*%
%TO.N,/~{INVERT}*%
X36830000Y-107696000D03*
%TO.P,U4,11,C*%
%TO.N,Net-(U4B-C)*%
X34290000Y-107696000D03*
%TO.P,U4,12,D*%
%TO.N,/LD7*%
X31750000Y-107696000D03*
%TO.P,U4,13,~{R}*%
%TO.N,/Video Signal Genration/U18_4*%
X29210000Y-107696000D03*
%TO.P,U4,14,VCC*%
%TO.N,+5V*%
X26670000Y-107696000D03*
%TD*%
D12*
%TO.P,C23,1*%
%TO.N,Net-(C23-Pad1)*%
X181705113Y-132750000D03*
D14*
%TO.P,C23,2*%
%TO.N,GND*%
X179205113Y-132750000D03*
%TD*%
%TO.P,C14,1*%
%TO.N,GND*%
X151892000Y-125984000D03*
%TO.P,C14,2*%
%TO.N,Net-(C14-Pad2)*%
X146892000Y-125984000D03*
%TD*%
D15*
%TO.P,R3,1*%
%TO.N,Net-(U4A-Q)*%
X39370000Y-125476000D03*
D16*
%TO.P,R3,2*%
%TO.N,Net-(D1-K)*%
X52070000Y-125476000D03*
%TD*%
D14*
%TO.P,C2,1*%
%TO.N,/~{LOAD}*%
X56468000Y-141478000D03*
%TO.P,C2,2*%
%TO.N,/LTDAT*%
X61468000Y-141478000D03*
%TD*%
%TO.P,C15,1*%
%TO.N,+5V*%
X159004000Y-119380000D03*
%TO.P,C15,2*%
%TO.N,GND*%
X159004000Y-124380000D03*
%TD*%
D12*
%TO.P,U40,1,A8*%
%TO.N,GND*%
X201930000Y-48260000D03*
D13*
%TO.P,U40,2,Din*%
%TO.N,/Graphic RAM\u002C MUX and Shiftregister/GD5*%
X204470000Y-48260000D03*
%TO.P,U40,3,~{WE}*%
%TO.N,/Graphic RAM\u002C MUX and Shiftregister/~{WE}*%
X207010000Y-48260000D03*
%TO.P,U40,4,~{RAS}*%
%TO.N,/~{RAS}*%
X209550000Y-48260000D03*
%TO.P,U40,5,A0*%
%TO.N,/Graphic RAM\u002C MUX and Shiftregister/VA0*%
X212090000Y-48260000D03*
%TO.P,U40,6,A2*%
%TO.N,/Graphic RAM\u002C MUX and Shiftregister/VA2*%
X214630000Y-48260000D03*
%TO.P,U40,7,A1*%
%TO.N,/Graphic RAM\u002C MUX and Shiftregister/VA1*%
X217170000Y-48260000D03*
%TO.P,U40,8,Vcc*%
%TO.N,+5V*%
X219710000Y-48260000D03*
%TO.P,U40,9,A7*%
%TO.N,/Graphic RAM\u002C MUX and Shiftregister/VA7*%
X219710000Y-40640000D03*
%TO.P,U40,10,A5*%
%TO.N,/Graphic RAM\u002C MUX and Shiftregister/VA5*%
X217170000Y-40640000D03*
%TO.P,U40,11,A4*%
%TO.N,/Graphic RAM\u002C MUX and Shiftregister/VA4*%
X214630000Y-40640000D03*
%TO.P,U40,12,A3*%
%TO.N,/Graphic RAM\u002C MUX and Shiftregister/VA3*%
X212090000Y-40640000D03*
%TO.P,U40,13,A6*%
%TO.N,/Graphic RAM\u002C MUX and Shiftregister/VA6*%
X209550000Y-40640000D03*
%TO.P,U40,14,Dout*%
%TO.N,/Graphic RAM\u002C MUX and Shiftregister/GD5*%
X207010000Y-40640000D03*
%TO.P,U40,15,~{CAS}*%
%TO.N,/Graphic RAM\u002C MUX and Shiftregister/~{CAS}*%
X204470000Y-40640000D03*
%TO.P,U40,16,GND*%
%TO.N,GND*%
X201930000Y-40640000D03*
%TD*%
D12*
%TO.P,U36,1,A->B*%
%TO.N,/Graphic RAM\u002C MUX and Shiftregister/~{WE}*%
X184150000Y-91440000D03*
D13*
%TO.P,U36,2,A0*%
%TO.N,unconnected-(U36-A0-Pad2)*%
X186690000Y-91440000D03*
%TO.P,U36,3,A1*%
%TO.N,unconnected-(U36-A1-Pad3)*%
X189230000Y-91440000D03*
%TO.P,U36,4,A2*%
%TO.N,/Graphic RAM\u002C MUX and Shiftregister/GD2*%
X191770000Y-91440000D03*
%TO.P,U36,5,A3*%
%TO.N,/Graphic RAM\u002C MUX and Shiftregister/GD3*%
X194310000Y-91440000D03*
%TO.P,U36,6,A4*%
%TO.N,/Graphic RAM\u002C MUX and Shiftregister/GD4*%
X196850000Y-91440000D03*
%TO.P,U36,7,A5*%
%TO.N,/Graphic RAM\u002C MUX and Shiftregister/GD5*%
X199390000Y-91440000D03*
%TO.P,U36,8,A6*%
%TO.N,/Graphic RAM\u002C MUX and Shiftregister/GD6*%
X201930000Y-91440000D03*
%TO.P,U36,9,A7*%
%TO.N,/Graphic RAM\u002C MUX and Shiftregister/GD7*%
X204470000Y-91440000D03*
%TO.P,U36,10,GND*%
%TO.N,GND*%
X207010000Y-91440000D03*
%TO.P,U36,11,B7*%
%TO.N,/D7*%
X207010000Y-83820000D03*
%TO.P,U36,12,B6*%
%TO.N,/D6*%
X204470000Y-83820000D03*
%TO.P,U36,13,B5*%
%TO.N,/D5*%
X201930000Y-83820000D03*
%TO.P,U36,14,B4*%
%TO.N,/D4*%
X199390000Y-83820000D03*
%TO.P,U36,15,B3*%
%TO.N,/D3*%
X196850000Y-83820000D03*
%TO.P,U36,16,B2*%
%TO.N,/D2*%
X194310000Y-83820000D03*
%TO.P,U36,17,B1*%
%TO.N,unconnected-(U36-B1-Pad17)*%
X191770000Y-83820000D03*
%TO.P,U36,18,B0*%
%TO.N,unconnected-(U36-B0-Pad18)*%
X189230000Y-83820000D03*
%TO.P,U36,19,CE*%
%TO.N,/~{8000}*%
X186690000Y-83820000D03*
%TO.P,U36,20,VCC*%
%TO.N,+5V*%
X184150000Y-83820000D03*
%TD*%
D12*
%TO.P,U41,1,A8*%
%TO.N,GND*%
X201930000Y-60960000D03*
D13*
%TO.P,U41,2,Din*%
%TO.N,/Graphic RAM\u002C MUX and Shiftregister/GD4*%
X204470000Y-60960000D03*
%TO.P,U41,3,~{WE}*%
%TO.N,/Graphic RAM\u002C MUX and Shiftregister/~{WE}*%
X207010000Y-60960000D03*
%TO.P,U41,4,~{RAS}*%
%TO.N,/~{RAS}*%
X209550000Y-60960000D03*
%TO.P,U41,5,A0*%
%TO.N,/Graphic RAM\u002C MUX and Shiftregister/VA0*%
X212090000Y-60960000D03*
%TO.P,U41,6,A2*%
%TO.N,/Graphic RAM\u002C MUX and Shiftregister/VA2*%
X214630000Y-60960000D03*
%TO.P,U41,7,A1*%
%TO.N,/Graphic RAM\u002C MUX and Shiftregister/VA1*%
X217170000Y-60960000D03*
%TO.P,U41,8,Vcc*%
%TO.N,+5V*%
X219710000Y-60960000D03*
%TO.P,U41,9,A7*%
%TO.N,/Graphic RAM\u002C MUX and Shiftregister/VA7*%
X219710000Y-53340000D03*
%TO.P,U41,10,A5*%
%TO.N,/Graphic RAM\u002C MUX and Shiftregister/VA5*%
X217170000Y-53340000D03*
%TO.P,U41,11,A4*%
%TO.N,/Graphic RAM\u002C MUX and Shiftregister/VA4*%
X214630000Y-53340000D03*
%TO.P,U41,12,A3*%
%TO.N,/Graphic RAM\u002C MUX and Shiftregister/VA3*%
X212090000Y-53340000D03*
%TO.P,U41,13,A6*%
%TO.N,/Graphic RAM\u002C MUX and Shiftregister/VA6*%
X209550000Y-53340000D03*
%TO.P,U41,14,Dout*%
%TO.N,/Graphic RAM\u002C MUX and Shiftregister/GD4*%
X207010000Y-53340000D03*
%TO.P,U41,15,~{CAS}*%
%TO.N,/Graphic RAM\u002C MUX and Shiftregister/~{CAS}*%
X204470000Y-53340000D03*
%TO.P,U41,16,GND*%
%TO.N,GND*%
X201930000Y-53340000D03*
%TD*%
D15*
%TO.P,R10,1*%
%TO.N,/Video*%
X129032000Y-122936000D03*
D16*
%TO.P,R10,2*%
%TO.N,+5V*%
X129032000Y-110236000D03*
%TD*%
D12*
%TO.P,U43,1*%
%TO.N,/~{CLK6M}*%
X213995000Y-89535000D03*
D13*
%TO.P,U43,2*%
%TO.N,Net-(U37-Pad11)*%
X216535000Y-89535000D03*
%TO.P,U43,3*%
%TO.N,Net-(U43-Pad3)*%
X219075000Y-89535000D03*
%TO.P,U43,4*%
X221615000Y-89535000D03*
%TO.P,U43,5*%
%TO.N,/Graphic RAM\u002C MUX and Shiftregister/RASCLKIN*%
X224155000Y-89535000D03*
%TO.P,U43,6*%
%TO.N,Net-(U42-Pad12)*%
X226695000Y-89535000D03*
%TO.P,U43,7,GND*%
%TO.N,GND*%
X229235000Y-89535000D03*
%TO.P,U43,8*%
%TO.N,unconnected-(U43-Pad8)*%
X229235000Y-81915000D03*
%TO.P,U43,9*%
%TO.N,GND*%
X226695000Y-81915000D03*
%TO.P,U43,10*%
X224155000Y-81915000D03*
%TO.P,U43,11*%
%TO.N,/Graphic RAM\u002C MUX and Shiftregister/~{WE}*%
X221615000Y-81915000D03*
%TO.P,U43,12*%
%TO.N,Net-(U31-Pad6)*%
X219075000Y-81915000D03*
%TO.P,U43,13*%
%TO.N,/~{RAS}*%
X216535000Y-81915000D03*
%TO.P,U43,14,VCC*%
%TO.N,+5V*%
X213995000Y-81915000D03*
%TD*%
D15*
%TO.P,R4,1*%
%TO.N,Net-(Q2-C)*%
X108458000Y-125730000D03*
D16*
%TO.P,R4,2*%
%TO.N,+5V*%
X108458000Y-113030000D03*
%TD*%
D12*
%TO.P,Y2,1,NC*%
%TO.N,unconnected-(Y2-NC-Pad1)*%
X163000000Y-110250000D03*
D14*
%TO.P,Y2,7,GND*%
%TO.N,GND*%
X178240000Y-110250000D03*
%TO.P,Y2,8,OUT*%
%TO.N,Net-(Y2-OUT)*%
X178240000Y-102630000D03*
%TO.P,Y2,14,Vcc*%
%TO.N,+5V*%
X163000000Y-102630000D03*
%TD*%
%TO.P,C33,1*%
%TO.N,+5V*%
X223012000Y-48895000D03*
%TO.P,C33,2*%
%TO.N,GND*%
X223012000Y-43895000D03*
%TD*%
D12*
%TO.P,U22,1*%
%TO.N,+5V*%
X136750000Y-111750000D03*
D13*
%TO.P,U22,2*%
%TO.N,unconnected-(U22-Pad2)*%
X139290000Y-111750000D03*
%TO.P,U22,3*%
%TO.N,/BL*%
X141830000Y-111750000D03*
%TO.P,U22,4*%
%TO.N,Net-(C14-Pad2)*%
X144370000Y-111750000D03*
%TO.P,U22,5*%
X146910000Y-111750000D03*
%TO.P,U22,6*%
%TO.N,Net-(U18-Pad13)*%
X149450000Y-111750000D03*
%TO.P,U22,7,GND*%
%TO.N,GND*%
X151990000Y-111750000D03*
%TO.P,U22,8*%
%TO.N,/CLK18M*%
X151990000Y-104130000D03*
%TO.P,U22,9*%
%TO.N,Net-(Y2-OUT)*%
X149450000Y-104130000D03*
%TO.P,U22,10*%
%TO.N,/~{E}*%
X146910000Y-104130000D03*
%TO.P,U22,11*%
%TO.N,/E*%
X144370000Y-104130000D03*
%TO.P,U22,12*%
%TO.N,/RASCRST*%
X141830000Y-104130000D03*
%TO.P,U22,13*%
%TO.N,Net-(C9-Pad1)*%
X139290000Y-104130000D03*
%TO.P,U22,14,VCC*%
%TO.N,+5V*%
X136750000Y-104130000D03*
%TD*%
D17*
%TO.P,Q3,1,C*%
%TO.N,Net-(Q2-B)*%
X115316000Y-142494000D03*
D18*
%TO.P,Q3,2,B*%
%TO.N,Net-(Q3-B)*%
X112776000Y-139954000D03*
%TO.P,Q3,3,E*%
%TO.N,GND*%
X115316000Y-137414000D03*
%TD*%
D15*
%TO.P,R5,1*%
%TO.N,Net-(U13B-RCext)*%
X90678000Y-142240000D03*
D16*
%TO.P,R5,2*%
%TO.N,+5V*%
X103378000Y-142240000D03*
%TD*%
D14*
%TO.P,C5,1*%
%TO.N,GND*%
X49182000Y-137414000D03*
%TO.P,C5,2*%
%TO.N,/~{LOAD}*%
X54182000Y-137414000D03*
%TD*%
D12*
%TO.P,U33,1,A8*%
%TO.N,GND*%
X176530000Y-48260000D03*
D13*
%TO.P,U33,2,Din*%
%TO.N,/Graphic RAM\u002C MUX and Shiftregister/GD2*%
X179070000Y-48260000D03*
%TO.P,U33,3,~{WE}*%
%TO.N,/Graphic RAM\u002C MUX and Shiftregister/~{WE}*%
X181610000Y-48260000D03*
%TO.P,U33,4,~{RAS}*%
%TO.N,/~{RAS}*%
X184150000Y-48260000D03*
%TO.P,U33,5,A0*%
%TO.N,/Graphic RAM\u002C MUX and Shiftregister/VA0*%
X186690000Y-48260000D03*
%TO.P,U33,6,A2*%
%TO.N,/Graphic RAM\u002C MUX and Shiftregister/VA2*%
X189230000Y-48260000D03*
%TO.P,U33,7,A1*%
%TO.N,/Graphic RAM\u002C MUX and Shiftregister/VA1*%
X191770000Y-48260000D03*
%TO.P,U33,8,Vcc*%
%TO.N,+5V*%
X194310000Y-48260000D03*
%TO.P,U33,9,A7*%
%TO.N,/Graphic RAM\u002C MUX and Shiftregister/VA7*%
X194310000Y-40640000D03*
%TO.P,U33,10,A5*%
%TO.N,/Graphic RAM\u002C MUX and Shiftregister/VA5*%
X191770000Y-40640000D03*
%TO.P,U33,11,A4*%
%TO.N,/Graphic RAM\u002C MUX and Shiftregister/VA4*%
X189230000Y-40640000D03*
%TO.P,U33,12,A3*%
%TO.N,/Graphic RAM\u002C MUX and Shiftregister/VA3*%
X186690000Y-40640000D03*
%TO.P,U33,13,A6*%
%TO.N,/Graphic RAM\u002C MUX and Shiftregister/VA6*%
X184150000Y-40640000D03*
%TO.P,U33,14,Dout*%
%TO.N,/Graphic RAM\u002C MUX and Shiftregister/GD2*%
X181610000Y-40640000D03*
%TO.P,U33,15,~{CAS}*%
%TO.N,/Graphic RAM\u002C MUX and Shiftregister/~{CAS}*%
X179070000Y-40640000D03*
%TO.P,U33,16,GND*%
%TO.N,GND*%
X176530000Y-40640000D03*
%TD*%
D14*
%TO.P,C29,1*%
%TO.N,+5V*%
X206462000Y-64008000D03*
%TO.P,C29,2*%
%TO.N,GND*%
X201462000Y-64008000D03*
%TD*%
D12*
%TO.P,U32,1,A8*%
%TO.N,GND*%
X176530000Y-35560000D03*
D13*
%TO.P,U32,2,Din*%
%TO.N,/Graphic RAM\u002C MUX and Shiftregister/GD6*%
X179070000Y-35560000D03*
%TO.P,U32,3,~{WE}*%
%TO.N,/Graphic RAM\u002C MUX and Shiftregister/~{WE}*%
X181610000Y-35560000D03*
%TO.P,U32,4,~{RAS}*%
%TO.N,/~{RAS}*%
X184150000Y-35560000D03*
%TO.P,U32,5,A0*%
%TO.N,/Graphic RAM\u002C MUX and Shiftregister/VA0*%
X186690000Y-35560000D03*
%TO.P,U32,6,A2*%
%TO.N,/Graphic RAM\u002C MUX and Shiftregister/VA2*%
X189230000Y-35560000D03*
%TO.P,U32,7,A1*%
%TO.N,/Graphic RAM\u002C MUX and Shiftregister/VA1*%
X191770000Y-35560000D03*
%TO.P,U32,8,Vcc*%
%TO.N,+5V*%
X194310000Y-35560000D03*
%TO.P,U32,9,A7*%
%TO.N,/Graphic RAM\u002C MUX and Shiftregister/VA7*%
X194310000Y-27940000D03*
%TO.P,U32,10,A5*%
%TO.N,/Graphic RAM\u002C MUX and Shiftregister/VA5*%
X191770000Y-27940000D03*
%TO.P,U32,11,A4*%
%TO.N,/Graphic RAM\u002C MUX and Shiftregister/VA4*%
X189230000Y-27940000D03*
%TO.P,U32,12,A3*%
%TO.N,/Graphic RAM\u002C MUX and Shiftregister/VA3*%
X186690000Y-27940000D03*
%TO.P,U32,13,A6*%
%TO.N,/Graphic RAM\u002C MUX and Shiftregister/VA6*%
X184150000Y-27940000D03*
%TO.P,U32,14,Dout*%
%TO.N,/Graphic RAM\u002C MUX and Shiftregister/GD6*%
X181610000Y-27940000D03*
%TO.P,U32,15,~{CAS}*%
%TO.N,/Graphic RAM\u002C MUX and Shiftregister/~{CAS}*%
X179070000Y-27940000D03*
%TO.P,U32,16,GND*%
%TO.N,GND*%
X176530000Y-27940000D03*
%TD*%
D14*
%TO.P,C25,1*%
%TO.N,+5V*%
X184150000Y-71040000D03*
%TO.P,C25,2*%
%TO.N,GND*%
X184150000Y-66040000D03*
%TD*%
D12*
%TO.P,U2,1,OE*%
%TO.N,+5V*%
X26162000Y-74295000D03*
D13*
%TO.P,U2,2,D0*%
%TO.N,/Text RAM\u002C MUX and Shiftregister1/TD0*%
X28702000Y-74295000D03*
%TO.P,U2,3,D1*%
%TO.N,/Text RAM\u002C MUX and Shiftregister1/TD1*%
X31242000Y-74295000D03*
%TO.P,U2,4,D2*%
%TO.N,/Text RAM\u002C MUX and Shiftregister1/TD2*%
X33782000Y-74295000D03*
%TO.P,U2,5,D3*%
%TO.N,/Text RAM\u002C MUX and Shiftregister1/TD3*%
X36322000Y-74295000D03*
%TO.P,U2,6,D4*%
%TO.N,/Text RAM\u002C MUX and Shiftregister1/TD4*%
X38862000Y-74295000D03*
%TO.P,U2,7,D5*%
%TO.N,/Text RAM\u002C MUX and Shiftregister1/TD5*%
X41402000Y-74295000D03*
%TO.P,U2,8,D6*%
%TO.N,/Text RAM\u002C MUX and Shiftregister1/TD6*%
X43942000Y-74295000D03*
%TO.P,U2,9,D7*%
%TO.N,/Text RAM\u002C MUX and Shiftregister1/TD7*%
X46482000Y-74295000D03*
%TO.P,U2,10,GND*%
%TO.N,GND*%
X49022000Y-74295000D03*
%TO.P,U2,11,Load*%
%TO.N,/LTDAT*%
X49022000Y-66675000D03*
%TO.P,U2,12,Q7*%
%TO.N,/LD7*%
X46482000Y-66675000D03*
%TO.P,U2,13,Q6*%
%TO.N,/Text RAM\u002C MUX and Shiftregister1/LD6*%
X43942000Y-66675000D03*
%TO.P,U2,14,Q5*%
%TO.N,/Text RAM\u002C MUX and Shiftregister1/LD5*%
X41402000Y-66675000D03*
%TO.P,U2,15,Q4*%
%TO.N,/Text RAM\u002C MUX and Shiftregister1/LD4*%
X38862000Y-66675000D03*
%TO.P,U2,16,Q3*%
%TO.N,/Text RAM\u002C MUX and Shiftregister1/LD3*%
X36322000Y-66675000D03*
%TO.P,U2,17,Q2*%
%TO.N,/Text RAM\u002C MUX and Shiftregister1/LD2*%
X33782000Y-66675000D03*
%TO.P,U2,18,Q1*%
%TO.N,/Text RAM\u002C MUX and Shiftregister1/LD1*%
X31242000Y-66675000D03*
%TO.P,U2,19,Q0*%
%TO.N,/Text RAM\u002C MUX and Shiftregister1/LD0*%
X28702000Y-66675000D03*
%TO.P,U2,20,VCC*%
%TO.N,+5V*%
X26162000Y-66675000D03*
%TD*%
D12*
%TO.P,U38,1*%
%TO.N,Net-(U37-Pad11)*%
X191135000Y-122555000D03*
D13*
%TO.P,U38,2*%
%TO.N,Net-(U38-Pad2)*%
X193675000Y-122555000D03*
%TO.P,U38,3*%
%TO.N,Net-(C23-Pad1)*%
X196215000Y-122555000D03*
%TO.P,U38,4*%
%TO.N,/RST*%
X198755000Y-122555000D03*
%TO.P,U38,5*%
X201295000Y-122555000D03*
%TO.P,U38,6*%
%TO.N,/~{RST}*%
X203835000Y-122555000D03*
%TO.P,U38,7,GND*%
%TO.N,GND*%
X206375000Y-122555000D03*
%TO.P,U38,8*%
%TO.N,/~{RAS}*%
X206375000Y-114935000D03*
%TO.P,U38,9*%
%TO.N,Net-(C30-Pad1)*%
X203835000Y-114935000D03*
%TO.P,U38,10*%
X201295000Y-114935000D03*
%TO.P,U38,11*%
%TO.N,/Graphic RAM\u002C MUX and Shiftregister/RASCLKIN*%
X198755000Y-114935000D03*
%TO.P,U38,12*%
%TO.N,Net-(U37-Pad12)*%
X196215000Y-114935000D03*
%TO.P,U38,13*%
%TO.N,/CLK6M*%
X193675000Y-114935000D03*
%TO.P,U38,14,VCC*%
%TO.N,+5V*%
X191135000Y-114935000D03*
%TD*%
D15*
%TO.P,R7,1*%
%TO.N,/CSYNC*%
X104394000Y-125730000D03*
D16*
%TO.P,R7,2*%
%TO.N,Net-(Q3-B)*%
X104394000Y-113030000D03*
%TD*%
D12*
%TO.P,U35,1,Ds*%
%TO.N,GND*%
X189230000Y-76200000D03*
D13*
%TO.P,U35,2,A*%
X191770000Y-76200000D03*
%TO.P,U35,3,B*%
X194310000Y-76200000D03*
%TO.P,U35,4,C*%
%TO.N,/Graphic RAM\u002C MUX and Shiftregister/GD2*%
X196850000Y-76200000D03*
%TO.P,U35,5,D*%
%TO.N,/Graphic RAM\u002C MUX and Shiftregister/GD3*%
X199390000Y-76200000D03*
%TO.P,U35,6,CE*%
%TO.N,GND*%
X201930000Y-76200000D03*
%TO.P,U35,7,Clk*%
%TO.N,/GDOTCLK*%
X204470000Y-76200000D03*
%TO.P,U35,8,GND*%
%TO.N,GND*%
X207010000Y-76200000D03*
%TO.P,U35,9,Clr*%
%TO.N,+5V*%
X207010000Y-68580000D03*
%TO.P,U35,10,E*%
%TO.N,/Graphic RAM\u002C MUX and Shiftregister/GD4*%
X204470000Y-68580000D03*
%TO.P,U35,11,F*%
%TO.N,/Graphic RAM\u002C MUX and Shiftregister/GD5*%
X201930000Y-68580000D03*
%TO.P,U35,12,G*%
%TO.N,/Graphic RAM\u002C MUX and Shiftregister/GD6*%
X199390000Y-68580000D03*
%TO.P,U35,13,Qh*%
%TO.N,/GDAT*%
X196850000Y-68580000D03*
%TO.P,U35,14,H*%
%TO.N,/Graphic RAM\u002C MUX and Shiftregister/GD7*%
X194310000Y-68580000D03*
%TO.P,U35,15,PE*%
%TO.N,/~{LOAD}*%
X191770000Y-68580000D03*
%TO.P,U35,16,VCC*%
%TO.N,+5V*%
X189230000Y-68580000D03*
%TD*%
D12*
%TO.P,U8,1,S*%
%TO.N,/~{1000}*%
X61976000Y-76327000D03*
D13*
%TO.P,U8,2,I0a*%
%TO.N,/A0*%
X64516000Y-76327000D03*
%TO.P,U8,3,I1a*%
%TO.N,/V0*%
X67056000Y-76327000D03*
%TO.P,U8,4,Za*%
%TO.N,/Text RAM\u002C MUX and Shiftregister1/TA0*%
X69596000Y-76327000D03*
%TO.P,U8,5,I0b*%
%TO.N,/A11*%
X72136000Y-76327000D03*
%TO.P,U8,6,I1b*%
%TO.N,/V11*%
X74676000Y-76327000D03*
%TO.P,U8,7,Zb*%
%TO.N,/Text RAM\u002C MUX and Shiftregister1/TA11*%
X77216000Y-76327000D03*
%TO.P,U8,8,GND*%
%TO.N,GND*%
X79756000Y-76327000D03*
%TO.P,U8,9,Zc*%
%TO.N,/Text RAM\u002C MUX and Shiftregister1/TA2*%
X79756000Y-68707000D03*
%TO.P,U8,10,I1c*%
%TO.N,/V2*%
X77216000Y-68707000D03*
%TO.P,U8,11,I0c*%
%TO.N,/A2*%
X74676000Y-68707000D03*
%TO.P,U8,12,Zd*%
%TO.N,/Text RAM\u002C MUX and Shiftregister1/TA4*%
X72136000Y-68707000D03*
%TO.P,U8,13,I1d*%
%TO.N,/V4*%
X69596000Y-68707000D03*
%TO.P,U8,14,I0d*%
%TO.N,/A4*%
X67056000Y-68707000D03*
%TO.P,U8,15,E*%
%TO.N,GND*%
X64516000Y-68707000D03*
%TO.P,U8,16,VCC*%
%TO.N,+5V*%
X61976000Y-68707000D03*
%TD*%
D12*
%TO.P,U44,1*%
%TO.N,+5V*%
X213995000Y-101600000D03*
D13*
%TO.P,U44,2*%
X216535000Y-101600000D03*
%TO.P,U44,3*%
%TO.N,unconnected-(U44-Pad3)*%
X219075000Y-101600000D03*
%TO.P,U44,4*%
%TO.N,Net-(U37-Pad6)*%
X221615000Y-101600000D03*
%TO.P,U44,5*%
%TO.N,Net-(U38-Pad2)*%
X224155000Y-101600000D03*
%TO.P,U44,6*%
%TO.N,/Graphic RAM\u002C MUX and Shiftregister/~{CAS}*%
X226695000Y-101600000D03*
%TO.P,U44,7,GND*%
%TO.N,GND*%
X229235000Y-101600000D03*
%TO.P,U44,8*%
%TO.N,Net-(U42-Pad1)*%
X229235000Y-93980000D03*
%TO.P,U44,9*%
%TO.N,Net-(U44-Pad11)*%
X226695000Y-93980000D03*
%TO.P,U44,10*%
%TO.N,/Graphic RAM\u002C MUX and Shiftregister/RASCLKIN*%
X224155000Y-93980000D03*
%TO.P,U44,11*%
%TO.N,Net-(U44-Pad11)*%
X221615000Y-93980000D03*
%TO.P,U44,12*%
%TO.N,/CPUCLK*%
X219075000Y-93980000D03*
%TO.P,U44,13*%
%TO.N,/CLK6M*%
X216535000Y-93980000D03*
%TO.P,U44,14,VCC*%
%TO.N,+5V*%
X213995000Y-93980000D03*
%TD*%
D12*
%TO.P,U9,1,VPP*%
%TO.N,+5V*%
X26162000Y-102362000D03*
D13*
%TO.P,U9,2,A12*%
%TO.N,/CHARSET*%
X28702000Y-102362000D03*
%TO.P,U9,3,A7*%
%TO.N,/Text RAM\u002C MUX and Shiftregister1/LD3*%
X31242000Y-102362000D03*
%TO.P,U9,4,A6*%
%TO.N,/Text RAM\u002C MUX and Shiftregister1/LD2*%
X33782000Y-102362000D03*
%TO.P,U9,5,A5*%
%TO.N,/Text RAM\u002C MUX and Shiftregister1/LD1*%
X36322000Y-102362000D03*
%TO.P,U9,6,A4*%
%TO.N,/Text RAM\u002C MUX and Shiftregister1/LD0*%
X38862000Y-102362000D03*
%TO.P,U9,7,A3*%
%TO.N,/R3*%
X41402000Y-102362000D03*
%TO.P,U9,8,A2*%
%TO.N,/R2*%
X43942000Y-102362000D03*
%TO.P,U9,9,A1*%
%TO.N,/R1*%
X46482000Y-102362000D03*
%TO.P,U9,10,A0*%
%TO.N,/R0*%
X49022000Y-102362000D03*
%TO.P,U9,11,D0*%
%TO.N,/CI*%
X51562000Y-102362000D03*
%TO.P,U9,12,D1*%
%TO.N,/SI*%
X54102000Y-102362000D03*
%TO.P,U9,13,D2*%
%TO.N,/Text RAM\u002C MUX and Shiftregister1/XD2*%
X56642000Y-102362000D03*
%TO.P,U9,14,GND*%
%TO.N,GND*%
X59182000Y-102362000D03*
%TO.P,U9,15,D3*%
%TO.N,/Text RAM\u002C MUX and Shiftregister1/XD3*%
X59182000Y-87122000D03*
%TO.P,U9,16,D4*%
%TO.N,/Text RAM\u002C MUX and Shiftregister1/XD4*%
X56642000Y-87122000D03*
%TO.P,U9,17,D5*%
%TO.N,/Text RAM\u002C MUX and Shiftregister1/XD5*%
X54102000Y-87122000D03*
%TO.P,U9,18,D6*%
%TO.N,/Text RAM\u002C MUX and Shiftregister1/XD6*%
X51562000Y-87122000D03*
%TO.P,U9,19,D7*%
%TO.N,/Text RAM\u002C MUX and Shiftregister1/XD7*%
X49022000Y-87122000D03*
%TO.P,U9,20,~{CE}*%
%TO.N,GND*%
X46482000Y-87122000D03*
%TO.P,U9,21,A10*%
%TO.N,/Text RAM\u002C MUX and Shiftregister1/LD6*%
X43942000Y-87122000D03*
%TO.P,U9,22,~{OE}*%
%TO.N,GND*%
X41402000Y-87122000D03*
%TO.P,U9,23,A11*%
%TO.N,/LD7*%
X38862000Y-87122000D03*
%TO.P,U9,24,A9*%
%TO.N,/Text RAM\u002C MUX and Shiftregister1/LD5*%
X36322000Y-87122000D03*
%TO.P,U9,25,A8*%
%TO.N,/Text RAM\u002C MUX and Shiftregister1/LD4*%
X33782000Y-87122000D03*
%TO.P,U9,26,NC*%
%TO.N,unconnected-(U9-NC-Pad26)*%
X31242000Y-87122000D03*
%TO.P,U9,27,~{PGM}*%
%TO.N,+5V*%
X28702000Y-87122000D03*
%TO.P,U9,28,VCC*%
X26162000Y-87122000D03*
%TD*%
D10*
%TO.P,J2,1,Pin_1*%
%TO.N,Net-(J2-Pin_1)*%
X109474000Y-109474000D03*
D11*
%TO.P,J2,2,Pin_2*%
%TO.N,GND*%
X112014000Y-109474000D03*
%TO.P,J2,3,Pin_3*%
%TO.N,Net-(J2-Pin_3)*%
X114554000Y-109474000D03*
%TD*%
D10*
%TO.P,J6,1,Pin_1*%
%TO.N,+5V*%
X117348000Y-28702000D03*
%TD*%
D12*
%TO.P,U6,1,S*%
%TO.N,/~{1000}*%
X63441515Y-50975801D03*
D13*
%TO.P,U6,2,I0a*%
%TO.N,/A7*%
X65981515Y-50975801D03*
%TO.P,U6,3,I1a*%
%TO.N,/V7*%
X68521515Y-50975801D03*
%TO.P,U6,4,Za*%
%TO.N,/Text RAM\u002C MUX and Shiftregister1/TA7*%
X71061515Y-50975801D03*
%TO.P,U6,5,I0b*%
%TO.N,/A8*%
X73601515Y-50975801D03*
%TO.P,U6,6,I1b*%
%TO.N,/V8*%
X76141515Y-50975801D03*
%TO.P,U6,7,Zb*%
%TO.N,/Text RAM\u002C MUX and Shiftregister1/TA8*%
X78681515Y-50975801D03*
%TO.P,U6,8,GND*%
%TO.N,GND*%
X81221515Y-50975801D03*
%TO.P,U6,9,Zc*%
%TO.N,/Text RAM\u002C MUX and Shiftregister1/TA9*%
X81221515Y-43355801D03*
%TO.P,U6,10,I1c*%
%TO.N,/V9*%
X78681515Y-43355801D03*
%TO.P,U6,11,I0c*%
%TO.N,/A9*%
X76141515Y-43355801D03*
%TO.P,U6,12,Zd*%
%TO.N,/Text RAM\u002C MUX and Shiftregister1/TA10*%
X73601515Y-43355801D03*
%TO.P,U6,13,I1d*%
%TO.N,/V10*%
X71061515Y-43355801D03*
%TO.P,U6,14,I0d*%
%TO.N,/A10*%
X68521515Y-43355801D03*
%TO.P,U6,15,E*%
%TO.N,GND*%
X65981515Y-43355801D03*
%TO.P,U6,16,VCC*%
%TO.N,+5V*%
X63441515Y-43355801D03*
%TD*%
D12*
%TO.P,U17,1,VPP*%
%TO.N,+5V*%
X93472000Y-104902000D03*
D13*
%TO.P,U17,2,A12*%
%TO.N,/A12*%
X96012000Y-104902000D03*
%TO.P,U17,3,A7*%
%TO.N,/A7*%
X98552000Y-104902000D03*
%TO.P,U17,4,A6*%
%TO.N,/A6*%
X101092000Y-104902000D03*
%TO.P,U17,5,A5*%
%TO.N,/A5*%
X103632000Y-104902000D03*
%TO.P,U17,6,A4*%
%TO.N,/A4*%
X106172000Y-104902000D03*
%TO.P,U17,7,A3*%
%TO.N,/A3*%
X108712000Y-104902000D03*
%TO.P,U17,8,A2*%
%TO.N,/A2*%
X111252000Y-104902000D03*
%TO.P,U17,9,A1*%
%TO.N,/A1*%
X113792000Y-104902000D03*
%TO.P,U17,10,A0*%
%TO.N,/A0*%
X116332000Y-104902000D03*
%TO.P,U17,11,D0*%
%TO.N,/D0*%
X118872000Y-104902000D03*
%TO.P,U17,12,D1*%
%TO.N,/D1*%
X121412000Y-104902000D03*
%TO.P,U17,13,D2*%
%TO.N,/D2*%
X123952000Y-104902000D03*
%TO.P,U17,14,GND*%
%TO.N,GND*%
X126492000Y-104902000D03*
%TO.P,U17,15,D3*%
%TO.N,/D3*%
X126492000Y-89662000D03*
%TO.P,U17,16,D4*%
%TO.N,/D4*%
X123952000Y-89662000D03*
%TO.P,U17,17,D5*%
%TO.N,/D5*%
X121412000Y-89662000D03*
%TO.P,U17,18,D6*%
%TO.N,/D6*%
X118872000Y-89662000D03*
%TO.P,U17,19,D7*%
%TO.N,/D7*%
X116332000Y-89662000D03*
%TO.P,U17,20,~{CE}*%
%TO.N,GND*%
X113792000Y-89662000D03*
%TO.P,U17,21,A10*%
%TO.N,/A10*%
X111252000Y-89662000D03*
%TO.P,U17,22,~{OE}*%
%TO.N,/~{CEROM}*%
X108712000Y-89662000D03*
%TO.P,U17,23,A11*%
%TO.N,/A11*%
X106172000Y-89662000D03*
%TO.P,U17,24,A9*%
%TO.N,/A9*%
X103632000Y-89662000D03*
%TO.P,U17,25,A8*%
%TO.N,/A8*%
X101092000Y-89662000D03*
%TO.P,U17,26,NC*%
%TO.N,unconnected-(U17-NC-Pad26)*%
X98552000Y-89662000D03*
%TO.P,U17,27,~{PGM}*%
%TO.N,+5V*%
X96012000Y-89662000D03*
%TO.P,U17,28,VCC*%
X93472000Y-89662000D03*
%TD*%
D14*
%TO.P,C1,1*%
%TO.N,+5V*%
X46228000Y-25400000D03*
%TO.P,C1,2*%
%TO.N,GND*%
X51228000Y-25400000D03*
%TD*%
%TO.P,C22,1*%
%TO.N,Net-(C22-Pad1)*%
X182750000Y-128500000D03*
%TO.P,C22,2*%
%TO.N,GND*%
X177750000Y-128500000D03*
%TD*%
D19*
%TO.P,J5,*%
%TO.N,*%
X187750000Y-137500000D03*
X202750000Y-137500000D03*
D15*
%TO.P,J5,1*%
%TO.N,GND*%
X202750000Y-132500000D03*
%TO.P,J5,2*%
%TO.N,/Din*%
X195250000Y-132500000D03*
%TO.P,J5,3*%
%TO.N,Net-(D2-A)*%
X187750000Y-132500000D03*
%TO.P,J5,4*%
%TO.N,Net-(J4-Pad5)*%
X200250000Y-130000000D03*
%TO.P,J5,5*%
%TO.N,Net-(J4-Pad4)*%
X190250000Y-130000000D03*
%TO.P,J5,6*%
%TO.N,N/C*%
X192750000Y-142500000D03*
X197750000Y-142500000D03*
%TD*%
%TO.P,R9,1*%
%TO.N,Net-(R9-Pad1)*%
X124968000Y-122936000D03*
D16*
%TO.P,R9,2*%
%TO.N,/Video*%
X124968000Y-110236000D03*
%TD*%
D12*
%TO.P,U10,1,Ds*%
%TO.N,GND*%
X64516000Y-104140000D03*
D13*
%TO.P,U10,2,A*%
%TO.N,Net-(JP1-C)*%
X67056000Y-104140000D03*
%TO.P,U10,3,B*%
%TO.N,Net-(JP2-C)*%
X69596000Y-104140000D03*
%TO.P,U10,4,C*%
%TO.N,/Text RAM\u002C MUX and Shiftregister1/XD2*%
X72136000Y-104140000D03*
%TO.P,U10,5,D*%
%TO.N,/Text RAM\u002C MUX and Shiftregister1/XD3*%
X74676000Y-104140000D03*
%TO.P,U10,6,CE*%
%TO.N,GND*%
X77216000Y-104140000D03*
%TO.P,U10,7,Clk*%
%TO.N,/TDOTCLK*%
X79756000Y-104140000D03*
%TO.P,U10,8,GND*%
%TO.N,GND*%
X82296000Y-104140000D03*
%TO.P,U10,9,Clr*%
%TO.N,+5V*%
X82296000Y-96520000D03*
%TO.P,U10,10,E*%
%TO.N,/Text RAM\u002C MUX and Shiftregister1/XD4*%
X79756000Y-96520000D03*
%TO.P,U10,11,F*%
%TO.N,/Text RAM\u002C MUX and Shiftregister1/XD5*%
X77216000Y-96520000D03*
%TO.P,U10,12,G*%
%TO.N,/Text RAM\u002C MUX and Shiftregister1/XD6*%
X74676000Y-96520000D03*
%TO.P,U10,13,Qh*%
%TO.N,/TDAT*%
X72136000Y-96520000D03*
%TO.P,U10,14,H*%
%TO.N,/Text RAM\u002C MUX and Shiftregister1/XD7*%
X69596000Y-96520000D03*
%TO.P,U10,15,PE*%
%TO.N,/~{LOAD}*%
X67056000Y-96520000D03*
%TO.P,U10,16,VCC*%
%TO.N,+5V*%
X64516000Y-96520000D03*
%TD*%
D12*
%TO.P,U39,1,A8*%
%TO.N,GND*%
X201295000Y-35560000D03*
D13*
%TO.P,U39,2,Din*%
%TO.N,/Graphic RAM\u002C MUX and Shiftregister/GD3*%
X203835000Y-35560000D03*
%TO.P,U39,3,~{WE}*%
%TO.N,/Graphic RAM\u002C MUX and Shiftregister/~{WE}*%
X206375000Y-35560000D03*
%TO.P,U39,4,~{RAS}*%
%TO.N,/~{RAS}*%
X208915000Y-35560000D03*
%TO.P,U39,5,A0*%
%TO.N,/Graphic RAM\u002C MUX and Shiftregister/VA0*%
X211455000Y-35560000D03*
%TO.P,U39,6,A2*%
%TO.N,/Graphic RAM\u002C MUX and Shiftregister/VA2*%
X213995000Y-35560000D03*
%TO.P,U39,7,A1*%
%TO.N,/Graphic RAM\u002C MUX and Shiftregister/VA1*%
X216535000Y-35560000D03*
%TO.P,U39,8,Vcc*%
%TO.N,+5V*%
X219075000Y-35560000D03*
%TO.P,U39,9,A7*%
%TO.N,/Graphic RAM\u002C MUX and Shiftregister/VA7*%
X219075000Y-27940000D03*
%TO.P,U39,10,A5*%
%TO.N,/Graphic RAM\u002C MUX and Shiftregister/VA5*%
X216535000Y-27940000D03*
%TO.P,U39,11,A4*%
%TO.N,/Graphic RAM\u002C MUX and Shiftregister/VA4*%
X213995000Y-27940000D03*
%TO.P,U39,12,A3*%
%TO.N,/Graphic RAM\u002C MUX and Shiftregister/VA3*%
X211455000Y-27940000D03*
%TO.P,U39,13,A6*%
%TO.N,/Graphic RAM\u002C MUX and Shiftregister/VA6*%
X208915000Y-27940000D03*
%TO.P,U39,14,Dout*%
%TO.N,/Graphic RAM\u002C MUX and Shiftregister/GD3*%
X206375000Y-27940000D03*
%TO.P,U39,15,~{CAS}*%
%TO.N,/Graphic RAM\u002C MUX and Shiftregister/~{CAS}*%
X203835000Y-27940000D03*
%TO.P,U39,16,GND*%
%TO.N,GND*%
X201295000Y-27940000D03*
%TD*%
D12*
%TO.P,U45,1,I1/CLK*%
%TO.N,/HIRES*%
X54356000Y-117348000D03*
D13*
%TO.P,U45,2,I2*%
%TO.N,/4M6*%
X56896000Y-117348000D03*
%TO.P,U45,3,I3*%
%TO.N,/E*%
X59436000Y-117348000D03*
%TO.P,U45,4,I4*%
%TO.N,/E_half*%
X61976000Y-117348000D03*
%TO.P,U45,5,I5*%
%TO.N,Net-(U24A-Q)*%
X64516000Y-117348000D03*
%TO.P,U45,6,I6*%
%TO.N,unconnected-(U45-I6-Pad6)*%
X67056000Y-117348000D03*
%TO.P,U45,7,I7*%
%TO.N,unconnected-(U45-I7-Pad7)*%
X69596000Y-117348000D03*
%TO.P,U45,8,I8*%
%TO.N,unconnected-(U45-I8-Pad8)*%
X72136000Y-117348000D03*
%TO.P,U45,9,I9*%
%TO.N,/Text RAM\u002C MUX and Shiftregister1/~{TRAMWE}*%
X74676000Y-117348000D03*
%TO.P,U45,10,GND*%
%TO.N,GND*%
X77216000Y-117348000D03*
%TO.P,U45,11,I10/~{OE}*%
%TO.N,/R3*%
X77216000Y-109728000D03*
%TO.P,U45,12,IO8*%
%TO.N,/TDOTCLK*%
X74676000Y-109728000D03*
%TO.P,U45,13,IO7*%
%TO.N,/~{R3}*%
X72136000Y-109728000D03*
%TO.P,U45,14,IO6*%
%TO.N,/Text RAM\u002C MUX and Shiftregister1/TRAMWE*%
X69596000Y-109728000D03*
%TO.P,U45,15,IO5*%
%TO.N,unconnected-(U45-IO5-Pad15)*%
X67056000Y-109728000D03*
%TO.P,U45,16,IO4*%
%TO.N,unconnected-(U45-IO4-Pad16)*%
X64516000Y-109728000D03*
%TO.P,U45,17,I03*%
%TO.N,unconnected-(U45-I03-Pad17)*%
X61976000Y-109728000D03*
%TO.P,U45,18,IO2*%
%TO.N,unconnected-(U45-IO2-Pad18)*%
X59436000Y-109728000D03*
%TO.P,U45,19,IO1*%
%TO.N,/LTDAT*%
X56896000Y-109728000D03*
%TO.P,U45,20,VCC*%
%TO.N,+5V*%
X54356000Y-109728000D03*
%TD*%
D20*
%TO.P,J8,1*%
%TO.N,+5V*%
X42418000Y-131064000D03*
D21*
%TO.P,J8,2*%
%TO.N,GND*%
X42418000Y-136864000D03*
D22*
%TO.P,J8,3*%
%TO.N,unconnected-(J8-Pad3)*%
X47218000Y-134064000D03*
%TD*%
D17*
%TO.P,Q2,1,C*%
%TO.N,Net-(Q2-C)*%
X109728000Y-142367000D03*
D18*
%TO.P,Q2,2,B*%
%TO.N,Net-(Q2-B)*%
X107188000Y-139827000D03*
%TO.P,Q2,3,E*%
%TO.N,Net-(J2-Pin_1)*%
X109728000Y-137287000D03*
%TD*%
D12*
%TO.P,U24,1,~{R}*%
%TO.N,Net-(JP3-A)*%
X134004998Y-136704998D03*
D13*
%TO.P,U24,2,D*%
%TO.N,/GDOTCLK*%
X136544998Y-136704998D03*
%TO.P,U24,3,C*%
%TO.N,/CLK18M*%
X139084998Y-136704998D03*
%TO.P,U24,4,~{S}*%
%TO.N,+5V*%
X141624998Y-136704998D03*
%TO.P,U24,5,Q*%
%TO.N,Net-(U24A-Q)*%
X144164998Y-136704998D03*
%TO.P,U24,6,~{Q}*%
%TO.N,/GDOTCLK*%
X146704998Y-136704998D03*
%TO.P,U24,7,GND*%
%TO.N,GND*%
X149244998Y-136704998D03*
%TO.P,U24,8,~{Q}*%
%TO.N,/4M6*%
X149244998Y-129084998D03*
%TO.P,U24,9,Q*%
%TO.N,unconnected-(U24B-Q-Pad9)*%
X146704998Y-129084998D03*
%TO.P,U24,10,~{S}*%
%TO.N,+5V*%
X144164998Y-129084998D03*
%TO.P,U24,11,C*%
%TO.N,/GDOTCLK*%
X141624998Y-129084998D03*
%TO.P,U24,12,D*%
%TO.N,/4M6*%
X139084998Y-129084998D03*
%TO.P,U24,13,~{R}*%
%TO.N,/RASCRST*%
X136544998Y-129084998D03*
%TO.P,U24,14,VCC*%
%TO.N,+5V*%
X134004998Y-129084998D03*
%TD*%
D12*
%TO.P,U42,1*%
%TO.N,Net-(U42-Pad1)*%
X213995000Y-76200000D03*
D13*
%TO.P,U42,2*%
%TO.N,/E*%
X216535000Y-76200000D03*
%TO.P,U42,3*%
%TO.N,/Graphic RAM\u002C MUX and Shiftregister/~{6845H_En}*%
X219075000Y-76200000D03*
%TO.P,U42,4*%
%TO.N,Net-(U42-Pad1)*%
X221615000Y-76200000D03*
%TO.P,U42,5*%
%TO.N,/Graphic RAM\u002C MUX and Shiftregister/~{GRAM_En}*%
X224155000Y-76200000D03*
%TO.P,U42,6*%
%TO.N,/Graphic RAM\u002C MUX and Shiftregister/~{CPUL_En}*%
X226695000Y-76200000D03*
%TO.P,U42,7,GND*%
%TO.N,GND*%
X229235000Y-76200000D03*
%TO.P,U42,8*%
%TO.N,/Graphic RAM\u002C MUX and Shiftregister/~{CPUH_En}*%
X229235000Y-68580000D03*
%TO.P,U42,9*%
%TO.N,Net-(U42-Pad12)*%
X226695000Y-68580000D03*
%TO.P,U42,10*%
%TO.N,/Graphic RAM\u002C MUX and Shiftregister/~{GRAM_En}*%
X224155000Y-68580000D03*
%TO.P,U42,11*%
%TO.N,/Graphic RAM\u002C MUX and Shiftregister/~{6845L_En}*%
X221615000Y-68580000D03*
%TO.P,U42,12*%
%TO.N,Net-(U42-Pad12)*%
X219075000Y-68580000D03*
%TO.P,U42,13*%
%TO.N,/E*%
X216535000Y-68580000D03*
%TO.P,U42,14,VCC*%
%TO.N,+5V*%
X213995000Y-68580000D03*
%TD*%
D12*
%TO.P,U25,1,OEa*%
%TO.N,/Graphic RAM\u002C MUX and Shiftregister/~{CPUL_En}*%
X148556630Y-35560000D03*
D13*
%TO.P,U25,2,I0a*%
%TO.N,/A0*%
X151096630Y-35560000D03*
%TO.P,U25,3,O3b*%
%TO.N,/Graphic RAM\u002C MUX and Shiftregister/VA7*%
X153636630Y-35560000D03*
%TO.P,U25,4,I1a*%
%TO.N,/A5*%
X156176630Y-35560000D03*
%TO.P,U25,5,O2b*%
%TO.N,/Graphic RAM\u002C MUX and Shiftregister/VA1*%
X158716630Y-35560000D03*
%TO.P,U25,6,I2a*%
%TO.N,/A3*%
X161256630Y-35560000D03*
%TO.P,U25,7,O1b*%
%TO.N,/Graphic RAM\u002C MUX and Shiftregister/VA6*%
X163796630Y-35560000D03*
%TO.P,U25,8,I3a*%
%TO.N,/A2*%
X166336630Y-35560000D03*
%TO.P,U25,9,O0b*%
%TO.N,/Graphic RAM\u002C MUX and Shiftregister/VA4*%
X168876630Y-35560000D03*
%TO.P,U25,10,GND*%
%TO.N,GND*%
X171416630Y-35560000D03*
%TO.P,U25,11,I0b*%
%TO.N,/A4*%
X171416630Y-27940000D03*
%TO.P,U25,12,O3a*%
%TO.N,/Graphic RAM\u002C MUX and Shiftregister/VA2*%
X168876630Y-27940000D03*
%TO.P,U25,13,I1b*%
%TO.N,/A6*%
X166336630Y-27940000D03*
%TO.P,U25,14,O2a*%
%TO.N,/Graphic RAM\u002C MUX and Shiftregister/VA3*%
X163796630Y-27940000D03*
%TO.P,U25,15,I2b*%
%TO.N,/A1*%
X161256630Y-27940000D03*
%TO.P,U25,16,O1a*%
%TO.N,/Graphic RAM\u002C MUX and Shiftregister/VA5*%
X158716630Y-27940000D03*
%TO.P,U25,17,I3b*%
%TO.N,GND*%
X156176630Y-27940000D03*
%TO.P,U25,18,O0a*%
%TO.N,/Graphic RAM\u002C MUX and Shiftregister/VA0*%
X153636630Y-27940000D03*
%TO.P,U25,19,OEb*%
%TO.N,/Graphic RAM\u002C MUX and Shiftregister/~{CPUL_En}*%
X151096630Y-27940000D03*
%TO.P,U25,20,VCC*%
%TO.N,+5V*%
X148556630Y-27940000D03*
%TD*%
D14*
%TO.P,C8,1*%
%TO.N,+5V*%
X133818000Y-105410000D03*
%TO.P,C8,2*%
%TO.N,GND*%
X128818000Y-105410000D03*
%TD*%
D12*
%TO.P,U34,1,A8*%
%TO.N,GND*%
X176530000Y-60960000D03*
D13*
%TO.P,U34,2,Din*%
%TO.N,/Graphic RAM\u002C MUX and Shiftregister/GD7*%
X179070000Y-60960000D03*
%TO.P,U34,3,~{WE}*%
%TO.N,/Graphic RAM\u002C MUX and Shiftregister/~{WE}*%
X181610000Y-60960000D03*
%TO.P,U34,4,~{RAS}*%
%TO.N,/~{RAS}*%
X184150000Y-60960000D03*
%TO.P,U34,5,A0*%
%TO.N,/Graphic RAM\u002C MUX and Shiftregister/VA0*%
X186690000Y-60960000D03*
%TO.P,U34,6,A2*%
%TO.N,/Graphic RAM\u002C MUX and Shiftregister/VA2*%
X189230000Y-60960000D03*
%TO.P,U34,7,A1*%
%TO.N,/Graphic RAM\u002C MUX and Shiftregister/VA1*%
X191770000Y-60960000D03*
%TO.P,U34,8,Vcc*%
%TO.N,+5V*%
X194310000Y-60960000D03*
%TO.P,U34,9,A7*%
%TO.N,/Graphic RAM\u002C MUX and Shiftregister/VA7*%
X194310000Y-53340000D03*
%TO.P,U34,10,A5*%
%TO.N,/Graphic RAM\u002C MUX and Shiftregister/VA5*%
X191770000Y-53340000D03*
%TO.P,U34,11,A4*%
%TO.N,/Graphic RAM\u002C MUX and Shiftregister/VA4*%
X189230000Y-53340000D03*
%TO.P,U34,12,A3*%
%TO.N,/Graphic RAM\u002C MUX and Shiftregister/VA3*%
X186690000Y-53340000D03*
%TO.P,U34,13,A6*%
%TO.N,/Graphic RAM\u002C MUX and Shiftregister/VA6*%
X184150000Y-53340000D03*
%TO.P,U34,14,Dout*%
%TO.N,/Graphic RAM\u002C MUX and Shiftregister/GD7*%
X181610000Y-53340000D03*
%TO.P,U34,15,~{CAS}*%
%TO.N,/Graphic RAM\u002C MUX and Shiftregister/~{CAS}*%
X179070000Y-53340000D03*
%TO.P,U34,16,GND*%
%TO.N,GND*%
X176530000Y-53340000D03*
%TD*%
D23*
%TO.P,D2,1,K*%
%TO.N,/DOUT*%
X224282000Y-129540000D03*
D24*
%TO.P,D2,2,A*%
%TO.N,Net-(D2-A)*%
X216662000Y-129540000D03*
%TD*%
D12*
%TO.P,U19,1*%
%TO.N,Net-(JP5-C)*%
X84582000Y-130175000D03*
D13*
%TO.P,U19,2*%
%TO.N,/HS*%
X87122000Y-130175000D03*
%TO.P,U19,3*%
%TO.N,/CSYNC*%
X89662000Y-130175000D03*
%TO.P,U19,4*%
%TO.N,unconnected-(U19-Pad4)*%
X92202000Y-130175000D03*
%TO.P,U19,5*%
%TO.N,unconnected-(U19-Pad5)*%
X94742000Y-130175000D03*
%TO.P,U19,6*%
%TO.N,unconnected-(U19-Pad6)*%
X97282000Y-130175000D03*
%TO.P,U19,7,GND*%
%TO.N,GND*%
X99822000Y-130175000D03*
%TO.P,U19,8*%
%TO.N,Net-(R9-Pad1)*%
X99822000Y-122555000D03*
%TO.P,U19,9*%
%TO.N,Net-(U18-Pad8)*%
X97282000Y-122555000D03*
%TO.P,U19,10*%
%TO.N,Net-(U4B-Q)*%
X94742000Y-122555000D03*
%TO.P,U19,11*%
%TO.N,Net-(U18-Pad5)*%
X92202000Y-122555000D03*
%TO.P,U19,12*%
%TO.N,/TDAT*%
X89662000Y-122555000D03*
%TO.P,U19,13*%
%TO.N,/CRV*%
X87122000Y-122555000D03*
%TO.P,U19,14,VCC*%
%TO.N,+5V*%
X84582000Y-122555000D03*
%TD*%
D14*
%TO.P,C27,1*%
%TO.N,+5V*%
X197612000Y-29718000D03*
%TO.P,C27,2*%
%TO.N,GND*%
X197612000Y-24718000D03*
%TD*%
D15*
%TO.P,R12,1*%
%TO.N,Net-(Q2-B)*%
X120396000Y-142748000D03*
D16*
%TO.P,R12,2*%
%TO.N,/Video*%
X120396000Y-130048000D03*
%TD*%
D14*
%TO.P,C11,1*%
%TO.N,+5V*%
X145000000Y-30500000D03*
%TO.P,C11,2*%
%TO.N,GND*%
X145000000Y-35500000D03*
%TD*%
D12*
%TO.P,U1,1,NC*%
%TO.N,unconnected-(U1-NC-Pad1)*%
X26162000Y-58420000D03*
D13*
%TO.P,U1,2,A12*%
%TO.N,GND*%
X28702000Y-58420000D03*
%TO.P,U1,3,A7*%
%TO.N,/Text RAM\u002C MUX and Shiftregister1/TA7*%
X31242000Y-58420000D03*
%TO.P,U1,4,A6*%
%TO.N,/Text RAM\u002C MUX and Shiftregister1/TA6*%
X33782000Y-58420000D03*
%TO.P,U1,5,A5*%
%TO.N,/Text RAM\u002C MUX and Shiftregister1/TA5*%
X36322000Y-58420000D03*
%TO.P,U1,6,A4*%
%TO.N,/Text RAM\u002C MUX and Shiftregister1/TA4*%
X38862000Y-58420000D03*
%TO.P,U1,7,A3*%
%TO.N,/Text RAM\u002C MUX and Shiftregister1/TA3*%
X41402000Y-58420000D03*
%TO.P,U1,8,A2*%
%TO.N,/Text RAM\u002C MUX and Shiftregister1/TA2*%
X43942000Y-58420000D03*
%TO.P,U1,9,A1*%
%TO.N,/Text RAM\u002C MUX and Shiftregister1/TA1*%
X46482000Y-58420000D03*
%TO.P,U1,10,A0*%
%TO.N,/Text RAM\u002C MUX and Shiftregister1/TA0*%
X49022000Y-58420000D03*
%TO.P,U1,11,I/O0*%
%TO.N,/Text RAM\u002C MUX and Shiftregister1/TD0*%
X51562000Y-58420000D03*
%TO.P,U1,12,I/O1*%
%TO.N,/Text RAM\u002C MUX and Shiftregister1/TD1*%
X54102000Y-58420000D03*
%TO.P,U1,13,I/O2*%
%TO.N,/Text RAM\u002C MUX and Shiftregister1/TD2*%
X56642000Y-58420000D03*
%TO.P,U1,14,GND*%
%TO.N,GND*%
X59182000Y-58420000D03*
%TO.P,U1,15,I/O3*%
%TO.N,/Text RAM\u002C MUX and Shiftregister1/TD3*%
X59182000Y-43180000D03*
%TO.P,U1,16,I/O4*%
%TO.N,/Text RAM\u002C MUX and Shiftregister1/TD4*%
X56642000Y-43180000D03*
%TO.P,U1,17,I/O5*%
%TO.N,/Text RAM\u002C MUX and Shiftregister1/TD5*%
X54102000Y-43180000D03*
%TO.P,U1,18,I/O6*%
%TO.N,/Text RAM\u002C MUX and Shiftregister1/TD6*%
X51562000Y-43180000D03*
%TO.P,U1,19,I/O7*%
%TO.N,/Text RAM\u002C MUX and Shiftregister1/TD7*%
X49022000Y-43180000D03*
%TO.P,U1,20,~{CS1}*%
%TO.N,GND*%
X46482000Y-43180000D03*
%TO.P,U1,21,A10*%
%TO.N,/Text RAM\u002C MUX and Shiftregister1/TA10*%
X43942000Y-43180000D03*
%TO.P,U1,22,~{OE}*%
%TO.N,/Text RAM\u002C MUX and Shiftregister1/TRAMWE*%
X41402000Y-43180000D03*
%TO.P,U1,23,A11*%
%TO.N,/Text RAM\u002C MUX and Shiftregister1/TA11*%
X38862000Y-43180000D03*
%TO.P,U1,24,A9*%
%TO.N,/Text RAM\u002C MUX and Shiftregister1/TA9*%
X36322000Y-43180000D03*
%TO.P,U1,25,A8*%
%TO.N,/Text RAM\u002C MUX and Shiftregister1/TA8*%
X33782000Y-43180000D03*
%TO.P,U1,26,CS2*%
%TO.N,+5V*%
X31242000Y-43180000D03*
%TO.P,U1,27,~{WE}*%
%TO.N,/Text RAM\u002C MUX and Shiftregister1/~{TRAMWE}*%
X28702000Y-43180000D03*
%TO.P,U1,28,VCC*%
%TO.N,+5V*%
X26162000Y-43180000D03*
%TD*%
D14*
%TO.P,C4,1*%
%TO.N,GND*%
X58674000Y-132842000D03*
%TO.P,C4,2*%
%TO.N,+5V*%
X58674000Y-127842000D03*
%TD*%
%TO.P,C3,1*%
%TO.N,+5V*%
X61976000Y-78486000D03*
%TO.P,C3,2*%
%TO.N,GND*%
X61976000Y-83486000D03*
%TD*%
D12*
%TO.P,U12,1*%
%TO.N,/~{LOAD}*%
X61976000Y-130175000D03*
D13*
%TO.P,U12,2*%
%TO.N,/TEXT*%
X64516000Y-130175000D03*
%TO.P,U12,3*%
%TO.N,Net-(U4B-C)*%
X67056000Y-130175000D03*
%TO.P,U12,4*%
%TO.N,/VS*%
X69596000Y-130175000D03*
%TO.P,U12,5*%
%TO.N,GND*%
X72136000Y-130175000D03*
%TO.P,U12,6*%
%TO.N,Net-(J9-Pin_4)*%
X74676000Y-130175000D03*
%TO.P,U12,7,GND*%
%TO.N,GND*%
X77216000Y-130175000D03*
%TO.P,U12,8*%
%TO.N,Net-(U12-Pad8)*%
X77216000Y-122555000D03*
%TO.P,U12,9*%
%TO.N,Net-(U12-Pad9)*%
X74676000Y-122555000D03*
%TO.P,U12,10*%
%TO.N,Net-(U12-Pad10)*%
X72136000Y-122555000D03*
%TO.P,U12,11*%
%TO.N,Net-(U4A-C)*%
X69596000Y-122555000D03*
%TO.P,U12,12*%
%TO.N,/GTEXT*%
X67056000Y-122555000D03*
%TO.P,U12,13*%
%TO.N,/~{LOAD}*%
X64516000Y-122555000D03*
%TO.P,U12,14,VCC*%
%TO.N,+5V*%
X61976000Y-122555000D03*
%TD*%
D12*
%TO.P,U28,1,OEa*%
%TO.N,/Graphic RAM\u002C MUX and Shiftregister/~{6845H_En}*%
X148556630Y-81280000D03*
D13*
%TO.P,U28,2,I0a*%
%TO.N,/V0*%
X151096630Y-81280000D03*
%TO.P,U28,3,O3b*%
%TO.N,/Graphic RAM\u002C MUX and Shiftregister/VA7*%
X153636630Y-81280000D03*
%TO.P,U28,4,I1a*%
%TO.N,/V5*%
X156176630Y-81280000D03*
%TO.P,U28,5,O2b*%
%TO.N,/Graphic RAM\u002C MUX and Shiftregister/VA1*%
X158716630Y-81280000D03*
%TO.P,U28,6,I2a*%
%TO.N,/V3*%
X161256630Y-81280000D03*
%TO.P,U28,7,O1b*%
%TO.N,/Graphic RAM\u002C MUX and Shiftregister/VA6*%
X163796630Y-81280000D03*
%TO.P,U28,8,I3a*%
%TO.N,/V2*%
X166336630Y-81280000D03*
%TO.P,U28,9,O0b*%
%TO.N,/Graphic RAM\u002C MUX and Shiftregister/VA4*%
X168876630Y-81280000D03*
%TO.P,U28,10,GND*%
%TO.N,GND*%
X171416630Y-81280000D03*
%TO.P,U28,11,I0b*%
%TO.N,/V4*%
X171416630Y-73660000D03*
%TO.P,U28,12,O3a*%
%TO.N,/Graphic RAM\u002C MUX and Shiftregister/VA2*%
X168876630Y-73660000D03*
%TO.P,U28,13,I1b*%
%TO.N,/V6*%
X166336630Y-73660000D03*
%TO.P,U28,14,O2a*%
%TO.N,/Graphic RAM\u002C MUX and Shiftregister/VA3*%
X163796630Y-73660000D03*
%TO.P,U28,15,I2b*%
%TO.N,/V1*%
X161256630Y-73660000D03*
%TO.P,U28,16,O1a*%
%TO.N,/Graphic RAM\u002C MUX and Shiftregister/VA5*%
X158716630Y-73660000D03*
%TO.P,U28,17,I3b*%
%TO.N,GND*%
X156176630Y-73660000D03*
%TO.P,U28,18,O0a*%
%TO.N,/Graphic RAM\u002C MUX and Shiftregister/VA0*%
X153636630Y-73660000D03*
%TO.P,U28,19,OEb*%
%TO.N,/Graphic RAM\u002C MUX and Shiftregister/~{6845H_En}*%
X151096630Y-73660000D03*
%TO.P,U28,20,VCC*%
%TO.N,+5V*%
X148556630Y-73660000D03*
%TD*%
D12*
%TO.P,U7,1,S*%
%TO.N,/~{1000}*%
X63500000Y-63627000D03*
D13*
%TO.P,U7,2,I0a*%
%TO.N,/A1*%
X66040000Y-63627000D03*
%TO.P,U7,3,I1a*%
%TO.N,/V1*%
X68580000Y-63627000D03*
%TO.P,U7,4,Za*%
%TO.N,/Text RAM\u002C MUX and Shiftregister1/TA1*%
X71120000Y-63627000D03*
%TO.P,U7,5,I0b*%
%TO.N,/A3*%
X73660000Y-63627000D03*
%TO.P,U7,6,I1b*%
%TO.N,/V3*%
X76200000Y-63627000D03*
%TO.P,U7,7,Zb*%
%TO.N,/Text RAM\u002C MUX and Shiftregister1/TA3*%
X78740000Y-63627000D03*
%TO.P,U7,8,GND*%
%TO.N,GND*%
X81280000Y-63627000D03*
%TO.P,U7,9,Zc*%
%TO.N,/Text RAM\u002C MUX and Shiftregister1/TA5*%
X81280000Y-56007000D03*
%TO.P,U7,10,I1c*%
%TO.N,/V5*%
X78740000Y-56007000D03*
%TO.P,U7,11,I0c*%
%TO.N,/A5*%
X76200000Y-56007000D03*
%TO.P,U7,12,Zd*%
%TO.N,/Text RAM\u002C MUX and Shiftregister1/TA6*%
X73660000Y-56007000D03*
%TO.P,U7,13,I1d*%
%TO.N,/V6*%
X71120000Y-56007000D03*
%TO.P,U7,14,I0d*%
%TO.N,/A6*%
X68580000Y-56007000D03*
%TO.P,U7,15,E*%
%TO.N,GND*%
X66040000Y-56007000D03*
%TO.P,U7,16,VCC*%
%TO.N,+5V*%
X63500000Y-56007000D03*
%TD*%
D15*
%TO.P,R1,1*%
%TO.N,GND*%
X49102000Y-137414000D03*
D16*
%TO.P,R1,2*%
%TO.N,/~{LOAD}*%
X61802000Y-137414000D03*
%TD*%
D15*
%TO.P,R14,1*%
%TO.N,Net-(Q2-B)*%
X128750000Y-139000000D03*
D16*
%TO.P,R14,2*%
%TO.N,+5V*%
X128750000Y-126300000D03*
%TD*%
D12*
%TO.P,Y3,1,EN*%
%TO.N,unconnected-(Y3-EN-Pad1)*%
X162990849Y-110265099D03*
D14*
%TO.P,Y3,4,GND*%
%TO.N,GND*%
X170610849Y-110265099D03*
%TO.P,Y3,5,OUT*%
%TO.N,Net-(Y2-OUT)*%
X170610849Y-102645099D03*
%TO.P,Y3,8,Vcc*%
%TO.N,+5V*%
X162990849Y-102645099D03*
%TD*%
D12*
%TO.P,U27,1,OEa*%
%TO.N,/Graphic RAM\u002C MUX and Shiftregister/~{6845L_En}*%
X148556630Y-66040000D03*
D13*
%TO.P,U27,2,I0a*%
%TO.N,/R0*%
X151096630Y-66040000D03*
%TO.P,U27,3,O3b*%
%TO.N,/Graphic RAM\u002C MUX and Shiftregister/VA7*%
X153636630Y-66040000D03*
%TO.P,U27,4,I1a*%
%TO.N,/V9*%
X156176630Y-66040000D03*
%TO.P,U27,5,O2b*%
%TO.N,/Graphic RAM\u002C MUX and Shiftregister/VA1*%
X158716630Y-66040000D03*
%TO.P,U27,6,I2a*%
%TO.N,/V7*%
X161256630Y-66040000D03*
%TO.P,U27,7,O1b*%
%TO.N,/Graphic RAM\u002C MUX and Shiftregister/VA6*%
X163796630Y-66040000D03*
%TO.P,U27,8,I3a*%
%TO.N,/R2*%
X166336630Y-66040000D03*
%TO.P,U27,9,O0b*%
%TO.N,/Graphic RAM\u002C MUX and Shiftregister/VA4*%
X168876630Y-66040000D03*
%TO.P,U27,10,GND*%
%TO.N,GND*%
X171416630Y-66040000D03*
%TO.P,U27,11,I0b*%
%TO.N,/V8*%
X171416630Y-58420000D03*
%TO.P,U27,12,O3a*%
%TO.N,/Graphic RAM\u002C MUX and Shiftregister/VA2*%
X168876630Y-58420000D03*
%TO.P,U27,13,I1b*%
%TO.N,/V10*%
X166336630Y-58420000D03*
%TO.P,U27,14,O2a*%
%TO.N,/Graphic RAM\u002C MUX and Shiftregister/VA3*%
X163796630Y-58420000D03*
%TO.P,U27,15,I2b*%
%TO.N,/R1*%
X161256630Y-58420000D03*
%TO.P,U27,16,O1a*%
%TO.N,/Graphic RAM\u002C MUX and Shiftregister/VA5*%
X158716630Y-58420000D03*
%TO.P,U27,17,I3b*%
%TO.N,GND*%
X156176630Y-58420000D03*
%TO.P,U27,18,O0a*%
%TO.N,/Graphic RAM\u002C MUX and Shiftregister/VA0*%
X153636630Y-58420000D03*
%TO.P,U27,19,OEb*%
%TO.N,/Graphic RAM\u002C MUX and Shiftregister/~{6845L_En}*%
X151096630Y-58420000D03*
%TO.P,U27,20,VCC*%
%TO.N,+5V*%
X148556630Y-58420000D03*
%TD*%
D14*
%TO.P,C10,1*%
%TO.N,+5V*%
X125250000Y-127500000D03*
%TO.P,C10,2*%
%TO.N,GND*%
X125250000Y-132500000D03*
%TD*%
D23*
%TO.P,D1,1,K*%
%TO.N,Net-(D1-K)*%
X121412000Y-117856000D03*
D24*
%TO.P,D1,2,A*%
%TO.N,/Video*%
X121412000Y-110236000D03*
%TD*%
D14*
%TO.P,C13,1*%
%TO.N,+5V*%
X148844000Y-70866000D03*
%TO.P,C13,2*%
%TO.N,GND*%
X143844000Y-70866000D03*
%TD*%
D12*
%TO.P,C18,1*%
%TO.N,Net-(U30-C1+)*%
X235712000Y-112776000D03*
D14*
%TO.P,C18,2*%
%TO.N,Net-(U30-C1-)*%
X233212000Y-112776000D03*
%TD*%
D25*
%TO.P,TP1,1,1*%
%TO.N,/~{LOAD}*%
X120904000Y-124968000D03*
%TD*%
D10*
%TO.P,J3,1,Pin_1*%
%TO.N,unconnected-(J3-Pin_1-Pad1)*%
X157480000Y-110790000D03*
D11*
%TO.P,J3,2,Pin_2*%
%TO.N,unconnected-(J3-Pin_2-Pad2)*%
X157480000Y-108250000D03*
%TO.P,J3,3,Pin_3*%
%TO.N,GND*%
X157480000Y-105710000D03*
%TO.P,J3,4,Pin_4*%
%TO.N,unconnected-(J3-Pin_4-Pad4)*%
X157480000Y-103170000D03*
%TO.P,J3,5,Pin_5*%
%TO.N,+5V*%
X157480000Y-100630000D03*
%TD*%
D15*
%TO.P,R15,1*%
%TO.N,Net-(Q2-B)*%
X123500000Y-142500000D03*
D16*
%TO.P,R15,2*%
%TO.N,GND*%
X136200000Y-142500000D03*
%TD*%
D10*
%TO.P,J1,1,Pin_1*%
%TO.N,Net-(J1-Pin_1)*%
X130556000Y-23114000D03*
%TD*%
D15*
%TO.P,R8,1*%
%TO.N,Net-(J2-Pin_1)*%
X112522000Y-112522000D03*
D16*
%TO.P,R8,2*%
%TO.N,GND*%
X112522000Y-125222000D03*
%TD*%
D15*
%TO.P,R6,1*%
%TO.N,Net-(U13A-RCext)*%
X90678000Y-137922000D03*
D16*
%TO.P,R6,2*%
%TO.N,+5V*%
X103378000Y-137922000D03*
%TD*%
D14*
%TO.P,C9,1*%
%TO.N,Net-(C9-Pad1)*%
X136104000Y-88646000D03*
%TO.P,C9,2*%
%TO.N,/~{4000}*%
X131104000Y-88646000D03*
%TD*%
D15*
%TO.P,R16,1*%
%TO.N,Net-(J2-Pin_3)*%
X117856000Y-122936000D03*
D16*
%TO.P,R16,2*%
%TO.N,+5V*%
X117856000Y-110236000D03*
%TD*%
D25*
%TO.P,TP2,1,1*%
%TO.N,Net-(C22-Pad1)*%
X183000000Y-122500000D03*
%TD*%
D12*
%TO.P,C16,1*%
%TO.N,Net-(U30-C2+)*%
X222758000Y-112776000D03*
D14*
%TO.P,C16,2*%
%TO.N,Net-(U30-C2-)*%
X220258000Y-112776000D03*
%TD*%
%TO.P,C12,1*%
%TO.N,+5V*%
X148641630Y-55750000D03*
%TO.P,C12,2*%
%TO.N,GND*%
X143641630Y-55750000D03*
%TD*%
D12*
%TO.P,U14,1,OE*%
%TO.N,GND*%
X80264000Y-35560000D03*
D13*
%TO.P,U14,2,D0*%
%TO.N,/D0*%
X82804000Y-35560000D03*
%TO.P,U14,3,D1*%
%TO.N,/D1*%
X85344000Y-35560000D03*
%TO.P,U14,4,D2*%
%TO.N,/D2*%
X87884000Y-35560000D03*
%TO.P,U14,5,D3*%
%TO.N,/D3*%
X90424000Y-35560000D03*
%TO.P,U14,6,D4*%
%TO.N,/D4*%
X92964000Y-35560000D03*
%TO.P,U14,7,D5*%
%TO.N,/D5*%
X95504000Y-35560000D03*
%TO.P,U14,8,D6*%
%TO.N,/D6*%
X98044000Y-35560000D03*
%TO.P,U14,9,D7*%
%TO.N,/D7*%
X100584000Y-35560000D03*
%TO.P,U14,10,GND*%
%TO.N,GND*%
X103124000Y-35560000D03*
%TO.P,U14,11,Load*%
%TO.N,/AS*%
X103124000Y-27940000D03*
%TO.P,U14,12,Q7*%
%TO.N,/A7*%
X100584000Y-27940000D03*
%TO.P,U14,13,Q6*%
%TO.N,/A6*%
X98044000Y-27940000D03*
%TO.P,U14,14,Q5*%
%TO.N,/A5*%
X95504000Y-27940000D03*
%TO.P,U14,15,Q4*%
%TO.N,/A4*%
X92964000Y-27940000D03*
%TO.P,U14,16,Q3*%
%TO.N,/A3*%
X90424000Y-27940000D03*
%TO.P,U14,17,Q2*%
%TO.N,/A2*%
X87884000Y-27940000D03*
%TO.P,U14,18,Q1*%
%TO.N,/A1*%
X85344000Y-27940000D03*
%TO.P,U14,19,Q0*%
%TO.N,/A0*%
X82804000Y-27940000D03*
%TO.P,U14,20,VCC*%
%TO.N,+5V*%
X80264000Y-27940000D03*
%TD*%
D12*
%TO.P,U37,1*%
%TO.N,unconnected-(U37-Pad1)*%
X191135000Y-108712000D03*
D13*
%TO.P,U37,2*%
%TO.N,unconnected-(U37-Pad2)*%
X193675000Y-108712000D03*
%TO.P,U37,3*%
%TO.N,unconnected-(U37-Pad3)*%
X196215000Y-108712000D03*
%TO.P,U37,4*%
%TO.N,/Graphic RAM\u002C MUX and Shiftregister/~{GRAM_En}*%
X198755000Y-108712000D03*
%TO.P,U37,5*%
%TO.N,/E*%
X201295000Y-108712000D03*
%TO.P,U37,6*%
%TO.N,Net-(U37-Pad6)*%
X203835000Y-108712000D03*
%TO.P,U37,7,GND*%
%TO.N,GND*%
X206375000Y-108712000D03*
%TO.P,U37,8*%
%TO.N,Net-(U12-Pad9)*%
X206375000Y-101092000D03*
%TO.P,U37,9*%
%TO.N,/GDAT*%
X203835000Y-101092000D03*
%TO.P,U37,10*%
%TO.N,/T{slash}G*%
X201295000Y-101092000D03*
%TO.P,U37,11*%
%TO.N,Net-(U37-Pad11)*%
X198755000Y-101092000D03*
%TO.P,U37,12*%
%TO.N,Net-(U37-Pad12)*%
X196215000Y-101092000D03*
%TO.P,U37,13*%
%TO.N,/Graphic RAM\u002C MUX and Shiftregister/~{RASCLKIN}*%
X193675000Y-101092000D03*
%TO.P,U37,14,VCC*%
%TO.N,+5V*%
X191135000Y-101092000D03*
%TD*%
D14*
%TO.P,C6,1*%
%TO.N,+5V*%
X89662000Y-103632000D03*
%TO.P,C6,2*%
%TO.N,GND*%
X89662000Y-98632000D03*
%TD*%
D15*
%TO.P,R2,1*%
%TO.N,/~{LOAD}*%
X48848000Y-141478000D03*
D16*
%TO.P,R2,2*%
%TO.N,/LTDAT*%
X61548000Y-141478000D03*
%TD*%
D15*
%TO.P,R11,1*%
%TO.N,GND*%
X150876000Y-89154000D03*
D16*
%TO.P,R11,2*%
%TO.N,Net-(C9-Pad1)*%
X138176000Y-89154000D03*
%TD*%
D14*
%TO.P,C31,1*%
%TO.N,+5V*%
X212250000Y-118000000D03*
%TO.P,C31,2*%
%TO.N,GND*%
X212250000Y-123000000D03*
%TD*%
D19*
%TO.P,J4,*%
%TO.N,*%
X157500000Y-137500000D03*
X172500000Y-137500000D03*
D15*
%TO.P,J4,1*%
%TO.N,GND*%
X172500000Y-132500000D03*
%TO.P,J4,2*%
%TO.N,/DOUT*%
X165000000Y-132500000D03*
%TO.P,J4,3*%
%TO.N,/Din*%
X157500000Y-132500000D03*
%TO.P,J4,4*%
%TO.N,Net-(J4-Pad4)*%
X170000000Y-130000000D03*
%TO.P,J4,5*%
%TO.N,Net-(J4-Pad5)*%
X160000000Y-130000000D03*
%TO.P,J4,6*%
%TO.N,N/C*%
X162500000Y-142500000D03*
X167500000Y-142500000D03*
%TD*%
D12*
%TO.P,U23,1,~{R}*%
%TO.N,/RASCRST*%
X134004998Y-123369998D03*
D13*
%TO.P,U23,2,D*%
%TO.N,/Graphic RAM\u002C MUX and Shiftregister/~{RASCLKIN}*%
X136544998Y-123369998D03*
%TO.P,U23,3,C*%
%TO.N,/~{CPUCLK}*%
X139084998Y-123369998D03*
%TO.P,U23,4,~{S}*%
%TO.N,+5V*%
X141624998Y-123369998D03*
%TO.P,U23,5,Q*%
%TO.N,/Graphic RAM\u002C MUX and Shiftregister/RASCLKIN*%
X144164998Y-123369998D03*
%TO.P,U23,6,~{Q}*%
%TO.N,/Graphic RAM\u002C MUX and Shiftregister/~{RASCLKIN}*%
X146704998Y-123369998D03*
%TO.P,U23,7,GND*%
%TO.N,GND*%
X149244998Y-123369998D03*
%TO.P,U23,8,~{Q}*%
%TO.N,Net-(U23B-D)*%
X149244998Y-115749998D03*
%TO.P,U23,9,Q*%
%TO.N,/E_half*%
X146704998Y-115749998D03*
%TO.P,U23,10,~{S}*%
%TO.N,+5V*%
X144164998Y-115749998D03*
%TO.P,U23,11,C*%
%TO.N,/E*%
X141624998Y-115749998D03*
%TO.P,U23,12,D*%
%TO.N,Net-(U23B-D)*%
X139084998Y-115749998D03*
%TO.P,U23,13,~{R}*%
%TO.N,+5V*%
X136544998Y-115749998D03*
%TO.P,U23,14,VCC*%
X134004998Y-115749998D03*
%TD*%
D14*
%TO.P,C34,1*%
%TO.N,+5V*%
X219075000Y-64262000D03*
%TO.P,C34,2*%
%TO.N,GND*%
X224075000Y-64262000D03*
%TD*%
%TO.P,C30,1*%
%TO.N,Net-(C30-Pad1)*%
X201422000Y-111760000D03*
%TO.P,C30,2*%
%TO.N,GND*%
X206422000Y-111760000D03*
%TD*%
D12*
%TO.P,U20,1,Ms1*%
%TO.N,GND*%
X124714000Y-35560000D03*
D13*
%TO.P,U20,2*%
%TO.N,N/C*%
X127254000Y-35560000D03*
%TO.P,U20,3,Ms2*%
%TO.N,GND*%
X129794000Y-35560000D03*
%TO.P,U20,4,Q2*%
%TO.N,unconnected-(U20-Q2-Pad4)*%
X132334000Y-35560000D03*
%TO.P,U20,5,Q1*%
%TO.N,unconnected-(U20-Q1-Pad5)*%
X134874000Y-35560000D03*
%TO.P,U20,6*%
%TO.N,N/C*%
X137414000Y-35560000D03*
%TO.P,U20,7,GND*%
%TO.N,GND*%
X139954000Y-35560000D03*
%TO.P,U20,8,Q3*%
%TO.N,/SCLK*%
X139954000Y-27940000D03*
%TO.P,U20,9,Q0*%
%TO.N,Net-(U20-Cp1)*%
X137414000Y-27940000D03*
%TO.P,U20,10,Cp0*%
%TO.N,/~{RAS}*%
X134874000Y-27940000D03*
%TO.P,U20,11,Cp1*%
%TO.N,Net-(U20-Cp1)*%
X132334000Y-27940000D03*
%TO.P,U20,12,Mr1*%
%TO.N,/RST*%
X129794000Y-27940000D03*
%TO.P,U20,13,Mr2*%
%TO.N,+5V*%
X127254000Y-27940000D03*
%TO.P,U20,14,VCC*%
X124714000Y-27940000D03*
%TD*%
D12*
%TO.P,U13,1,~{A}*%
%TO.N,/LTDAT*%
X64516000Y-140335000D03*
D13*
%TO.P,U13,2,B*%
%TO.N,+5V*%
X67056000Y-140335000D03*
%TO.P,U13,3,~{CLR}*%
X69596000Y-140335000D03*
%TO.P,U13,4,~{Q}*%
%TO.N,/~{LOAD}*%
X72136000Y-140335000D03*
%TO.P,U13,5,Q*%
%TO.N,unconnected-(U13B-Q-Pad5)*%
X74676000Y-140335000D03*
%TO.P,U13,6,Cext*%
%TO.N,unconnected-(U13B-Cext-Pad6)*%
X77216000Y-140335000D03*
%TO.P,U13,7,RCext*%
%TO.N,Net-(U13B-RCext)*%
X79756000Y-140335000D03*
%TO.P,U13,8,GND*%
%TO.N,GND*%
X82296000Y-140335000D03*
%TO.P,U13,9,~{A}*%
%TO.N,/LTDAT*%
X82296000Y-132715000D03*
%TO.P,U13,10,B*%
%TO.N,+5V*%
X79756000Y-132715000D03*
%TO.P,U13,11,~{CLR}*%
X77216000Y-132715000D03*
%TO.P,U13,12,~{Q}*%
%TO.N,Net-(JP3-B)*%
X74676000Y-132715000D03*
%TO.P,U13,13,Q*%
%TO.N,unconnected-(U13A-Q-Pad13)*%
X72136000Y-132715000D03*
%TO.P,U13,14,Cext*%
%TO.N,Net-(U13A-Cext)*%
X69596000Y-132715000D03*
%TO.P,U13,15,RCext*%
%TO.N,Net-(U13A-RCext)*%
X67056000Y-132715000D03*
%TO.P,U13,16,VCC*%
%TO.N,+5V*%
X64516000Y-132715000D03*
%TD*%
D12*
%TO.P,U5,1,A->B*%
%TO.N,/Text RAM\u002C MUX and Shiftregister1/~{TRAMWE}*%
X36195000Y-35560000D03*
D13*
%TO.P,U5,2,A0*%
%TO.N,/Text RAM\u002C MUX and Shiftregister1/TD0*%
X38735000Y-35560000D03*
%TO.P,U5,3,A1*%
%TO.N,/Text RAM\u002C MUX and Shiftregister1/TD1*%
X41275000Y-35560000D03*
%TO.P,U5,4,A2*%
%TO.N,/Text RAM\u002C MUX and Shiftregister1/TD7*%
X43815000Y-35560000D03*
%TO.P,U5,5,A3*%
%TO.N,/Text RAM\u002C MUX and Shiftregister1/TD6*%
X46355000Y-35560000D03*
%TO.P,U5,6,A4*%
%TO.N,/Text RAM\u002C MUX and Shiftregister1/TD5*%
X48895000Y-35560000D03*
%TO.P,U5,7,A5*%
%TO.N,/Text RAM\u002C MUX and Shiftregister1/TD4*%
X51435000Y-35560000D03*
%TO.P,U5,8,A6*%
%TO.N,/Text RAM\u002C MUX and Shiftregister1/TD3*%
X53975000Y-35560000D03*
%TO.P,U5,9,A7*%
%TO.N,/Text RAM\u002C MUX and Shiftregister1/TD2*%
X56515000Y-35560000D03*
%TO.P,U5,10,GND*%
%TO.N,GND*%
X59055000Y-35560000D03*
%TO.P,U5,11,B7*%
%TO.N,/D2*%
X59055000Y-27940000D03*
%TO.P,U5,12,B6*%
%TO.N,/D3*%
X56515000Y-27940000D03*
%TO.P,U5,13,B5*%
%TO.N,/D4*%
X53975000Y-27940000D03*
%TO.P,U5,14,B4*%
%TO.N,/D5*%
X51435000Y-27940000D03*
%TO.P,U5,15,B3*%
%TO.N,/D6*%
X48895000Y-27940000D03*
%TO.P,U5,16,B2*%
%TO.N,/D7*%
X46355000Y-27940000D03*
%TO.P,U5,17,B1*%
%TO.N,/D1*%
X43815000Y-27940000D03*
%TO.P,U5,18,B0*%
%TO.N,/D0*%
X41275000Y-27940000D03*
%TO.P,U5,19,CE*%
%TO.N,/~{1000}*%
X38735000Y-27940000D03*
%TO.P,U5,20,VCC*%
%TO.N,+5V*%
X36195000Y-27940000D03*
%TD*%
D12*
%TO.P,U16,1,GND*%
%TO.N,GND*%
X89281000Y-81661000D03*
D13*
%TO.P,U16,2,~{RESET}*%
%TO.N,/~{RST}*%
X91821000Y-81661000D03*
%TO.P,U16,3,LPSTB*%
%TO.N,GND*%
X94361000Y-81661000D03*
%TO.P,U16,4,MA0*%
%TO.N,/V0*%
X96901000Y-81661000D03*
%TO.P,U16,5,MA1*%
%TO.N,/V1*%
X99441000Y-81661000D03*
%TO.P,U16,6,MA2*%
%TO.N,/V2*%
X101981000Y-81661000D03*
%TO.P,U16,7,MA3*%
%TO.N,/V3*%
X104521000Y-81661000D03*
%TO.P,U16,8,MA4*%
%TO.N,/V4*%
X107061000Y-81661000D03*
%TO.P,U16,9,MA5*%
%TO.N,/V5*%
X109601000Y-81661000D03*
%TO.P,U16,10,MA6*%
%TO.N,/V6*%
X112141000Y-81661000D03*
%TO.P,U16,11,MA7*%
%TO.N,/V7*%
X114681000Y-81661000D03*
%TO.P,U16,12,MA8*%
%TO.N,/V8*%
X117221000Y-81661000D03*
%TO.P,U16,13,MA9*%
%TO.N,/V9*%
X119761000Y-81661000D03*
%TO.P,U16,14,MA10*%
%TO.N,/V10*%
X122301000Y-81661000D03*
%TO.P,U16,15,MA11*%
%TO.N,/V11*%
X124841000Y-81661000D03*
%TO.P,U16,16,MA12*%
%TO.N,unconnected-(U16-MA12-Pad16)*%
X127381000Y-81661000D03*
%TO.P,U16,17,MA13*%
%TO.N,unconnected-(U16-MA13-Pad17)*%
X129921000Y-81661000D03*
%TO.P,U16,18,DE*%
%TO.N,/BL*%
X132461000Y-81661000D03*
%TO.P,U16,19,CURSOR*%
%TO.N,/CRV*%
X135001000Y-81661000D03*
%TO.P,U16,20,VCC*%
%TO.N,+5V*%
X137541000Y-81661000D03*
%TO.P,U16,21,CLK*%
%TO.N,/LTDAT*%
X137541000Y-66421000D03*
%TO.P,U16,22,R/~{W}*%
%TO.N,/R{slash}~{W}*%
X135001000Y-66421000D03*
%TO.P,U16,23,E*%
%TO.N,/E*%
X132461000Y-66421000D03*
%TO.P,U16,24,RS*%
%TO.N,/A0*%
X129921000Y-66421000D03*
%TO.P,U16,25,~{CS}*%
%TO.N,/~{4000}*%
X127381000Y-66421000D03*
%TO.P,U16,26,D7*%
%TO.N,/D7*%
X124841000Y-66421000D03*
%TO.P,U16,27,D6*%
%TO.N,/D6*%
X122301000Y-66421000D03*
%TO.P,U16,28,D5*%
%TO.N,/D5*%
X119761000Y-66421000D03*
%TO.P,U16,29,D4*%
%TO.N,/D4*%
X117221000Y-66421000D03*
%TO.P,U16,30,D3*%
%TO.N,/D3*%
X114681000Y-66421000D03*
%TO.P,U16,31,D2*%
%TO.N,/D2*%
X112141000Y-66421000D03*
%TO.P,U16,32,D1*%
%TO.N,/D1*%
X109601000Y-66421000D03*
%TO.P,U16,33,D0*%
%TO.N,/D0*%
X107061000Y-66421000D03*
%TO.P,U16,34,RA4*%
%TO.N,unconnected-(U16-RA4-Pad34)*%
X104521000Y-66421000D03*
%TO.P,U16,35,RA3*%
%TO.N,/R3*%
X101981000Y-66421000D03*
%TO.P,U16,36,RA2*%
%TO.N,/R2*%
X99441000Y-66421000D03*
%TO.P,U16,37,RA1*%
%TO.N,/R1*%
X96901000Y-66421000D03*
%TO.P,U16,38,RA0*%
%TO.N,/R0*%
X94361000Y-66421000D03*
%TO.P,U16,39,HS*%
%TO.N,/HS*%
X91821000Y-66421000D03*
%TO.P,U16,40,VS*%
%TO.N,/VS*%
X89281000Y-66421000D03*
%TD*%
D12*
%TO.P,U29,1,J*%
%TO.N,/~{CLK6M}*%
X156176630Y-96360000D03*
D13*
%TO.P,U29,2,~{Q}*%
%TO.N,/~{CPUCLK}*%
X158716630Y-96360000D03*
%TO.P,U29,3,Q*%
%TO.N,/CPUCLK*%
X161256630Y-96360000D03*
%TO.P,U29,4,K*%
%TO.N,+5V*%
X163796630Y-96360000D03*
%TO.P,U29,5,Q*%
%TO.N,/CLK6M*%
X166336630Y-96360000D03*
%TO.P,U29,6,~{Q}*%
%TO.N,/~{CLK6M}*%
X168876630Y-96360000D03*
%TO.P,U29,7,GND*%
%TO.N,GND*%
X171416630Y-96360000D03*
%TO.P,U29,8,J*%
%TO.N,/CPUCLK*%
X171416630Y-88740000D03*
%TO.P,U29,9,C*%
%TO.N,/CLK18M*%
X168876630Y-88740000D03*
%TO.P,U29,10,~{R}*%
%TO.N,+5V*%
X166336630Y-88740000D03*
%TO.P,U29,11,K*%
%TO.N,/~{CPUCLK}*%
X163796630Y-88740000D03*
%TO.P,U29,12,C*%
%TO.N,/CLK18M*%
X161256630Y-88740000D03*
%TO.P,U29,13,~{R}*%
%TO.N,+5V*%
X158716630Y-88740000D03*
%TO.P,U29,14,VCC*%
X156176630Y-88740000D03*
%TD*%
D10*
%TO.P,J7,1,Pin_1*%
%TO.N,GND*%
X117348000Y-35560000D03*
%TD*%
D12*
%TO.P,U18,1*%
%TO.N,/~{R3}*%
X84582000Y-117856000D03*
D13*
%TO.P,U18,2*%
%TO.N,/TXTON{slash}~{OFF}*%
X87122000Y-117856000D03*
%TO.P,U18,3*%
%TO.N,Net-(U18-Pad12)*%
X89662000Y-117856000D03*
%TO.P,U18,4*%
%TO.N,/Video Signal Genration/U18_4*%
X92202000Y-117856000D03*
%TO.P,U18,5*%
%TO.N,Net-(U18-Pad5)*%
X94742000Y-117856000D03*
%TO.P,U18,6*%
%TO.N,Net-(U12-Pad10)*%
X97282000Y-117856000D03*
%TO.P,U18,7,GND*%
%TO.N,GND*%
X99822000Y-117856000D03*
%TO.P,U18,8*%
%TO.N,Net-(U18-Pad8)*%
X99822000Y-110236000D03*
%TO.P,U18,9*%
%TO.N,Net-(U18-Pad13)*%
X97282000Y-110236000D03*
%TO.P,U18,10*%
%TO.N,Net-(U12-Pad8)*%
X94742000Y-110236000D03*
%TO.P,U18,11*%
%TO.N,/Video Signal Genration/U18_4*%
X92202000Y-110236000D03*
%TO.P,U18,12*%
%TO.N,Net-(U18-Pad12)*%
X89662000Y-110236000D03*
%TO.P,U18,13*%
%TO.N,Net-(U18-Pad13)*%
X87122000Y-110236000D03*
%TO.P,U18,14,VCC*%
%TO.N,+5V*%
X84582000Y-110236000D03*
%TD*%
D12*
%TO.P,C17,1*%
%TO.N,Net-(U30-VS+)*%
X229250000Y-110250000D03*
D14*
%TO.P,C17,2*%
%TO.N,Net-(U30-VS-)*%
X226750000Y-110250000D03*
%TD*%
D12*
%TO.P,U15,1,GND*%
%TO.N,GND*%
X89281000Y-58801000D03*
D13*
%TO.P,U15,2,XTAL*%
X91821000Y-58801000D03*
%TO.P,U15,3,EXTAL*%
%TO.N,/~{CPUCLK}*%
X94361000Y-58801000D03*
%TO.P,U15,4,~{NMI}*%
%TO.N,+5V*%
X96901000Y-58801000D03*
%TO.P,U15,5,~{IRQ1}*%
X99441000Y-58801000D03*
%TO.P,U15,6,~{RST}*%
%TO.N,/~{RST}*%
X101981000Y-58801000D03*
%TO.P,U15,7,VCC*%
%TO.N,+5V*%
X104521000Y-58801000D03*
%TO.P,U15,8,P20/TIN1*%
%TO.N,GND*%
X107061000Y-58801000D03*
%TO.P,U15,9,P21/TOUT1*%
%TO.N,+5V*%
X109601000Y-58801000D03*
%TO.P,U15,10,P22/SCLK*%
%TO.N,/SCLK*%
X112141000Y-58801000D03*
%TO.P,U15,11,P23/RX*%
%TO.N,/RX*%
X114681000Y-58801000D03*
%TO.P,U15,12,P24/TX*%
%TO.N,/TX*%
X117221000Y-58801000D03*
%TO.P,U15,13,P10/TIN2*%
%TO.N,/~{INVERT}*%
X119761000Y-58801000D03*
%TO.P,U15,14,P11/TOUT2*%
%TO.N,/TXTON{slash}~{OFF}*%
X122301000Y-58801000D03*
%TO.P,U15,15,P12/TOUT3*%
%TO.N,/GTEXT*%
X124841000Y-58801000D03*
%TO.P,U15,16,P13*%
%TO.N,/TEXT*%
X127381000Y-58801000D03*
%TO.P,U15,17,P14*%
%TO.N,Net-(J1-Pin_1)*%
X129921000Y-58801000D03*
%TO.P,U15,18,P15*%
%TO.N,/CHARSET*%
X132461000Y-58801000D03*
%TO.P,U15,19,P16*%
%TO.N,/T{slash}G*%
X135001000Y-58801000D03*
%TO.P,U15,20,P17*%
%TO.N,/HIRES*%
X137541000Y-58801000D03*
%TO.P,U15,21,VCC_STBY*%
%TO.N,+5V*%
X137541000Y-43561000D03*
%TO.P,U15,22,P47/A15*%
%TO.N,/A15*%
X135001000Y-43561000D03*
%TO.P,U15,23,P46/A14*%
%TO.N,/A14*%
X132461000Y-43561000D03*
%TO.P,U15,24,P45/A13*%
%TO.N,/A13*%
X129921000Y-43561000D03*
%TO.P,U15,25,P44/A12*%
%TO.N,/A12*%
X127381000Y-43561000D03*
%TO.P,U15,26,P43/A11*%
%TO.N,/A11*%
X124841000Y-43561000D03*
%TO.P,U15,27,P42/A10*%
%TO.N,/A10*%
X122301000Y-43561000D03*
%TO.P,U15,28,P41/A9*%
%TO.N,/A9*%
X119761000Y-43561000D03*
%TO.P,U15,29,P40/A8*%
%TO.N,/A8*%
X117221000Y-43561000D03*
%TO.P,U15,30,P37/AD7*%
%TO.N,/D7*%
X114681000Y-43561000D03*
%TO.P,U15,31,P36/AD6*%
%TO.N,/D6*%
X112141000Y-43561000D03*
%TO.P,U15,32,P35/AD5*%
%TO.N,/D5*%
X109601000Y-43561000D03*
%TO.P,U15,33,P34/AD4*%
%TO.N,/D4*%
X107061000Y-43561000D03*
%TO.P,U15,34,P33/AD3*%
%TO.N,/D3*%
X104521000Y-43561000D03*
%TO.P,U15,35,P32/AD2*%
%TO.N,/D2*%
X101981000Y-43561000D03*
%TO.P,U15,36,P31/AD1*%
%TO.N,/D1*%
X99441000Y-43561000D03*
%TO.P,U15,37,P30/AD0*%
%TO.N,/D0*%
X96901000Y-43561000D03*
%TO.P,U15,38,SC2/R/~{W}*%
%TO.N,/R{slash}~{W}*%
X94361000Y-43561000D03*
%TO.P,U15,39,SC1/AS*%
%TO.N,/AS*%
X91821000Y-43561000D03*
%TO.P,U15,40,E*%
%TO.N,/E*%
X89281000Y-43561000D03*
%TD*%
D15*
%TO.P,R21,1*%
%TO.N,Net-(C23-Pad1)*%
X183134000Y-119250000D03*
D16*
%TO.P,R21,2*%
%TO.N,+5V*%
X183134000Y-106550000D03*
%TD*%
D14*
%TO.P,C7,1*%
%TO.N,Net-(U13A-Cext)*%
X86233000Y-140589000D03*
%TO.P,C7,2*%
%TO.N,Net-(U13A-RCext)*%
X86233000Y-135589000D03*
%TD*%
D12*
%TO.P,U3,1,A7*%
%TO.N,/Text RAM\u002C MUX and Shiftregister1/LD4*%
X31242000Y-99695000D03*
D13*
%TO.P,U3,2,A6*%
%TO.N,/Text RAM\u002C MUX and Shiftregister1/LD3*%
X33782000Y-99695000D03*
%TO.P,U3,3,A5*%
%TO.N,/Text RAM\u002C MUX and Shiftregister1/LD2*%
X36322000Y-99695000D03*
%TO.P,U3,4,A4*%
%TO.N,/Text RAM\u002C MUX and Shiftregister1/LD1*%
X38862000Y-99695000D03*
%TO.P,U3,5,A3*%
%TO.N,/Text RAM\u002C MUX and Shiftregister1/LD0*%
X41402000Y-99695000D03*
%TO.P,U3,6,A2*%
%TO.N,/R2*%
X43942000Y-99695000D03*
%TO.P,U3,7,A1*%
%TO.N,/R1*%
X46482000Y-99695000D03*
%TO.P,U3,8,A0*%
%TO.N,/R0*%
X49022000Y-99695000D03*
%TO.P,U3,9,D0*%
%TO.N,/CI*%
X51562000Y-99695000D03*
%TO.P,U3,10,D1*%
%TO.N,/SI*%
X54102000Y-99695000D03*
%TO.P,U3,11,D2*%
%TO.N,/Text RAM\u002C MUX and Shiftregister1/XD2*%
X56642000Y-99695000D03*
%TO.P,U3,12,GND*%
%TO.N,GND*%
X59182000Y-99695000D03*
%TO.P,U3,13,D3*%
%TO.N,/Text RAM\u002C MUX and Shiftregister1/XD3*%
X59182000Y-84455000D03*
%TO.P,U3,14,D4*%
%TO.N,/Text RAM\u002C MUX and Shiftregister1/XD4*%
X56642000Y-84455000D03*
%TO.P,U3,15,D5*%
%TO.N,/Text RAM\u002C MUX and Shiftregister1/XD5*%
X54102000Y-84455000D03*
%TO.P,U3,16,D6*%
%TO.N,/Text RAM\u002C MUX and Shiftregister1/XD6*%
X51562000Y-84455000D03*
%TO.P,U3,17,D7*%
%TO.N,/Text RAM\u002C MUX and Shiftregister1/XD7*%
X49022000Y-84455000D03*
%TO.P,U3,18,~{CE}*%
%TO.N,GND*%
X46482000Y-84455000D03*
%TO.P,U3,19,A10*%
%TO.N,/CHARSET*%
X43942000Y-84455000D03*
%TO.P,U3,20,~{OE}/VPP*%
%TO.N,GND*%
X41402000Y-84455000D03*
%TO.P,U3,21,A11*%
%TO.N,Net-(JP4-C)*%
X38862000Y-84455000D03*
%TO.P,U3,22,A9*%
%TO.N,/Text RAM\u002C MUX and Shiftregister1/LD6*%
X36322000Y-84455000D03*
%TO.P,U3,23,A8*%
%TO.N,/Text RAM\u002C MUX and Shiftregister1/LD5*%
X33782000Y-84455000D03*
%TO.P,U3,24,VCC*%
%TO.N,+5V*%
X31242000Y-84455000D03*
%TD*%
D12*
%TO.P,U30,1,C1+*%
%TO.N,Net-(U30-C1+)*%
X233250000Y-117750000D03*
D13*
%TO.P,U30,2,VS+*%
%TO.N,Net-(U30-VS+)*%
X230710000Y-117750000D03*
%TO.P,U30,3,C1-*%
%TO.N,Net-(U30-C1-)*%
X228170000Y-117750000D03*
%TO.P,U30,4,C2+*%
%TO.N,Net-(U30-C2+)*%
X225630000Y-117750000D03*
%TO.P,U30,5,C2-*%
%TO.N,Net-(U30-C2-)*%
X223090000Y-117750000D03*
%TO.P,U30,6,VS-*%
%TO.N,Net-(U30-VS-)*%
X220550000Y-117750000D03*
%TO.P,U30,7,T2OUT*%
%TO.N,unconnected-(U30-T2OUT-Pad7)*%
X218010000Y-117750000D03*
%TO.P,U30,8,R2IN*%
%TO.N,/Din*%
X215470000Y-117750000D03*
%TO.P,U30,9,R2OUT*%
%TO.N,/RX*%
X215470000Y-125370000D03*
%TO.P,U30,10,T2IN*%
%TO.N,unconnected-(U30-T2IN-Pad10)*%
X218010000Y-125370000D03*
%TO.P,U30,11,T1IN*%
%TO.N,/TX*%
X220550000Y-125370000D03*
%TO.P,U30,12,R1OUT*%
%TO.N,unconnected-(U30-R1OUT-Pad12)*%
X223090000Y-125370000D03*
%TO.P,U30,13,R1IN*%
%TO.N,unconnected-(U30-R1IN-Pad13)*%
X225630000Y-125370000D03*
%TO.P,U30,14,T1OUT*%
%TO.N,/DOUT*%
X228170000Y-125370000D03*
%TO.P,U30,15,GND*%
%TO.N,GND*%
X230710000Y-125370000D03*
%TO.P,U30,16,VCC*%
%TO.N,+5V*%
X233250000Y-125370000D03*
%TD*%
D26*
%TO.N,/Video*%
X127254000Y-133858000D03*
%TO.N,Net-(J9-Pin_4)*%
X93599000Y-127889000D03*
%TO.N,/VS*%
X85997000Y-127749000D03*
%TO.N,/CSYNC*%
X96139000Y-128651000D03*
%TO.N,Net-(U24A-Q)*%
X98679000Y-139700000D03*
X98552000Y-126111000D03*
%TO.N,GND*%
X51816000Y-113030000D03*
X178500000Y-96500000D03*
X117856000Y-134366000D03*
X180165001Y-110249994D03*
X199136004Y-24764996D03*
X199136000Y-35814000D03*
X174371000Y-53213000D03*
D27*
X179500000Y-124968000D03*
D26*
X125222000Y-32349998D03*
X208788000Y-65786000D03*
X231394000Y-101854018D03*
X61468000Y-39624000D03*
X221742000Y-25225000D03*
X82549990Y-117217974D03*
X58928000Y-104520998D03*
X99822000Y-132080000D03*
X202692000Y-124968000D03*
X153475000Y-98806000D03*
X84709000Y-40513000D03*
X84836000Y-133223000D03*
X82804000Y-130302000D03*
X85598000Y-58801000D03*
X157500000Y-26175000D03*
X174371000Y-59436000D03*
X174371000Y-40513000D03*
X199136000Y-27940000D03*
X174371000Y-22860000D03*
X199136000Y-48514000D03*
X41402000Y-81788022D03*
X199136000Y-53340000D03*
X144641635Y-33250009D03*
X178250000Y-81750000D03*
X126492000Y-97282000D03*
X157250003Y-41000003D03*
X199136000Y-60706000D03*
X231648006Y-64262000D03*
X156250000Y-71750000D03*
X231394000Y-89408004D03*
X174371000Y-50800000D03*
X35926397Y-112027012D03*
X174371000Y-27813000D03*
X174371000Y-66040000D03*
X87630000Y-102616000D03*
X113792000Y-93472000D03*
X46482000Y-49022000D03*
X231648000Y-76200000D03*
X46736000Y-81446000D03*
X85598000Y-63754000D03*
X157301630Y-69750000D03*
X199136000Y-65786000D03*
X199263007Y-40640007D03*
X157250000Y-56250000D03*
X174371000Y-35687000D03*
X64419452Y-72957713D03*
X127000000Y-54864000D03*
X66294000Y-39712000D03*
X59182000Y-49276000D03*
X28702000Y-50546000D03*
X58674000Y-72957713D03*
X66040000Y-59436000D03*
X85611000Y-50545995D03*
X85851995Y-82042005D03*
X85852000Y-76200000D03*
%TO.N,/RX*%
X210250002Y-63667499D03*
X216789000Y-105664000D03*
X210250000Y-105500000D03*
X114808000Y-62738000D03*
%TO.N,+5V*%
X53156000Y-120650000D03*
X54864000Y-122936000D03*
X186869000Y-106807000D03*
X211328000Y-101981000D03*
X211328016Y-107188000D03*
X211328000Y-69596010D03*
X182000000Y-83820000D03*
X135128000Y-113284000D03*
X159750000Y-105750000D03*
X24130000Y-29972000D03*
D27*
X146441630Y-82387000D03*
D26*
X29972000Y-118080002D03*
X80341977Y-31554796D03*
X34289998Y-118364000D03*
X22605999Y-102616000D03*
X103886000Y-54102000D03*
X22352000Y-43180000D03*
X22605995Y-74168000D03*
X146611642Y-43180006D03*
X84582000Y-114046000D03*
X169750000Y-85750000D03*
X22606000Y-118110000D03*
X61650000Y-56007000D03*
X22606000Y-107950006D03*
X211328000Y-93853000D03*
X159750000Y-103250000D03*
X85303992Y-89448008D03*
X93218000Y-112808000D03*
X22605999Y-84581999D03*
X62230000Y-96520000D03*
X22605999Y-87376000D03*
X81280000Y-113792000D03*
X187264496Y-113985502D03*
X22605995Y-66802000D03*
X143510000Y-113284000D03*
X93218000Y-60198000D03*
X128750000Y-134366000D03*
X211328000Y-81787984D03*
X128016000Y-55880000D03*
X80806003Y-122428000D03*
X99568003Y-54102003D03*
X63754000Y-88646000D03*
X154018000Y-88740000D03*
%TO.N,/~{INVERT}*%
X73406000Y-72390000D03*
X90678000Y-74168000D03*
X68326000Y-93980004D03*
X68382430Y-107709000D03*
X90424000Y-51816000D03*
X116332000Y-51054000D03*
X72771000Y-93853000D03*
%TO.N,/TX*%
X117365000Y-62475000D03*
X219329000Y-105537000D03*
X232664000Y-105156000D03*
X181000000Y-63250000D03*
X180250000Y-79750000D03*
X232790998Y-79248000D03*
%TO.N,/E*%
X138245766Y-69976752D03*
X132648647Y-70262879D03*
X200152000Y-95885000D03*
X109418000Y-60904000D03*
X100576000Y-56642000D03*
X141611019Y-119589000D03*
X182250004Y-68500000D03*
X134112000Y-103378000D03*
X100584000Y-59944000D03*
X112014000Y-69583000D03*
X89153996Y-56642000D03*
X180250000Y-92583000D03*
%TO.N,/A3*%
X74550209Y-27734807D03*
X76962000Y-100076000D03*
X108712000Y-100838006D03*
X91948000Y-37338000D03*
%TO.N,/D3*%
X88815290Y-25056000D03*
X115824000Y-87630000D03*
%TO.N,/D4*%
X91440000Y-24892010D03*
X120142000Y-87884000D03*
%TO.N,/A4*%
X55762000Y-68061019D03*
X48767998Y-25399998D03*
X67055992Y-73405992D03*
X82295994Y-74930000D03*
X92963995Y-24891995D03*
X106172000Y-99821990D03*
X87122000Y-98552000D03*
%TO.N,/A0*%
X128524000Y-33782000D03*
X114299992Y-97790000D03*
X72136000Y-89661994D03*
X81788000Y-33425000D03*
X65786000Y-34798000D03*
%TO.N,/D0*%
X85944591Y-30239000D03*
%TO.N,/D5*%
X95504000Y-29718000D03*
%TO.N,/A5*%
X108204000Y-41910000D03*
X83885376Y-52578000D03*
X142253000Y-38301332D03*
X84283000Y-42418014D03*
X103632004Y-101979000D03*
X76200000Y-53594000D03*
X143764000Y-102616000D03*
X156176630Y-38000000D03*
%TO.N,/A6*%
X166250000Y-30025000D03*
X101346000Y-100584000D03*
X86373000Y-100410492D03*
X73914002Y-26416002D03*
X70104000Y-85852000D03*
X84710396Y-86231604D03*
%TO.N,/D6*%
X122936000Y-92710000D03*
X98044000Y-32766000D03*
X48895000Y-32765990D03*
%TO.N,/D7*%
X100330000Y-30988000D03*
X127000000Y-94961096D03*
X116332000Y-92202000D03*
X46228000Y-30734000D03*
%TO.N,/A7*%
X137540999Y-49657001D03*
X129539996Y-95504000D03*
X138684000Y-31750000D03*
X128778000Y-103378000D03*
X136398000Y-95758000D03*
%TO.N,/A1*%
X113751990Y-99100006D03*
X86648000Y-64561000D03*
X85344000Y-25589998D03*
X90678000Y-94996000D03*
%TO.N,/D1*%
X112522000Y-91186000D03*
X85344000Y-33274000D03*
X120140000Y-91186000D03*
X43815006Y-32893006D03*
%TO.N,/D2*%
X79034008Y-36789992D03*
X114554000Y-86601000D03*
X78486000Y-27686000D03*
X127762000Y-86601000D03*
%TO.N,/A2*%
X74676000Y-71120000D03*
X83553002Y-71260353D03*
X87376000Y-90424000D03*
X110998000Y-96012000D03*
X91948000Y-40894000D03*
X81788008Y-38862000D03*
%TO.N,/A12*%
X138938000Y-46228000D03*
X130850008Y-91480008D03*
X127484508Y-45362492D03*
X131064000Y-104648000D03*
X156206283Y-46802299D03*
%TO.N,/A13*%
X142000000Y-41500000D03*
%TO.N,/~{CEROM}*%
X147066000Y-95491000D03*
%TO.N,/CLK18M*%
X139000000Y-133750000D03*
X151250000Y-134000000D03*
X148805000Y-90678000D03*
%TO.N,/A15*%
X179500000Y-94869004D03*
X145391630Y-60906578D03*
X179500000Y-63250000D03*
X135001000Y-50038000D03*
X145611642Y-50750000D03*
%TO.N,/A14*%
X142741500Y-97021500D03*
X142500000Y-44750000D03*
%TO.N,/A10*%
X124796318Y-50533000D03*
X87723000Y-87589989D03*
X84328000Y-45720000D03*
%TO.N,/A11*%
X72136000Y-87121996D03*
X171416630Y-40750000D03*
X174750000Y-108750000D03*
X107297000Y-107354000D03*
%TO.N,/A9*%
X134112000Y-74168000D03*
X133576995Y-47724995D03*
X105664000Y-73759000D03*
X120142000Y-47752000D03*
%TO.N,/A8*%
X73660000Y-46736000D03*
X98044000Y-47014000D03*
X161151627Y-46749987D03*
X117348000Y-46736000D03*
%TO.N,/~{RST}*%
X186750000Y-119750000D03*
X99314000Y-75184000D03*
X92202000Y-74930000D03*
X185420000Y-56388000D03*
%TO.N,/R{slash}~{W}*%
X94597000Y-97536000D03*
X126365000Y-68072000D03*
X167386000Y-98806000D03*
X123190000Y-51308000D03*
X94742007Y-52323993D03*
%TO.N,/TEXT*%
X115062000Y-23114000D03*
X75946000Y-127254000D03*
X75946000Y-22606000D03*
%TO.N,/CPUCLK*%
X164939630Y-90273000D03*
X216662000Y-83947000D03*
X175250000Y-80250000D03*
%TO.N,/GTEXT*%
X28956000Y-26162000D03*
X114046000Y-24130000D03*
X24130000Y-116840000D03*
X50799986Y-119380000D03*
X54356000Y-124206000D03*
%TO.N,/TXTON{slash}~{OFF}*%
X124968000Y-72644000D03*
X97028000Y-73914000D03*
X88900000Y-107950000D03*
X97082205Y-108444805D03*
%TO.N,/HIRES*%
X87884000Y-72644000D03*
X138671000Y-72596239D03*
X87643000Y-78994000D03*
X64770000Y-82296000D03*
%TO.N,Net-(U24A-Q)*%
X63119000Y-125603000D03*
%TO.N,Net-(U37-Pad6)*%
X212597994Y-108966000D03*
X212598000Y-99568000D03*
%TO.N,/E_half*%
X146558000Y-119380000D03*
%TO.N,Net-(D1-K)*%
X121412000Y-120756000D03*
%TO.N,/Din*%
X209804000Y-133350000D03*
%TO.N,Net-(U42-Pad1)*%
X222758000Y-91948000D03*
%TO.N,/R2*%
X99441000Y-62738000D03*
X57912000Y-62230000D03*
X42926000Y-80511500D03*
X58165999Y-80518001D03*
X166336630Y-62000000D03*
%TO.N,/R1*%
X161256622Y-64262000D03*
X47752000Y-93218000D03*
X52578000Y-92456000D03*
X47751982Y-65278000D03*
%TO.N,/R0*%
X48514000Y-78994000D03*
X42672000Y-78740000D03*
X42672000Y-68834000D03*
%TO.N,/V10*%
X71755000Y-46609000D03*
X122139435Y-69387704D03*
X87839000Y-46736000D03*
X166769814Y-68019816D03*
X88900010Y-68580000D03*
%TO.N,/V9*%
X119888006Y-74422000D03*
X87389000Y-41576823D03*
X88646000Y-76200000D03*
X155000000Y-77025000D03*
%TO.N,/V5*%
X156176630Y-76750000D03*
X82550000Y-67056000D03*
X109474000Y-70104000D03*
%TO.N,/V7*%
X112014000Y-61722000D03*
X159766000Y-77724000D03*
X114808000Y-78486000D03*
X70104000Y-59309000D03*
%TO.N,/V6*%
X97720247Y-48419545D03*
X98425004Y-77596996D03*
X166336630Y-77216000D03*
X72390000Y-48768000D03*
X111973995Y-77683989D03*
%TO.N,/V4*%
X107188000Y-70866000D03*
X69596000Y-71120000D03*
%TO.N,/V8*%
X131064000Y-77671000D03*
X169999994Y-76250000D03*
X117602000Y-77470000D03*
X132334000Y-50038000D03*
%TO.N,/V0*%
X151096633Y-85875000D03*
X68834000Y-81788000D03*
X97378000Y-86881000D03*
%TO.N,/TDAT*%
X79335000Y-122595012D03*
X84582000Y-94488000D03*
%TO.N,/~{LOAD}*%
X167000000Y-119820000D03*
X167000000Y-117000000D03*
X188750000Y-115750000D03*
%TO.N,/CRV*%
X88138000Y-114334000D03*
X125983996Y-80010000D03*
X121666000Y-114808000D03*
%TO.N,/BL*%
X133096000Y-73406000D03*
X153149000Y-108458000D03*
X143500000Y-73500000D03*
%TO.N,/V1*%
X162399630Y-84750000D03*
X100063000Y-85034274D03*
X99395497Y-78981000D03*
X68326000Y-71882000D03*
%TO.N,/V2*%
X101826000Y-71120000D03*
%TO.N,/V3*%
X104826000Y-62496000D03*
%TO.N,/~{RAS}*%
X216027003Y-57277003D03*
X134874000Y-23875992D03*
X209550002Y-57023001D03*
X214757000Y-111760000D03*
X184149998Y-58379000D03*
X185250000Y-24625000D03*
%TO.N,/~{CPUCLK}*%
X94234000Y-53594000D03*
X172480943Y-53095802D03*
X161290000Y-124460000D03*
%TO.N,/GDAT*%
X205740000Y-70739000D03*
%TO.N,/SCLK*%
X143000000Y-39750000D03*
X143750000Y-27178000D03*
X104012994Y-46101000D03*
%TO.N,/Graphic RAM\u002C MUX and Shiftregister/~{CPUL_En}*%
X150182630Y-32791000D03*
X225043997Y-34417003D03*
X232981500Y-74231500D03*
%TO.N,/Graphic RAM\u002C MUX and Shiftregister/~{CPUH_En}*%
X229108000Y-55499000D03*
X151391630Y-54000000D03*
%TO.N,/Graphic RAM\u002C MUX and Shiftregister/~{6845L_En}*%
X182500000Y-62750000D03*
X181025000Y-71750000D03*
%TO.N,Net-(U12-Pad10)*%
X96011996Y-125775000D03*
%TO.N,/~{4000}*%
X128524000Y-100330006D03*
%TO.N,/~{8000}*%
X181000000Y-82400999D03*
X184750001Y-120500000D03*
X181609998Y-101092000D03*
%TO.N,/~{1000}*%
X73406012Y-118618000D03*
X75437999Y-74930001D03*
X151130000Y-118618000D03*
X150607000Y-109474008D03*
X31496000Y-51054000D03*
%TO.N,/CHARSET*%
X28956000Y-81534000D03*
X62738004Y-22352000D03*
X56642000Y-82804000D03*
X133350000Y-22605994D03*
X136398000Y-55372000D03*
%TO.N,Net-(U37-Pad11)*%
X191135000Y-118490996D03*
X200279000Y-89408000D03*
X199898000Y-118364000D03*
%TO.N,/~{CLK6M}*%
X213994993Y-85725007D03*
X174000000Y-84500000D03*
%TO.N,/RST*%
X232537000Y-107442000D03*
X129286000Y-30239000D03*
X201422000Y-119380000D03*
X141999000Y-31496000D03*
X142240006Y-22606000D03*
X225933000Y-38354000D03*
%TO.N,/AS*%
X104394000Y-38100000D03*
X87334596Y-39157404D03*
%TO.N,/LTDAT*%
X55867000Y-79456046D03*
X80750008Y-137922000D03*
X65786000Y-83566000D03*
X137414000Y-77221000D03*
%TO.N,/~{E}*%
X148573786Y-97089801D03*
X165354002Y-101600008D03*
%TO.N,/CLK6M*%
X192532000Y-97535996D03*
%TO.N,/R3*%
X77216000Y-106172000D03*
X99822000Y-107696000D03*
%TO.N,Net-(U18-Pad13)*%
X149098000Y-106934000D03*
%TO.N,Net-(U12-Pad8)*%
X90932000Y-124113000D03*
D27*
%TO.N,Net-(U12-Pad9)*%
X200914000Y-127254000D03*
D26*
%TO.N,/T{slash}G*%
X140147150Y-55443000D03*
X223012000Y-26289000D03*
X225298000Y-103632000D03*
X141224000Y-24130000D03*
%TO.N,/Graphic RAM\u002C MUX and Shiftregister/~{GRAM_En}*%
X198120000Y-88646000D03*
X174244002Y-112014002D03*
X219202000Y-86995000D03*
X217932000Y-73660000D03*
X224155000Y-73786994D03*
%TO.N,Net-(U38-Pad2)*%
X224155000Y-106553000D03*
X193675000Y-117602000D03*
%TO.N,Net-(U4B-C)*%
X56388000Y-131064000D03*
%TO.N,Net-(U4A-C)*%
X68181005Y-115316000D03*
%TO.N,Net-(U4B-Q)*%
X40640000Y-117856000D03*
X95758000Y-116037000D03*
%TO.N,/Text RAM\u002C MUX and Shiftregister1/TD2*%
X55762000Y-62139998D03*
X32258000Y-63246000D03*
%TO.N,/Text RAM\u002C MUX and Shiftregister1/TA6*%
X73660000Y-53340002D03*
X34036000Y-52832000D03*
%TO.N,/Text RAM\u002C MUX and Shiftregister1/TD1*%
X29972000Y-62230000D03*
X45373545Y-56176455D03*
X54102000Y-61963000D03*
%TO.N,/Text RAM\u002C MUX and Shiftregister1/TD3*%
X35052000Y-48006002D03*
%TO.N,/Text RAM\u002C MUX and Shiftregister1/TA5*%
X36576000Y-53594000D03*
%TO.N,/Text RAM\u002C MUX and Shiftregister1/TD4*%
X37592000Y-47244000D03*
%TO.N,/Text RAM\u002C MUX and Shiftregister1/TA0*%
X71247000Y-61087000D03*
%TO.N,/Text RAM\u002C MUX and Shiftregister1/TA7*%
X31242000Y-53594000D03*
%TO.N,/Text RAM\u002C MUX and Shiftregister1/~{TRAMWE}*%
X28956006Y-35560000D03*
X76073000Y-125984000D03*
X25146000Y-91694000D03*
X168500000Y-135000000D03*
X78740000Y-90932000D03*
%TO.N,/Text RAM\u002C MUX and Shiftregister1/TA2*%
X45212000Y-70104000D03*
%TO.N,/Text RAM\u002C MUX and Shiftregister1/TD7*%
X46791009Y-72557008D03*
X51816000Y-72390000D03*
%TO.N,/Text RAM\u002C MUX and Shiftregister1/TA1*%
X69469000Y-61341000D03*
%TO.N,/Text RAM\u002C MUX and Shiftregister1/TD0*%
X51449610Y-61455000D03*
X27577000Y-61722004D03*
X43688000Y-56134000D03*
%TO.N,/Text RAM\u002C MUX and Shiftregister1/TA4*%
X64262000Y-54610000D03*
X72136000Y-66382000D03*
X65134682Y-66356950D03*
X38862000Y-54610000D03*
%TO.N,/Text RAM\u002C MUX and Shiftregister1/TA3*%
X78740008Y-58928000D03*
%TO.N,/Text RAM\u002C MUX and Shiftregister1/TD6*%
X39878000Y-45466000D03*
%TO.N,/Text RAM\u002C MUX and Shiftregister1/TD5*%
X38862000Y-46482004D03*
%TO.N,/Text RAM\u002C MUX and Shiftregister1/TA9*%
X80772000Y-40894000D03*
%TO.N,/Text RAM\u002C MUX and Shiftregister1/TA8*%
X77470000Y-38100000D03*
X35560000Y-38100000D03*
%TO.N,/Text RAM\u002C MUX and Shiftregister1/LD0*%
X46736000Y-75692000D03*
X28702000Y-64516000D03*
X52070000Y-75692000D03*
X50546000Y-64008000D03*
X47752000Y-88646000D03*
X41769594Y-88646000D03*
%TO.N,/Text RAM\u002C MUX and Shiftregister1/LD1*%
X40132000Y-95504000D03*
X35052000Y-95250000D03*
%TO.N,/LD7*%
X29718000Y-91440000D03*
X38608010Y-91440000D03*
X45212000Y-91440000D03*
%TO.N,/Text RAM\u002C MUX and Shiftregister1/LD3*%
X28702000Y-75946000D03*
X37592000Y-75692000D03*
%TO.N,/Text RAM\u002C MUX and Shiftregister1/LD4*%
X31242000Y-93218000D03*
X40132000Y-93726010D03*
X34036000Y-93726010D03*
%TO.N,/Text RAM\u002C MUX and Shiftregister1/LD6*%
X43942000Y-64770000D03*
X33782000Y-77724000D03*
X29972000Y-77724000D03*
X28702000Y-68580000D03*
%TO.N,/Text RAM\u002C MUX and Shiftregister1/LD5*%
X31750000Y-80010000D03*
X27287000Y-79756000D03*
X26670000Y-70358000D03*
%TO.N,/Text RAM\u002C MUX and Shiftregister1/XD6*%
X51816000Y-94488000D03*
%TO.N,/Text RAM\u002C MUX and Shiftregister1/XD7*%
X68326000Y-87376000D03*
%TO.N,/Text RAM\u002C MUX and Shiftregister1/XD3*%
X53086000Y-106667000D03*
%TO.N,/Text RAM\u002C MUX and Shiftregister1/XD5*%
X53848000Y-97282000D03*
%TO.N,/Text RAM\u002C MUX and Shiftregister1/XD4*%
X80106000Y-100838000D03*
X55372000Y-101092000D03*
%TO.N,/Video Signal Genration/U18_4*%
X26670000Y-111252012D03*
%TO.N,/Graphic RAM\u002C MUX and Shiftregister/VA3*%
X186309000Y-44577000D03*
X211454998Y-45085002D03*
%TO.N,/Graphic RAM\u002C MUX and Shiftregister/VA1*%
X158500000Y-45485006D03*
%TO.N,/Graphic RAM\u002C MUX and Shiftregister/VA0*%
X212852000Y-38862000D03*
X154141626Y-39250000D03*
X187198000Y-38354000D03*
%TO.N,/Graphic RAM\u002C MUX and Shiftregister/VA6*%
X163891630Y-46750000D03*
X183007000Y-46736000D03*
%TO.N,/Graphic RAM\u002C MUX and Shiftregister/VA4*%
X213886000Y-37828000D03*
X188087000Y-37084000D03*
%TO.N,/Graphic RAM\u002C MUX and Shiftregister/VA2*%
X215900000Y-51816000D03*
X190355004Y-51670992D03*
X190500000Y-42672004D03*
%TO.N,Net-(U31-Pad6)*%
X185500000Y-96787000D03*
X179022000Y-112728000D03*
X212598004Y-96520000D03*
X212598000Y-80264004D03*
X185750000Y-112250000D03*
%TO.N,/Graphic RAM\u002C MUX and Shiftregister/GD6*%
X197739000Y-71247000D03*
X196088000Y-32766000D03*
X189325364Y-81883364D03*
X180403500Y-32702500D03*
X190500000Y-71374000D03*
X200660000Y-82550006D03*
%TO.N,/Graphic RAM\u002C MUX and Shiftregister/~{WE}*%
X221615000Y-86614000D03*
X230505000Y-86741000D03*
X220472000Y-91948000D03*
X230505006Y-58674000D03*
%TO.N,/Graphic RAM\u002C MUX and Shiftregister/~{CAS}*%
X202691988Y-33401000D03*
X177800000Y-32004000D03*
X224027998Y-33401000D03*
%TO.N,/Graphic RAM\u002C MUX and Shiftregister/GD2*%
X196469000Y-43434000D03*
X180848000Y-43434000D03*
%TO.N,/Graphic RAM\u002C MUX and Shiftregister/GD7*%
X180847998Y-57404002D03*
X203454000Y-78231990D03*
X193040000Y-57150000D03*
X192786000Y-77978000D03*
%TO.N,/Graphic RAM\u002C MUX and Shiftregister/GD5*%
X204089000Y-70612000D03*
%TO.N,/Graphic RAM\u002C MUX and Shiftregister/GD3*%
X200406000Y-44196000D03*
X205613000Y-43434000D03*
%TO.N,Net-(U42-Pad12)*%
X226695000Y-84328000D03*
X220218000Y-84328000D03*
%TO.N,Net-(U13A-RCext)*%
X67056000Y-135636002D03*
%TO.N,Net-(U13A-Cext)*%
X69596000Y-136500000D03*
%TO.N,Net-(JP3-B)*%
X129286000Y-132334000D03*
%TO.N,/Graphic RAM\u002C MUX and Shiftregister/~{RASCLKIN}*%
X137959996Y-139209994D03*
X187960000Y-99314000D03*
X183500000Y-140750000D03*
%TO.N,/Graphic RAM\u002C MUX and Shiftregister/RASCLKIN*%
X171512500Y-139987500D03*
X165250000Y-118364000D03*
X148119996Y-137978004D03*
X207518000Y-137250000D03*
%TO.N,/TDOTCLK*%
X73406000Y-102721000D03*
%TO.N,/GDOTCLK*%
X184658000Y-137250000D03*
X187815000Y-72771000D03*
X204470002Y-72771000D03*
%TO.N,/~{R3}*%
X72136000Y-115316000D03*
%TO.N,/Text RAM\u002C MUX and Shiftregister1/TRAMWE*%
X70866000Y-89662000D03*
X41402000Y-49022000D03*
X27178000Y-50292000D03*
X25400000Y-89408000D03*
%TO.N,/Text RAM\u002C MUX and Shiftregister1/TA11*%
X49022000Y-64516000D03*
X74930000Y-66040000D03*
X48006000Y-44704000D03*
%TO.N,/V11*%
X124714000Y-75438000D03*
%TO.N,/4M6*%
X154018747Y-107350220D03*
X58021000Y-111759982D03*
X154000000Y-129250000D03*
%TO.N,/Graphic RAM\u002C MUX and Shiftregister/VA7*%
X153641630Y-31000000D03*
%TO.N,Net-(JP1-C)*%
X46228000Y-108682000D03*
%TO.N,Net-(JP2-C)*%
X48768000Y-108682000D03*
%TO.N,Net-(JP4-C)*%
X27432000Y-82295998D03*
%TD*%
D28*
%TO.N,Net-(U24A-Q)*%
X144164998Y-136704998D02*
X142435001Y-138434995D01*
X142435001Y-138434995D02*
X131576995Y-138434995D01*
X131576995Y-138434995D02*
X129297000Y-136155000D01*
X129297000Y-136155000D02*
X107685000Y-136155000D01*
X107685000Y-136155000D02*
X104140000Y-139700000D01*
X104140000Y-139700000D02*
X98679000Y-139700000D01*
%TO.N,/Video*%
X99822000Y-133985000D02*
X101092000Y-135255000D01*
%TO.N,+5V*%
X127411000Y-135705000D02*
X128750000Y-134366000D01*
X103378000Y-137922000D02*
X105595000Y-135705000D01*
X105595000Y-135705000D02*
X127411000Y-135705000D01*
%TO.N,/Video*%
X101092000Y-135255000D02*
X125857000Y-135255000D01*
X125857000Y-135255000D02*
X127254000Y-133858000D01*
%TO.N,Net-(R9-Pad1)*%
X124968000Y-122936000D02*
X124968000Y-124714000D01*
X118491000Y-126619000D02*
X112268000Y-120396000D01*
X124968000Y-124714000D02*
X123063000Y-126619000D01*
X123063000Y-126619000D02*
X118491000Y-126619000D01*
X112268000Y-120396000D02*
X103112370Y-120396000D01*
X103112370Y-120396000D02*
X100953370Y-122555000D01*
X100953370Y-122555000D02*
X99822000Y-122555000D01*
%TO.N,Net-(U12-Pad9)*%
X200914000Y-127254000D02*
X199662000Y-126002000D01*
%TO.N,/Text RAM\u002C MUX and Shiftregister1/~{TRAMWE}*%
X156590000Y-135000000D02*
X152654000Y-131064000D01*
X122554387Y-127577000D02*
X117033676Y-127577000D01*
X98806000Y-127000000D02*
X77089000Y-127000000D01*
X168500000Y-135000000D02*
X156590000Y-135000000D01*
X102870000Y-122936000D02*
X98806000Y-127000000D01*
%TO.N,Net-(U12-Pad9)*%
X163782230Y-126002000D02*
X163041230Y-126743000D01*
%TO.N,/Text RAM\u002C MUX and Shiftregister1/~{TRAMWE}*%
X77089000Y-127000000D02*
X76073000Y-125984000D01*
%TO.N,Net-(U12-Pad9)*%
X123286009Y-127127000D02*
X117220072Y-127127000D01*
X199662000Y-126002000D02*
X163782230Y-126002000D01*
%TO.N,/Text RAM\u002C MUX and Shiftregister1/~{TRAMWE}*%
X152654000Y-131064000D02*
X126041387Y-131064000D01*
X126041387Y-131064000D02*
X122554387Y-127577000D01*
X117033676Y-127577000D02*
X112392676Y-122936000D01*
%TO.N,Net-(U12-Pad9)*%
X117220072Y-127127000D02*
X112579072Y-122486000D01*
%TO.N,/Text RAM\u002C MUX and Shiftregister1/~{TRAMWE}*%
X112392676Y-122936000D02*
X102870000Y-122936000D01*
%TO.N,Net-(U12-Pad9)*%
X163041230Y-126743000D02*
X159507000Y-126743000D01*
X159507000Y-126743000D02*
X155636000Y-130614000D01*
X155636000Y-130614000D02*
X126773009Y-130614000D01*
X126773009Y-130614000D02*
X123286009Y-127127000D01*
X112579072Y-122486000D02*
X102683604Y-122486000D01*
X102683604Y-122486000D02*
X100281604Y-124888000D01*
X100281604Y-124888000D02*
X77745928Y-124888000D01*
X77745928Y-124888000D02*
X75793928Y-122936000D01*
X75793928Y-122936000D02*
X74676000Y-122936000D01*
%TO.N,Net-(JP3-B)*%
X74676000Y-132715000D02*
X76073000Y-131318000D01*
X107188000Y-127254000D02*
X107825324Y-127254000D01*
X76073000Y-131318000D02*
X103124000Y-131318000D01*
X103124000Y-131318000D02*
X107188000Y-127254000D01*
X107825324Y-127254000D02*
X107826324Y-127255000D01*
X107826324Y-127255000D02*
X109089676Y-127255000D01*
X109089676Y-127255000D02*
X109090676Y-127254000D01*
X109090676Y-127254000D02*
X113284000Y-127254000D01*
X113284000Y-127254000D02*
X114300000Y-128270000D01*
X114300000Y-128270000D02*
X122610991Y-128270000D01*
X122610991Y-128270000D02*
X126674991Y-132334000D01*
X126674991Y-132334000D02*
X129286000Y-132334000D01*
%TO.N,/VS*%
X71768000Y-128003000D02*
X85743000Y-128003000D01*
%TO.N,Net-(J9-Pin_4)*%
X76327000Y-128524000D02*
X74676000Y-130175000D01*
%TO.N,/VS*%
X85743000Y-128003000D02*
X85997000Y-127749000D01*
%TO.N,Net-(J9-Pin_4)*%
X89154000Y-128524000D02*
X76327000Y-128524000D01*
%TO.N,/VS*%
X69596000Y-130175000D02*
X71768000Y-128003000D01*
%TO.N,Net-(J9-Pin_4)*%
X93599000Y-127889000D02*
X89789000Y-127889000D01*
X89789000Y-127889000D02*
X89154000Y-128524000D01*
%TO.N,/CSYNC*%
X101473000Y-128651000D02*
X96139000Y-128651000D01*
X91186000Y-128651000D02*
X96139000Y-128651000D01*
X104394000Y-125730000D02*
X101473000Y-128651000D01*
X89662000Y-130175000D02*
X91186000Y-128651000D01*
%TO.N,Net-(U12-Pad8)*%
X77216000Y-122555000D02*
X78867000Y-124206000D01*
X78867000Y-124206000D02*
X90839000Y-124206000D01*
X90839000Y-124206000D02*
X90932000Y-124113000D01*
%TO.N,Net-(U12-Pad10)*%
X73718000Y-124518000D02*
X76739532Y-124518000D01*
X76739532Y-124518000D02*
X77559532Y-125338000D01*
X95955996Y-125719000D02*
X96011996Y-125775000D01*
%TO.N,Net-(U24A-Q)*%
X76553136Y-124968000D02*
X77373136Y-125788000D01*
X63119000Y-125603000D02*
X63754000Y-124968000D01*
X63754000Y-124968000D02*
X76553136Y-124968000D01*
X77373136Y-125788000D02*
X85120412Y-125788000D01*
%TO.N,Net-(U12-Pad10)*%
X85687808Y-125719000D02*
X95955996Y-125719000D01*
X72136000Y-122936000D02*
X73718000Y-124518000D01*
X77559532Y-125338000D02*
X85306808Y-125338000D01*
%TO.N,Net-(U24A-Q)*%
X85882412Y-126550000D02*
X98113000Y-126550000D01*
X98113000Y-126550000D02*
X98552000Y-126111000D01*
%TO.N,Net-(U12-Pad10)*%
X85306808Y-125338000D02*
X85687808Y-125719000D01*
%TO.N,Net-(U24A-Q)*%
X85120412Y-125788000D02*
X85882412Y-126550000D01*
%TO.N,/TEXT*%
X64516000Y-130175000D02*
X67437000Y-127254000D01*
X67437000Y-127254000D02*
X75946000Y-127254000D01*
D29*
%TO.N,GND*%
X106045000Y-134366000D02*
X104902000Y-133223000D01*
X104902000Y-133223000D02*
X103759000Y-132080000D01*
D30*
X102362000Y-133985000D02*
X104140000Y-133985000D01*
X104140000Y-133985000D02*
X104902000Y-133223000D01*
D29*
X117856000Y-134366000D02*
X106045000Y-134366000D01*
X103759000Y-132080000D02*
X99822000Y-132080000D01*
D28*
%TO.N,Net-(U13A-RCext)*%
X86233000Y-135589000D02*
X86185998Y-135636002D01*
X86185998Y-135636002D02*
X67056000Y-135636002D01*
%TO.N,Net-(U13A-Cext)*%
X86233000Y-140589000D02*
X86233000Y-140335000D01*
X86233000Y-140335000D02*
X82398000Y-136500000D01*
X82398000Y-136500000D02*
X69596000Y-136500000D01*
%TO.N,Net-(U13A-RCext)*%
X90678000Y-137922000D02*
X90678000Y-136652000D01*
X86280000Y-135636000D02*
X86233000Y-135589000D01*
X90678000Y-136652000D02*
X89662000Y-135636000D01*
X89662000Y-135636000D02*
X86280000Y-135636000D01*
D29*
%TO.N,GND*%
X60198000Y-134366000D02*
X83693000Y-134366000D01*
X83693000Y-134366000D02*
X84836000Y-133223000D01*
X58674000Y-132842000D02*
X60198000Y-134366000D01*
X85979000Y-132080000D02*
X84836000Y-133223000D01*
X99822000Y-132080000D02*
X85979000Y-132080000D01*
D28*
%TO.N,Net-(Q2-B)*%
X115316000Y-140463860D02*
X113282140Y-138430000D01*
X113282140Y-138430000D02*
X110998000Y-138430000D01*
X115316000Y-142494000D02*
X115316000Y-140463860D01*
X110998000Y-138430000D02*
X109601000Y-139827000D01*
X109601000Y-139827000D02*
X107188000Y-139827000D01*
D30*
%TO.N,GND*%
X78757000Y-101871000D02*
X61485000Y-101871000D01*
D29*
X222551000Y-65786000D02*
X208788000Y-65786000D01*
D28*
X125839000Y-36685000D02*
X128669000Y-36685000D01*
D30*
X116078000Y-33020000D02*
X113538000Y-35560000D01*
X56740082Y-81446000D02*
X46736000Y-81446000D01*
X170610849Y-110265099D02*
X170639948Y-110236000D01*
X46736000Y-81446000D02*
X41744022Y-81446000D01*
X201295000Y-35560000D02*
X199390000Y-35560000D01*
X139954000Y-35560000D02*
X144940000Y-35560000D01*
D28*
X194310000Y-76200000D02*
X195435000Y-75075000D01*
D29*
X162774925Y-125984000D02*
X163573925Y-125185000D01*
D30*
X119634000Y-33020000D02*
X117348000Y-33020000D01*
X87630000Y-102616000D02*
X79502000Y-102616000D01*
D29*
X202692000Y-124968000D02*
X179500000Y-124968000D01*
D28*
X174498000Y-35560000D02*
X174371000Y-35687000D01*
X176530000Y-60960000D02*
X175006000Y-59436000D01*
X157500000Y-26616630D02*
X157500000Y-26175000D01*
X201930000Y-76200000D02*
X203055000Y-75075000D01*
D29*
X199136000Y-65786000D02*
X201676000Y-65786000D01*
D30*
X156839002Y-126544998D02*
X159004000Y-124380000D01*
D28*
X39383012Y-112027012D02*
X35926397Y-112027012D01*
D30*
X86106000Y-104140000D02*
X87630000Y-102616000D01*
X60786000Y-82296000D02*
X57590082Y-82296000D01*
D28*
X156176630Y-43180000D02*
X157250003Y-42106627D01*
D30*
X51562000Y-113284000D02*
X51816000Y-113030000D01*
D29*
X201676000Y-65786000D02*
X208788000Y-65786000D01*
D30*
X61485000Y-101871000D02*
X61468000Y-101854000D01*
X59308998Y-104140000D02*
X58928000Y-104520998D01*
X174498000Y-40640000D02*
X174371000Y-40513000D01*
D28*
X200805000Y-75075000D02*
X201930000Y-76200000D01*
X224155000Y-81915000D02*
X226695000Y-81915000D01*
D30*
X152452998Y-126544998D02*
X156839002Y-126544998D01*
X57590082Y-82296000D02*
X56740082Y-81446000D01*
X122174000Y-35560000D02*
X119634000Y-33020000D01*
D28*
X110998000Y-54864000D02*
X127000000Y-54864000D01*
D29*
X159004000Y-124380000D02*
X160608000Y-125984000D01*
D30*
X124714000Y-35560000D02*
X122174000Y-35560000D01*
X128310000Y-104902000D02*
X128818000Y-105410000D01*
X126492000Y-104902000D02*
X128310000Y-104902000D01*
D28*
X144780000Y-69342000D02*
X156893630Y-69342000D01*
D29*
X174411000Y-22900000D02*
X174371000Y-22860000D01*
D30*
X201295000Y-27940000D02*
X199136000Y-27940000D01*
D28*
X195435000Y-75075000D02*
X200805000Y-75075000D01*
D30*
X81280000Y-63627000D02*
X85471000Y-63627000D01*
D29*
X198628000Y-65786000D02*
X198374000Y-66040000D01*
D30*
X201462000Y-64008000D02*
X201462000Y-65572000D01*
X174498000Y-27940000D02*
X174371000Y-27813000D01*
X179205113Y-132750000D02*
X172750000Y-132750000D01*
D29*
X199136004Y-24764996D02*
X221281996Y-24764996D01*
D30*
X171416630Y-96360000D02*
X178360000Y-96360000D01*
D28*
X90406000Y-82786000D02*
X93236000Y-82786000D01*
D30*
X199390000Y-35560000D02*
X199136000Y-35814000D01*
D28*
X64419452Y-72957713D02*
X58674000Y-72957713D01*
X46482000Y-49022000D02*
X58928000Y-49022000D01*
D30*
X171416630Y-81280000D02*
X177780000Y-81280000D01*
D28*
X65786000Y-59690000D02*
X66040000Y-59436000D01*
D30*
X81221515Y-50975801D02*
X85181194Y-50975801D01*
X66294002Y-39711998D02*
X66294000Y-39712000D01*
X230710000Y-125370000D02*
X229090000Y-123750000D01*
X83907998Y-39711998D02*
X66294002Y-39711998D01*
D29*
X224075000Y-64262000D02*
X222551000Y-65786000D01*
D30*
X89281000Y-81661000D02*
X86233000Y-81661000D01*
D29*
X151892000Y-126398000D02*
X151892000Y-125984000D01*
D28*
X41910000Y-114554000D02*
X39383012Y-112027012D01*
D29*
X42968000Y-137414000D02*
X50292000Y-137414000D01*
X123444000Y-134366000D02*
X117856000Y-134366000D01*
D30*
X176530000Y-27940000D02*
X174498000Y-27940000D01*
X144411626Y-33020000D02*
X144641635Y-33250009D01*
D29*
X125250000Y-132560000D02*
X123444000Y-134366000D01*
D30*
X82296000Y-104140000D02*
X86106000Y-104140000D01*
D29*
X197612000Y-24718000D02*
X199089008Y-24718000D01*
X50292000Y-137414000D02*
X54864000Y-132842000D01*
D28*
X174371000Y-50419000D02*
X174371000Y-50800000D01*
D30*
X206375000Y-123698000D02*
X205105000Y-124968000D01*
X178226000Y-110236000D02*
X178240000Y-110250000D01*
D29*
X199136000Y-65786000D02*
X198628000Y-65786000D01*
D28*
X143844000Y-70278000D02*
X144780000Y-69342000D01*
X107061000Y-58801000D02*
X110998000Y-54864000D01*
D30*
X59690000Y-101854000D02*
X59182000Y-102362000D01*
D29*
X199089008Y-24718000D02*
X199136004Y-24764996D01*
D28*
X189230000Y-76200000D02*
X194310000Y-76200000D01*
X46482000Y-49022000D02*
X45707000Y-49797000D01*
D30*
X79883000Y-76200000D02*
X85852000Y-76200000D01*
D29*
X174371000Y-66040000D02*
X184150000Y-66040000D01*
D28*
X41910000Y-115316000D02*
X41910000Y-114554000D01*
D30*
X201930000Y-53340000D02*
X199136000Y-53340000D01*
D28*
X203055000Y-75075000D02*
X205885000Y-75075000D01*
D29*
X195794000Y-22900000D02*
X174411000Y-22900000D01*
D30*
X41910000Y-115316000D02*
X43942000Y-113284000D01*
D29*
X179283000Y-125185000D02*
X179500000Y-124968000D01*
D30*
X82292964Y-117475000D02*
X82549990Y-117217974D01*
X85181194Y-50975801D02*
X85611000Y-50545995D01*
D28*
X157250000Y-57346630D02*
X157250000Y-56250000D01*
X156176630Y-27940000D02*
X157500000Y-26616630D01*
D29*
X195794000Y-22900000D02*
X197612000Y-24718000D01*
D30*
X125222000Y-32349998D02*
X125401998Y-32170000D01*
X229235000Y-101600000D02*
X231139982Y-101600000D01*
X180164995Y-110250000D02*
X180165001Y-110249994D01*
D28*
X176530000Y-35560000D02*
X174498000Y-35560000D01*
D30*
X152281000Y-100000000D02*
X153475000Y-98806000D01*
D28*
X45707000Y-49797000D02*
X29451000Y-49797000D01*
D30*
X125401998Y-32170000D02*
X134400000Y-32170000D01*
D28*
X205885000Y-75075000D02*
X207010000Y-76200000D01*
D29*
X221281996Y-24764996D02*
X221742000Y-25225000D01*
D30*
X135382000Y-33020000D02*
X144411626Y-33020000D01*
D29*
X42418000Y-136864000D02*
X42968000Y-137414000D01*
D30*
X199263014Y-40640000D02*
X199263007Y-40640007D01*
X171416630Y-66040000D02*
X174371000Y-66040000D01*
X201930000Y-60960000D02*
X199390000Y-60960000D01*
D29*
X184150000Y-66040000D02*
X198374000Y-66040000D01*
D30*
X206375000Y-122555000D02*
X206375000Y-123698000D01*
D28*
X57336713Y-74295000D02*
X58674000Y-72957713D01*
D30*
X113538000Y-35560000D02*
X103124000Y-35560000D01*
D28*
X81171000Y-105265000D02*
X78341000Y-105265000D01*
D30*
X199390000Y-60960000D02*
X199136000Y-60706000D01*
D29*
X160608000Y-125984000D02*
X162774925Y-125984000D01*
D30*
X43942000Y-113284000D02*
X51562000Y-113284000D01*
D28*
X124714000Y-35560000D02*
X125839000Y-36685000D01*
D30*
X174244000Y-35560000D02*
X174371000Y-35687000D01*
D29*
X224075000Y-64262000D02*
X231648006Y-64262000D01*
D28*
X60452000Y-59690000D02*
X65786000Y-59690000D01*
X156176630Y-73660000D02*
X156176630Y-71823370D01*
X89281000Y-81661000D02*
X90406000Y-82786000D01*
D30*
X214884000Y-123750000D02*
X214500000Y-123750000D01*
D29*
X163573925Y-125185000D02*
X179283000Y-125185000D01*
D30*
X41744022Y-81446000D02*
X41402000Y-81788022D01*
D28*
X156176630Y-71823370D02*
X156250000Y-71750000D01*
D30*
X178360000Y-96360000D02*
X178500000Y-96500000D01*
D28*
X176530000Y-48260000D02*
X174371000Y-50419000D01*
X117348000Y-35560000D02*
X117348000Y-33020000D01*
D30*
X229090000Y-123750000D02*
X214884000Y-123750000D01*
D28*
X175006000Y-59436000D02*
X174371000Y-59436000D01*
D30*
X77360000Y-130319000D02*
X82787000Y-130319000D01*
X85471000Y-63627000D02*
X85598000Y-63754000D01*
X66206000Y-39624000D02*
X66294000Y-39712000D01*
X171416630Y-50800000D02*
X174371000Y-50800000D01*
X150030000Y-100000000D02*
X152281000Y-100000000D01*
X82787000Y-130319000D02*
X82804000Y-130302000D01*
X151892000Y-125984000D02*
X152452998Y-126544998D01*
X89281000Y-58801000D02*
X91821000Y-58801000D01*
X171416630Y-35560000D02*
X174244000Y-35560000D01*
D28*
X93236000Y-82786000D02*
X94361000Y-81661000D01*
D30*
X61976000Y-83486000D02*
X60786000Y-82296000D01*
D28*
X128669000Y-36685000D02*
X129794000Y-35560000D01*
D30*
X64516000Y-104140000D02*
X59308998Y-104140000D01*
X213750000Y-123000000D02*
X212250000Y-123000000D01*
D28*
X156893630Y-69342000D02*
X157301630Y-69750000D01*
X59182000Y-58420000D02*
X60452000Y-59690000D01*
D30*
X205105000Y-124968000D02*
X202692000Y-124968000D01*
X177780000Y-81280000D02*
X178250000Y-81750000D01*
X170639948Y-110236000D02*
X178226000Y-110236000D01*
X201930000Y-40640000D02*
X199263014Y-40640000D01*
X79502000Y-102616000D02*
X78757000Y-101871000D01*
X86233000Y-81661000D02*
X85851995Y-82042005D01*
X201930000Y-48260000D02*
X199390000Y-48260000D01*
D28*
X156176630Y-58420000D02*
X157250000Y-57346630D01*
D30*
X199390000Y-48260000D02*
X199136000Y-48514000D01*
X134400000Y-32170000D02*
X135250000Y-33020000D01*
X176530000Y-40640000D02*
X174498000Y-40640000D01*
X214500000Y-123750000D02*
X213750000Y-123000000D01*
X84709000Y-40513000D02*
X83907998Y-39711998D01*
X77216000Y-117475000D02*
X82292964Y-117475000D01*
D29*
X54864000Y-132842000D02*
X58674000Y-132842000D01*
D28*
X82296000Y-104140000D02*
X81171000Y-105265000D01*
X113792000Y-93472000D02*
X117602000Y-97282000D01*
D30*
X176530000Y-53340000D02*
X174498000Y-53340000D01*
D28*
X58928000Y-49022000D02*
X59182000Y-49276000D01*
D30*
X201462000Y-65572000D02*
X201676000Y-65786000D01*
D28*
X49022000Y-74295000D02*
X57336713Y-74295000D01*
X78341000Y-105265000D02*
X77216000Y-104140000D01*
D29*
X151911998Y-126417998D02*
X151892000Y-126398000D01*
D30*
X117348000Y-33020000D02*
X116078000Y-33020000D01*
X174498000Y-53340000D02*
X174371000Y-53213000D01*
D28*
X157250003Y-42106627D02*
X157250003Y-41000003D01*
X29451000Y-49797000D02*
X28702000Y-50546000D01*
D30*
X61468000Y-39624000D02*
X66206000Y-39624000D01*
X61468000Y-101854000D02*
X59690000Y-101854000D01*
X178240000Y-110250000D02*
X180164995Y-110250000D01*
X231394000Y-89408004D02*
X229361996Y-89408004D01*
X231139982Y-101600000D02*
X231394000Y-101854018D01*
X89281000Y-58801000D02*
X85598000Y-58801000D01*
X229235000Y-76200000D02*
X231648000Y-76200000D01*
D28*
X117602000Y-97282000D02*
X126492000Y-97282000D01*
%TO.N,/RX*%
X162907630Y-63246000D02*
X115316000Y-63246000D01*
X115316000Y-63246000D02*
X114808000Y-62738000D01*
X164386630Y-64725000D02*
X162907630Y-63246000D01*
X216625000Y-105500000D02*
X210250000Y-105500000D01*
X216789000Y-105664000D02*
X216625000Y-105500000D01*
X208812503Y-62230000D02*
X184270000Y-62230000D01*
X184270000Y-62230000D02*
X181775000Y-64725000D01*
X181775000Y-64725000D02*
X164386630Y-64725000D01*
X210250002Y-63667499D02*
X208812503Y-62230000D01*
D30*
%TO.N,+5V*%
X182000000Y-83820000D02*
X180069996Y-85750004D01*
X180069996Y-85750004D02*
X169750004Y-85750004D01*
D29*
X97028000Y-112808000D02*
X93218000Y-112808000D01*
D30*
X184150000Y-83820000D02*
X182000000Y-83820000D01*
X194310000Y-35560000D02*
X195510000Y-36760000D01*
D29*
X158710000Y-119674000D02*
X155996000Y-119674000D01*
D30*
X36829998Y-120904000D02*
X34289998Y-118364000D01*
X233250000Y-122583000D02*
X230936000Y-120269000D01*
D29*
X93218000Y-112808000D02*
X85820000Y-112808000D01*
D28*
X27287000Y-44305000D02*
X26162000Y-43180000D01*
X119634000Y-108458000D02*
X127254000Y-108458000D01*
D30*
X191135000Y-106552998D02*
X191135001Y-106552999D01*
X176750000Y-30750000D02*
X175650000Y-31850000D01*
X163000000Y-102630000D02*
X160370000Y-102630000D01*
X146541630Y-25925000D02*
X126729000Y-25925000D01*
D29*
X159004000Y-119380000D02*
X158710000Y-119674000D01*
D30*
X36195000Y-27940000D02*
X27178000Y-27940000D01*
D29*
X213995000Y-81915000D02*
X211455016Y-81915000D01*
D30*
X195510000Y-36760000D02*
X217875000Y-36760000D01*
X213995000Y-93980000D02*
X211455000Y-93980000D01*
X209517501Y-64517501D02*
X209008000Y-64008000D01*
X125250000Y-127500000D02*
X127550000Y-127500000D01*
X211328000Y-68580000D02*
X213995000Y-68580000D01*
X146611642Y-43180006D02*
X146230648Y-43561000D01*
X22635998Y-118080002D02*
X29972000Y-118080002D01*
X146611648Y-43180000D02*
X146611642Y-43180006D01*
D29*
X58420000Y-113792000D02*
X81280000Y-113792000D01*
D30*
X52902000Y-120904000D02*
X36829998Y-120904000D01*
X85303992Y-89448008D02*
X84159984Y-88304000D01*
X25146000Y-29972000D02*
X24130000Y-29972000D01*
X27178000Y-27940000D02*
X25146000Y-29972000D01*
D28*
X140345001Y-137984995D02*
X132368995Y-137984995D01*
D30*
X126729000Y-25925000D02*
X124714000Y-27940000D01*
D28*
X156176630Y-88740000D02*
X154018000Y-88740000D01*
D30*
X22605995Y-66802000D02*
X26035000Y-66802000D01*
D29*
X211328016Y-107188000D02*
X211074016Y-106934000D01*
D28*
X141624998Y-136704998D02*
X140345001Y-137984995D01*
D30*
X230936000Y-120269000D02*
X214082000Y-120269000D01*
X31242000Y-84455000D02*
X22732998Y-84455000D01*
X92202000Y-103632000D02*
X93472000Y-104902000D01*
X103886000Y-54102000D02*
X99568006Y-54102000D01*
X197612000Y-29718000D02*
X196580000Y-30750000D01*
X64096000Y-88304000D02*
X63754000Y-88646000D01*
X186610000Y-68580000D02*
X184150000Y-71040000D01*
D29*
X111506000Y-115570000D02*
X108966000Y-113030000D01*
D30*
X22860004Y-107696000D02*
X22860004Y-107696002D01*
X26670000Y-107696000D02*
X22860004Y-107696000D01*
X96012000Y-89662000D02*
X93472000Y-89662000D01*
D29*
X186612000Y-106550000D02*
X186869000Y-106807000D01*
D30*
X147741630Y-31850000D02*
X146391630Y-30500000D01*
X63500000Y-56007000D02*
X61650000Y-56007000D01*
X22859999Y-87122000D02*
X22605999Y-87376000D01*
D29*
X107950000Y-113030000D02*
X105664000Y-115316000D01*
D30*
X211328000Y-68580000D02*
X211328000Y-69596010D01*
D28*
X77216000Y-132715000D02*
X79756000Y-132715000D01*
D29*
X135128000Y-113284000D02*
X143510000Y-113284000D01*
D30*
X127550000Y-127500000D02*
X128750000Y-126300000D01*
X22860004Y-107696002D02*
X22606000Y-107950006D01*
D28*
X80933003Y-122555000D02*
X80806003Y-122428000D01*
D30*
X148556630Y-27940000D02*
X146541630Y-25925000D01*
D28*
X158716630Y-88740000D02*
X156176630Y-88740000D01*
X123952000Y-28702000D02*
X117348000Y-28702000D01*
D30*
X30001998Y-118110000D02*
X29972000Y-118080002D01*
X145715630Y-81661000D02*
X137541000Y-81661000D01*
D28*
X127254000Y-27940000D02*
X124714000Y-27940000D01*
X142664996Y-117250000D02*
X138045000Y-117250000D01*
D30*
X191135000Y-114935000D02*
X188213994Y-114935000D01*
X93258008Y-89448008D02*
X85303992Y-89448008D01*
D29*
X183134000Y-106550000D02*
X186612000Y-106550000D01*
D30*
X217875000Y-36760000D02*
X219075000Y-35560000D01*
D28*
X132368995Y-137984995D02*
X128750000Y-134366000D01*
X124714000Y-27940000D02*
X123952000Y-28702000D01*
X69596000Y-140335000D02*
X67056000Y-140335000D01*
D30*
X214082000Y-120269000D02*
X212250000Y-118437000D01*
X26162000Y-87122000D02*
X22859999Y-87122000D01*
X146230648Y-43561000D02*
X137541000Y-43561000D01*
X99568006Y-54102000D02*
X99568003Y-54102003D01*
X26162000Y-74295000D02*
X22732995Y-74295000D01*
D29*
X155996000Y-119674000D02*
X149606000Y-113284000D01*
D28*
X136544998Y-115749998D02*
X134004998Y-115749998D01*
D30*
X211455000Y-93980000D02*
X211328000Y-93853000D01*
D29*
X191516002Y-106934000D02*
X191135001Y-106552999D01*
D30*
X34035998Y-118110000D02*
X30001998Y-118110000D01*
X89662000Y-103632000D02*
X92202000Y-103632000D01*
D29*
X191008002Y-106426000D02*
X187250000Y-106426000D01*
D28*
X109601000Y-58801000D02*
X112522000Y-55880000D01*
D30*
X95504000Y-60198000D02*
X93218000Y-60198000D01*
X175650000Y-31850000D02*
X147741630Y-31850000D01*
X191135000Y-101092000D02*
X191135000Y-106552998D01*
X55245000Y-122555000D02*
X54864000Y-122936000D01*
X36195000Y-27940000D02*
X39809796Y-31554796D01*
D29*
X135128000Y-113284000D02*
X135091000Y-113247000D01*
D30*
X148556630Y-43180000D02*
X146611630Y-43180000D01*
D29*
X105664000Y-115316000D02*
X99536000Y-115316000D01*
D30*
X160370000Y-102630000D02*
X159750000Y-103250000D01*
X146391630Y-30500000D02*
X145000000Y-30500000D01*
X39809796Y-31554796D02*
X80341977Y-31554796D01*
D29*
X99536000Y-115316000D02*
X97028000Y-112808000D01*
D28*
X144164998Y-115749998D02*
X142664996Y-117250000D01*
X117856000Y-110236000D02*
X119634000Y-108458000D01*
X112522000Y-55880000D02*
X128016000Y-55880000D01*
D30*
X160044000Y-119380000D02*
X159004000Y-119380000D01*
X26162000Y-102362000D02*
X22859999Y-102362000D01*
X209008000Y-64008000D02*
X206462000Y-64008000D01*
X146441630Y-82387000D02*
X145715630Y-81661000D01*
D29*
X118364000Y-115570000D02*
X111506000Y-115570000D01*
D30*
X218819499Y-64517501D02*
X209517501Y-64517501D01*
X26035000Y-43180000D02*
X22352000Y-43180000D01*
D29*
X160449990Y-106550000D02*
X160449990Y-106449990D01*
X160449990Y-106449990D02*
X159750000Y-105750000D01*
X84328000Y-113792000D02*
X81280000Y-113792000D01*
D30*
X188213994Y-114935000D02*
X187264496Y-113985502D01*
X162750000Y-114630000D02*
X162750000Y-116674000D01*
D29*
X120687000Y-113247000D02*
X118364000Y-115570000D01*
D30*
X22859999Y-102362000D02*
X22605999Y-102616000D01*
D29*
X211455016Y-81915000D02*
X211328000Y-81787984D01*
D30*
X22606000Y-118110000D02*
X22635998Y-118080002D01*
D28*
X84582000Y-122555000D02*
X80933003Y-122555000D01*
X64516000Y-96520000D02*
X62230000Y-96520000D01*
D30*
X233250000Y-125370000D02*
X233250000Y-122583000D01*
X34289998Y-118364000D02*
X34035998Y-118110000D01*
D29*
X135091000Y-113247000D02*
X120687000Y-113247000D01*
D28*
X30117000Y-44305000D02*
X27287000Y-44305000D01*
X127254000Y-108458000D02*
X129032000Y-110236000D01*
D30*
X96901000Y-58801000D02*
X99441000Y-58801000D01*
X22732998Y-84455000D02*
X22605999Y-84581999D01*
X162750000Y-116674000D02*
X160044000Y-119380000D01*
D28*
X216535000Y-101600000D02*
X213995000Y-101600000D01*
D29*
X183134000Y-106550000D02*
X160449990Y-106550000D01*
X211074016Y-106934000D02*
X191516002Y-106934000D01*
X108458000Y-113030000D02*
X107950000Y-113030000D01*
D30*
X96901000Y-58801000D02*
X95504000Y-60198000D01*
D28*
X31242000Y-43180000D02*
X30117000Y-44305000D01*
X211709000Y-101600000D02*
X211328000Y-101981000D01*
D29*
X187250000Y-106426000D02*
X186869000Y-106807000D01*
D30*
X148556630Y-43180000D02*
X146611648Y-43180000D01*
D29*
X149606000Y-113284000D02*
X143510000Y-113284000D01*
D30*
X189230000Y-68580000D02*
X186610000Y-68580000D01*
X84159984Y-88304000D02*
X64096000Y-88304000D01*
D29*
X84582000Y-114046000D02*
X84328000Y-113792000D01*
X108966000Y-113030000D02*
X108458000Y-113030000D01*
D30*
X196580000Y-30750000D02*
X176750000Y-30750000D01*
X29942000Y-118110000D02*
X29972000Y-118080000D01*
X22732995Y-74295000D02*
X22605995Y-74168000D01*
X53156000Y-120650000D02*
X52902000Y-120904000D01*
X169750004Y-85750004D02*
X169750000Y-85750000D01*
D29*
X85820000Y-112808000D02*
X84582000Y-114046000D01*
X54356000Y-109728000D02*
X58420000Y-113792000D01*
D30*
X61976000Y-122555000D02*
X55245000Y-122555000D01*
D28*
X138045000Y-117250000D02*
X136544998Y-115749998D01*
D30*
X28702000Y-87122000D02*
X26162000Y-87122000D01*
D29*
X191135001Y-106552999D02*
X191008002Y-106426000D01*
D30*
X207010000Y-68580000D02*
X211328000Y-68580000D01*
D28*
X213995000Y-101600000D02*
X211709000Y-101600000D01*
%TO.N,/~{INVERT}*%
X50038000Y-110744000D02*
X52636000Y-108146000D01*
X82861412Y-73001000D02*
X74017000Y-73001000D01*
X90678000Y-74168000D02*
X89916000Y-73406000D01*
X36830000Y-107696000D02*
X39878000Y-110744000D01*
X91186000Y-51054000D02*
X90424000Y-51816000D01*
X74017000Y-73001000D02*
X73406000Y-72390000D01*
X39878000Y-110744000D02*
X50038000Y-110744000D01*
X72771000Y-93853000D02*
X68453004Y-93853000D01*
X52636000Y-108146000D02*
X67945430Y-108146000D01*
X67945430Y-108146000D02*
X68382430Y-107709000D01*
X89916000Y-73406000D02*
X83266412Y-73406000D01*
X68453004Y-93853000D02*
X68326000Y-93980004D01*
X83266412Y-73406000D02*
X82861412Y-73001000D01*
X116332000Y-51054000D02*
X91186000Y-51054000D01*
%TO.N,/TX*%
X117365000Y-62475000D02*
X117414000Y-62426000D01*
X179975000Y-64275000D02*
X181000000Y-63250000D01*
X219329000Y-105537000D02*
X232283000Y-105537000D01*
X232790998Y-79248000D02*
X180752000Y-79248000D01*
X164166614Y-62426000D02*
X166015614Y-64275000D01*
X117414000Y-62426000D02*
X164166614Y-62426000D01*
X180752000Y-79248000D02*
X180250000Y-79750000D01*
X166015614Y-64275000D02*
X179975000Y-64275000D01*
X232283000Y-105537000D02*
X232664000Y-105156000D01*
%TO.N,/E*%
X137864518Y-70358000D02*
X138245766Y-69976752D01*
X215138000Y-67183000D02*
X183567004Y-67183000D01*
X143245000Y-105255000D02*
X135989000Y-105255000D01*
X61976000Y-119888000D02*
X59436000Y-117348000D01*
X132553524Y-70358002D02*
X112522002Y-70358002D01*
X108458000Y-59944000D02*
X109418000Y-60904000D01*
X102062396Y-119046000D02*
X101220396Y-119888000D01*
X100584000Y-59944000D02*
X108458000Y-59944000D01*
X132743768Y-70358000D02*
X137864518Y-70358000D01*
X100576000Y-56642000D02*
X89153996Y-56642000D01*
X144370000Y-104130000D02*
X143245000Y-105255000D01*
X141611019Y-119589000D02*
X138410996Y-119589000D01*
X200152000Y-95885000D02*
X186817000Y-95885000D01*
X186817000Y-95885000D02*
X183515000Y-92583000D01*
X181950004Y-68800000D02*
X139422518Y-68800000D01*
X138410996Y-119589000D02*
X137973996Y-120026000D01*
X137973996Y-120026000D02*
X119649188Y-120026000D01*
X101220396Y-119888000D02*
X61976000Y-119888000D01*
X182250004Y-68500000D02*
X181950004Y-68800000D01*
X135989000Y-105255000D02*
X134112000Y-103378000D01*
X112522002Y-70358002D02*
X112014000Y-69850000D01*
X139422518Y-68800000D02*
X138245766Y-69976752D01*
X183567004Y-67183000D02*
X182250004Y-68500000D01*
X118669188Y-119046000D02*
X102062396Y-119046000D01*
X132648647Y-70262879D02*
X132553524Y-70358002D01*
X216535000Y-68580000D02*
X215138000Y-67183000D01*
X119649188Y-120026000D02*
X118669188Y-119046000D01*
X132648647Y-70262879D02*
X132743768Y-70358000D01*
X183515000Y-92583000D02*
X180250000Y-92583000D01*
%TO.N,/A3*%
X108712000Y-100838006D02*
X103712010Y-100838006D01*
X161256630Y-35560000D02*
X160041630Y-36775000D01*
X83138016Y-101346000D02*
X81868016Y-100076000D01*
X81868016Y-100076000D02*
X76962000Y-100076000D01*
X103712010Y-100838006D02*
X103204016Y-101346000D01*
X91948000Y-37338000D02*
X140404586Y-37338000D01*
X89299000Y-26815000D02*
X75470016Y-26815000D01*
X160041630Y-36775000D02*
X140967586Y-36775000D01*
X103204016Y-101346000D02*
X83138016Y-101346000D01*
X90424000Y-27940000D02*
X89299000Y-26815000D01*
X140967586Y-36775000D02*
X140404586Y-37338000D01*
X75470016Y-26815000D02*
X74550209Y-27734807D01*
%TO.N,/D3*%
X123939000Y-87109000D02*
X126492000Y-89662000D01*
X128778000Y-87376000D02*
X151810396Y-87376000D01*
X56515000Y-27940000D02*
X59640000Y-24815000D01*
X181807403Y-85395013D02*
X195274987Y-85395013D01*
X180202416Y-87000000D02*
X181807403Y-85395013D01*
X115824000Y-87630000D02*
X116345000Y-87109000D01*
X195274987Y-85395013D02*
X196850000Y-83820000D01*
X126492000Y-89662000D02*
X128778000Y-87376000D01*
X88574290Y-24815000D02*
X88815290Y-25056000D01*
X152186396Y-87000000D02*
X180202416Y-87000000D01*
X116345000Y-87109000D02*
X123939000Y-87109000D01*
X59640000Y-24815000D02*
X88574290Y-24815000D01*
X151810396Y-87376000D02*
X152186396Y-87000000D01*
%TO.N,/D4*%
X148140991Y-91440000D02*
X147505991Y-90805000D01*
X147505991Y-90805000D02*
X131826000Y-90805000D01*
X90828990Y-24281000D02*
X91440000Y-24892010D01*
X131445000Y-90424000D02*
X130302000Y-90424000D01*
X149283000Y-91255000D02*
X149098000Y-91440000D01*
X149098000Y-91440000D02*
X148140991Y-91440000D01*
X123952000Y-89662000D02*
X122174000Y-87884000D01*
X57634000Y-24281000D02*
X90828990Y-24281000D01*
X130302000Y-90424000D02*
X129794000Y-90932000D01*
X125222000Y-90932000D02*
X123952000Y-89662000D01*
X163068396Y-90932000D02*
X151891072Y-90932000D01*
X181457813Y-86380999D02*
X176790812Y-91048000D01*
X53975000Y-27940000D02*
X57634000Y-24281000D01*
X131826000Y-90805000D02*
X131445000Y-90424000D01*
X129794000Y-90932000D02*
X125222000Y-90932000D01*
X151568072Y-91255000D02*
X149283000Y-91255000D01*
X122174000Y-87884000D02*
X120142000Y-87884000D01*
X163184396Y-91048000D02*
X163068396Y-90932000D01*
X176790812Y-91048000D02*
X163184396Y-91048000D01*
X196829001Y-86380999D02*
X181457813Y-86380999D01*
X199390000Y-83820000D02*
X196829001Y-86380999D01*
X151891072Y-90932000D02*
X151568072Y-91255000D01*
%TO.N,/A4*%
X65931000Y-67582000D02*
X60688000Y-67582000D01*
X91903000Y-23831000D02*
X50336996Y-23831000D01*
X67056000Y-68707000D02*
X65931000Y-67582000D01*
X60688000Y-67582000D02*
X59547550Y-68722450D01*
X92963995Y-24891995D02*
X91903000Y-23831000D01*
X171416630Y-27940000D02*
X168368625Y-24891995D01*
X93472000Y-25400000D02*
X92963995Y-24891995D01*
X168368625Y-24891995D02*
X118698021Y-24891995D01*
X50336996Y-23831000D02*
X48767998Y-25399998D01*
X59547550Y-68722450D02*
X56423431Y-68722450D01*
X118190016Y-25400000D02*
X93472000Y-25400000D01*
X56423431Y-68722450D02*
X55762000Y-68061019D01*
X67055992Y-73405992D02*
X67818000Y-74168000D01*
X118698021Y-24891995D02*
X118190016Y-25400000D01*
X67818000Y-74168000D02*
X81533994Y-74168000D01*
X88391990Y-99821990D02*
X87122000Y-98552000D01*
X81533994Y-74168000D02*
X82295994Y-74930000D01*
X106172000Y-99821990D02*
X88391990Y-99821990D01*
%TO.N,/A0*%
X120650000Y-32258000D02*
X122174000Y-33782000D01*
X115824000Y-32258000D02*
X120650000Y-32258000D01*
X81663000Y-33550000D02*
X67034000Y-33550000D01*
X110917984Y-97790000D02*
X104821984Y-91694000D01*
X151096630Y-35560000D02*
X149572630Y-34036000D01*
X85598000Y-91694000D02*
X83565994Y-89661994D01*
X104821984Y-91694000D02*
X85598000Y-91694000D01*
X122174000Y-33782000D02*
X128524000Y-33782000D01*
X67034000Y-33550000D02*
X65786000Y-34798000D01*
X81788000Y-33425000D02*
X81663000Y-33550000D01*
X81788000Y-33425000D02*
X82399000Y-34036000D01*
X114299992Y-97790000D02*
X110917984Y-97790000D01*
X149572630Y-34036000D02*
X128778000Y-34036000D01*
X83565994Y-89661994D02*
X72136000Y-89661994D01*
X128778000Y-34036000D02*
X128524000Y-33782000D01*
X114046000Y-34036000D02*
X115824000Y-32258000D01*
X82399000Y-34036000D02*
X114046000Y-34036000D01*
%TO.N,/D0*%
X47210016Y-30239000D02*
X85944591Y-30239000D01*
X43040000Y-29705000D02*
X46676016Y-29705000D01*
X46676016Y-29705000D02*
X47210016Y-30239000D01*
X41275000Y-27940000D02*
X43040000Y-29705000D01*
%TO.N,/D5*%
X125255000Y-93505000D02*
X121412000Y-89662000D01*
X52959000Y-29464000D02*
X95250000Y-29464000D01*
X201930000Y-83820000D02*
X198919001Y-86830999D01*
X161222396Y-91636000D02*
X159190396Y-91636000D01*
X52959000Y-29464000D02*
X51435000Y-27940000D01*
X155851046Y-91890000D02*
X154236046Y-93505000D01*
X154236046Y-93505000D02*
X125255000Y-93505000D01*
X158936396Y-91890000D02*
X155851046Y-91890000D01*
X181644209Y-86830999D02*
X176906812Y-91568396D01*
X161290000Y-91568396D02*
X161222396Y-91636000D01*
X176906812Y-91568396D02*
X161290000Y-91568396D01*
X95250000Y-29464000D02*
X95504000Y-29718000D01*
X159190396Y-91636000D02*
X158936396Y-91890000D01*
X198919001Y-86830999D02*
X181644209Y-86830999D01*
%TO.N,/A5*%
X103632004Y-101979000D02*
X104269004Y-102616000D01*
X107695986Y-42418014D02*
X84283000Y-42418014D01*
X141804332Y-38750000D02*
X111364000Y-38750000D01*
X155951632Y-38224998D02*
X142329334Y-38224998D01*
X156176630Y-38000000D02*
X155951632Y-38224998D01*
X108204000Y-41910000D02*
X107695986Y-42418014D01*
X142253000Y-38301332D02*
X141804332Y-38750000D01*
X104269004Y-102616000D02*
X143764000Y-102616000D01*
X76200000Y-53594000D02*
X82869376Y-53594000D01*
X111364000Y-38750000D02*
X108204000Y-41910000D01*
X82869376Y-53594000D02*
X83885376Y-52578000D01*
X142329334Y-38224998D02*
X142253000Y-38301332D01*
%TO.N,/A6*%
X96469000Y-26365000D02*
X73965004Y-26365000D01*
X73965004Y-26365000D02*
X73914002Y-26416002D01*
X147578630Y-29375000D02*
X148228631Y-30025001D01*
X166249999Y-30025001D02*
X166250000Y-30025000D01*
X70104000Y-85852000D02*
X84330792Y-85852000D01*
X86546508Y-100584000D02*
X86373000Y-100410492D01*
X148228631Y-30025001D02*
X166249999Y-30025001D01*
X127343000Y-29375000D02*
X147578630Y-29375000D01*
X101346000Y-100584000D02*
X86546508Y-100584000D01*
X117284000Y-30988000D02*
X125730000Y-30988000D01*
X98044000Y-27940000D02*
X99684000Y-26300000D01*
X98044000Y-27940000D02*
X96469000Y-26365000D01*
X112596000Y-26300000D02*
X117284000Y-30988000D01*
X125730000Y-30988000D02*
X127343000Y-29375000D01*
X99684000Y-26300000D02*
X112596000Y-26300000D01*
X84330792Y-85852000D02*
X84710396Y-86231604D01*
%TO.N,/D6*%
X49148978Y-32512012D02*
X48895000Y-32765990D01*
X119821009Y-89662000D02*
X122869009Y-92710000D01*
X80897592Y-32512012D02*
X49148978Y-32512012D01*
X155217442Y-93160000D02*
X154342801Y-94034641D01*
X124260641Y-94034641D02*
X122936000Y-92710000D01*
X97340000Y-32062000D02*
X81347604Y-32062000D01*
X98044000Y-32766000D02*
X97340000Y-32062000D01*
X122869009Y-92710000D02*
X122936000Y-92710000D01*
X181830605Y-87280999D02*
X175951604Y-93160000D01*
X154342801Y-94034641D02*
X124260641Y-94034641D01*
X175951604Y-93160000D02*
X155217442Y-93160000D01*
X204470000Y-83820000D02*
X201009001Y-87280999D01*
X118872000Y-89662000D02*
X119821009Y-89662000D01*
X201009001Y-87280999D02*
X181830605Y-87280999D01*
X81347604Y-32062000D02*
X80897592Y-32512012D01*
%TO.N,/D7*%
X155403838Y-93610000D02*
X154297838Y-94716000D01*
X182017001Y-87730999D02*
X176138000Y-93610000D01*
X207010000Y-83820000D02*
X203099001Y-87730999D01*
X203099001Y-87730999D02*
X182017001Y-87730999D01*
X119126000Y-94996000D02*
X126965096Y-94996000D01*
X176138000Y-93610000D02*
X155403838Y-93610000D01*
X127245096Y-94716000D02*
X127000000Y-94961096D01*
X80871197Y-30988000D02*
X80617197Y-30734000D01*
X80617197Y-30734000D02*
X46228000Y-30734000D01*
X154297838Y-94716000D02*
X127245096Y-94716000D01*
X116332000Y-92202000D02*
X119126000Y-94996000D01*
X126965096Y-94996000D02*
X127000000Y-94961096D01*
X100330000Y-30988000D02*
X80871197Y-30988000D01*
%TO.N,/A7*%
X112268000Y-26750000D02*
X117142998Y-31624998D01*
X138131000Y-49067000D02*
X137540999Y-49657001D01*
X100584000Y-27940000D02*
X101774000Y-26750000D01*
X151096630Y-50800000D02*
X149363630Y-49067000D01*
X136398000Y-95758000D02*
X136144000Y-95504000D01*
X98333019Y-49067000D02*
X98111017Y-49289002D01*
X137540999Y-49657001D02*
X136950998Y-49067000D01*
X67325316Y-49632000D02*
X65981515Y-50975801D01*
X136950998Y-49067000D02*
X98333019Y-49067000D01*
X74822000Y-48826000D02*
X74016000Y-49632000D01*
X101774000Y-26750000D02*
X112268000Y-26750000D01*
X98111017Y-49289002D02*
X88533398Y-49289002D01*
X88533398Y-49289002D02*
X88070396Y-48826000D01*
X117142998Y-31624998D02*
X138558998Y-31624998D01*
X149363630Y-49067000D02*
X138131000Y-49067000D01*
X138558998Y-31624998D02*
X138684000Y-31750000D01*
X98552000Y-104902000D02*
X100076000Y-103378000D01*
X88070396Y-48826000D02*
X74822000Y-48826000D01*
X74016000Y-49632000D02*
X67325316Y-49632000D01*
X100076000Y-103378000D02*
X128778000Y-103378000D01*
X136144000Y-95504000D02*
X129539996Y-95504000D01*
%TO.N,/A1*%
X103252396Y-94996000D02*
X90678000Y-94996000D01*
X86452000Y-64757000D02*
X86648000Y-64561000D01*
X158658630Y-25342000D02*
X118884412Y-25342000D01*
X67170000Y-64757000D02*
X86452000Y-64757000D01*
X113751990Y-99100006D02*
X107356402Y-99100006D01*
X85604002Y-25850000D02*
X85344000Y-25589998D01*
X66040000Y-63627000D02*
X67170000Y-64757000D01*
X118376412Y-25850000D02*
X85604002Y-25850000D01*
X118884412Y-25342000D02*
X118376412Y-25850000D01*
X161256630Y-27940000D02*
X158658630Y-25342000D01*
X107356402Y-99100006D02*
X103252396Y-94996000D01*
%TO.N,/D1*%
X66719208Y-33100000D02*
X66291208Y-33528000D01*
X84582000Y-32512000D02*
X81534000Y-32512000D01*
X120140000Y-91186000D02*
X112522000Y-91186000D01*
X85344000Y-33274000D02*
X84582000Y-32512000D01*
X81534000Y-32512000D02*
X80946000Y-33100000D01*
X44450000Y-33528000D02*
X43815006Y-32893006D01*
X80946000Y-33100000D02*
X66719208Y-33100000D01*
X66291208Y-33528000D02*
X44450000Y-33528000D01*
%TO.N,/D2*%
X193184987Y-84945013D02*
X181621007Y-84945013D01*
X194310000Y-83820000D02*
X193184987Y-84945013D01*
X77432001Y-28739999D02*
X78486000Y-27686000D01*
X87884000Y-35560000D02*
X86654008Y-36789992D01*
X181621007Y-84945013D02*
X180066020Y-86500000D01*
X59854999Y-28739999D02*
X77432001Y-28739999D01*
X86654008Y-36789992D02*
X79034008Y-36789992D01*
X152050000Y-86500000D02*
X151949000Y-86601000D01*
X180066020Y-86500000D02*
X152050000Y-86500000D01*
X114554000Y-86601000D02*
X127762000Y-86601000D01*
X59055000Y-27940000D02*
X59854999Y-28739999D01*
X151949000Y-86601000D02*
X127762000Y-86601000D01*
%TO.N,/A2*%
X106159000Y-91173000D02*
X88125000Y-91173000D01*
X141153982Y-37225000D02*
X140211966Y-38167016D01*
X85607950Y-38862000D02*
X81788008Y-38862000D01*
X88125000Y-91173000D02*
X87376000Y-90424000D01*
X92709994Y-40132006D02*
X91948000Y-40894000D01*
X87639950Y-40894000D02*
X85607950Y-38862000D01*
X91948000Y-40894000D02*
X87639950Y-40894000D01*
X105423000Y-38167016D02*
X103458010Y-40132006D01*
X140211966Y-38167016D02*
X105423000Y-38167016D01*
X103458010Y-40132006D02*
X92709994Y-40132006D01*
X83412649Y-71120000D02*
X74676000Y-71120000D01*
X166336630Y-35560000D02*
X164671630Y-37225000D01*
X164671630Y-37225000D02*
X141153982Y-37225000D01*
X83553002Y-71260353D02*
X83412649Y-71120000D01*
X110998000Y-96012000D02*
X106159000Y-91173000D01*
%TO.N,/A12*%
X139512299Y-46802299D02*
X138938000Y-46228000D01*
X96012000Y-104902000D02*
X97689000Y-106579000D01*
X128350016Y-46228000D02*
X127484508Y-45362492D01*
X131075016Y-91255000D02*
X130850008Y-91480008D01*
X136205000Y-91255000D02*
X131075016Y-91255000D01*
X131064000Y-104902000D02*
X131064000Y-104648000D01*
X137330000Y-92380000D02*
X136205000Y-91255000D01*
X138938000Y-46228000D02*
X128350016Y-46228000D01*
X97689000Y-106579000D02*
X129387000Y-106579000D01*
X156206283Y-46802299D02*
X139512299Y-46802299D01*
X129387000Y-106579000D02*
X131064000Y-104902000D01*
%TO.N,/A13*%
X154903984Y-41500000D02*
X142000000Y-41500000D01*
X156428984Y-39975000D02*
X154903984Y-41500000D01*
X163131630Y-39975000D02*
X156428984Y-39975000D01*
X131982000Y-41500000D02*
X142000000Y-41500000D01*
X129921000Y-43561000D02*
X131982000Y-41500000D01*
X166336630Y-43180000D02*
X163131630Y-39975000D01*
%TO.N,/~{CEROM}*%
X114808000Y-92456000D02*
X118885000Y-96533000D01*
X111506000Y-92456000D02*
X114808000Y-92456000D01*
X137761016Y-95491000D02*
X147066000Y-95491000D01*
X136719016Y-96533000D02*
X137761016Y-95491000D01*
X108712000Y-89662000D02*
X111506000Y-92456000D01*
X118885000Y-96533000D02*
X136719016Y-96533000D01*
%TO.N,/CLK18M*%
X151704676Y-90482000D02*
X151507676Y-90679000D01*
X139000000Y-133750000D02*
X151000000Y-133750000D01*
X159514630Y-90482000D02*
X151704676Y-90482000D01*
X151000000Y-133750000D02*
X151250000Y-134000000D01*
X167751630Y-87615000D02*
X162381630Y-87615000D01*
X162381630Y-87615000D02*
X161256630Y-88740000D01*
X168876630Y-88740000D02*
X167751630Y-87615000D01*
X151507676Y-90679000D02*
X148806000Y-90679000D01*
X148806000Y-90679000D02*
X148805000Y-90678000D01*
X161256630Y-88740000D02*
X159514630Y-90482000D01*
%TO.N,/A15*%
X135776000Y-50813000D02*
X135001000Y-50038000D01*
X152467604Y-97340000D02*
X155043604Y-94764000D01*
X149419604Y-97340000D02*
X152467604Y-97340000D01*
X145611642Y-50750000D02*
X145548642Y-50813000D01*
X176026000Y-63250000D02*
X179500000Y-63250000D01*
X148657604Y-98102000D02*
X149419604Y-97340000D01*
X145548642Y-50813000D02*
X135776000Y-50813000D01*
X173682578Y-60906578D02*
X176026000Y-63250000D01*
X145391630Y-60906578D02*
X173682578Y-60906578D01*
X155043604Y-94764000D02*
X179394996Y-94764000D01*
X179394996Y-94764000D02*
X179500000Y-94869004D01*
X139228000Y-98102000D02*
X148657604Y-98102000D01*
X137330000Y-100000000D02*
X139228000Y-98102000D01*
%TO.N,/A14*%
X132461000Y-43561000D02*
X133591000Y-44691000D01*
X134790000Y-100000000D02*
X137768500Y-97021500D01*
X133591000Y-44691000D02*
X142441000Y-44691000D01*
X142441000Y-44691000D02*
X142500000Y-44750000D01*
X137768500Y-97021500D02*
X142741500Y-97021500D01*
%TO.N,/A10*%
X132289000Y-52025000D02*
X130769992Y-50505992D01*
X87763008Y-87629997D02*
X87723000Y-87589989D01*
X83820000Y-45212000D02*
X84328000Y-45720000D01*
X160031630Y-52025000D02*
X132289000Y-52025000D01*
X161256630Y-50800000D02*
X160031630Y-52025000D01*
X124823326Y-50505992D02*
X124796318Y-50533000D01*
X84466000Y-45858000D02*
X84328000Y-45720000D01*
X120004000Y-45858000D02*
X115434792Y-45858000D01*
X109219997Y-87629997D02*
X87763008Y-87629997D01*
X68521515Y-43355801D02*
X70377714Y-45212000D01*
X70377714Y-45212000D02*
X83820000Y-45212000D01*
X111252000Y-89662000D02*
X109219997Y-87629997D01*
X130769992Y-50505992D02*
X124823326Y-50505992D01*
X113966792Y-47326000D02*
X103378588Y-47326000D01*
X103378588Y-47326000D02*
X101910588Y-45858000D01*
X101910588Y-45858000D02*
X84466000Y-45858000D01*
X122301000Y-43561000D02*
X120004000Y-45858000D01*
X115434792Y-45858000D02*
X113966792Y-47326000D01*
%TO.N,/A11*%
X155260000Y-107000000D02*
X154432000Y-106172000D01*
X160750000Y-108750000D02*
X159000000Y-107000000D01*
X154121016Y-40742588D02*
X155338604Y-39525000D01*
X174750000Y-108750000D02*
X160750000Y-108750000D01*
X106172000Y-89662000D02*
X105047000Y-88537000D01*
X124841000Y-43561000D02*
X127659412Y-40742588D01*
X127659412Y-40742588D02*
X154121016Y-40742588D01*
X105047000Y-88537000D02*
X86215000Y-88537000D01*
X86215000Y-88537000D02*
X84799996Y-87121996D01*
X170191630Y-39525000D02*
X171416630Y-40750000D01*
X154432000Y-106172000D02*
X139328000Y-106172000D01*
X138146000Y-107354000D02*
X107297000Y-107354000D01*
X155338604Y-39525000D02*
X170191630Y-39525000D01*
X139328000Y-106172000D02*
X138146000Y-107354000D01*
X159000000Y-107000000D02*
X155260000Y-107000000D01*
X84799996Y-87121996D02*
X72136000Y-87121996D01*
%TO.N,/A9*%
X105664000Y-73759000D02*
X107597000Y-73759000D01*
X123161188Y-74168000D02*
X134112000Y-74168000D01*
X164050630Y-48514000D02*
X134366000Y-48514000D01*
X107597000Y-73759000D02*
X108886000Y-72470000D01*
X87572000Y-45408000D02*
X86868000Y-44704000D01*
X113780396Y-46876000D02*
X103564984Y-46876000D01*
X121463188Y-72470000D02*
X123161188Y-74168000D01*
X166336630Y-50800000D02*
X164050630Y-48514000D01*
X115248396Y-45408000D02*
X113780396Y-46876000D01*
X86868000Y-44704000D02*
X77489714Y-44704000D01*
X108886000Y-72470000D02*
X121463188Y-72470000D01*
X134366000Y-48514000D02*
X133576995Y-47724995D01*
X77489714Y-44704000D02*
X76141515Y-43355801D01*
X117914000Y-45408000D02*
X115248396Y-45408000D01*
X103564984Y-46876000D02*
X102096984Y-45408000D01*
X119761000Y-43561000D02*
X117914000Y-45408000D01*
X133549990Y-47752000D02*
X133576995Y-47724995D01*
X120142000Y-47752000D02*
X133549990Y-47752000D01*
X102096984Y-45408000D02*
X87572000Y-45408000D01*
%TO.N,/A8*%
X73792500Y-46603500D02*
X73660000Y-46736000D01*
X78947016Y-47625000D02*
X77925516Y-46603500D01*
X137133003Y-46736000D02*
X117348000Y-46736000D01*
X116308000Y-47776000D02*
X103192192Y-47776000D01*
X161151627Y-46749987D02*
X160324315Y-47577299D01*
X98044000Y-47014000D02*
X97433000Y-47625000D01*
X117348000Y-46736000D02*
X116308000Y-47776000D01*
X97433000Y-47625000D02*
X78947016Y-47625000D01*
X137974302Y-47577299D02*
X160324315Y-47577299D01*
X137974302Y-47577299D02*
X137133003Y-46736000D01*
X102430192Y-47014000D02*
X98044000Y-47014000D01*
X103192192Y-47776000D02*
X102430192Y-47014000D01*
X77925516Y-46603500D02*
X73792500Y-46603500D01*
%TO.N,/~{RST}*%
X149352000Y-53848000D02*
X150876000Y-55372000D01*
X187238004Y-120238004D02*
X186750000Y-119750000D01*
X101981000Y-58547000D02*
X106680000Y-53848000D01*
X185166000Y-56642000D02*
X185420000Y-56388000D01*
X99314000Y-75184000D02*
X92456000Y-75184000D01*
X203835000Y-122555000D02*
X201518004Y-120238004D01*
X175514000Y-56642000D02*
X185166000Y-56642000D01*
X92456000Y-75184000D02*
X92202000Y-74930000D01*
X174244000Y-55372000D02*
X175514000Y-56642000D01*
X106680000Y-53848000D02*
X149352000Y-53848000D01*
X201518004Y-120238004D02*
X187238004Y-120238004D01*
X150876000Y-55372000D02*
X174244000Y-55372000D01*
%TO.N,/R{slash}~{W}*%
X110236000Y-99822000D02*
X107442000Y-99822000D01*
X105918000Y-98298000D02*
X95359000Y-98298000D01*
X111989000Y-101575000D02*
X110236000Y-99822000D01*
X122682000Y-51816000D02*
X123190000Y-51308000D01*
X142715991Y-101575000D02*
X111989000Y-101575000D01*
X149606000Y-97790000D02*
X148590000Y-98806000D01*
X148590000Y-98806000D02*
X144553009Y-98806000D01*
X107442000Y-99822000D02*
X105918000Y-98298000D01*
X133350000Y-68072000D02*
X126365000Y-68072000D01*
X144553009Y-98806000D02*
X143825000Y-99534009D01*
X154178000Y-97790000D02*
X149606000Y-97790000D01*
X167386000Y-98806000D02*
X155194000Y-98806000D01*
X95250000Y-51816000D02*
X122682000Y-51816000D01*
X135001000Y-66421000D02*
X133350000Y-68072000D01*
X94742007Y-52323993D02*
X95250000Y-51816000D01*
X95359000Y-98298000D02*
X94597000Y-97536000D01*
X143825000Y-99534009D02*
X143825000Y-100465991D01*
X155194000Y-98806000D02*
X154178000Y-97790000D01*
X143825000Y-100465991D02*
X142715991Y-101575000D01*
%TO.N,/TEXT*%
X115062000Y-23114000D02*
X114808000Y-22860000D01*
X76200000Y-22860000D02*
X75946000Y-22606000D01*
X114808000Y-22860000D02*
X76200000Y-22860000D01*
%TO.N,/CPUCLK*%
X216662000Y-83947000D02*
X211709000Y-83947000D01*
X211709000Y-83947000D02*
X208237000Y-80475000D01*
X175475000Y-80475000D02*
X175250000Y-80250000D01*
X171416630Y-88740000D02*
X169883630Y-90273000D01*
X169883630Y-90273000D02*
X164939630Y-90273000D01*
X208237000Y-80475000D02*
X175475000Y-80475000D01*
%TO.N,/GTEXT*%
X113297000Y-23381000D02*
X114046000Y-24130000D01*
X24130000Y-116840000D02*
X32129604Y-116840000D01*
X31737000Y-23381000D02*
X113297000Y-23381000D01*
X40386000Y-119126000D02*
X50545986Y-119126000D01*
X32833604Y-117544000D02*
X38804000Y-117544000D01*
X67056000Y-122555000D02*
X65405000Y-124206000D01*
X38804000Y-117544000D02*
X40386000Y-119126000D01*
X50545986Y-119126000D02*
X50799986Y-119380000D01*
X28956000Y-26162000D02*
X31737000Y-23381000D01*
X65405000Y-124206000D02*
X54356000Y-124206000D01*
X32129604Y-116840000D02*
X32833604Y-117544000D01*
%TO.N,/TXTON{slash}~{OFF}*%
X96587400Y-107950000D02*
X97082205Y-108444805D01*
X97028000Y-73914000D02*
X103632000Y-73914000D01*
X103632000Y-73914000D02*
X104902000Y-72644000D01*
X88900000Y-107950000D02*
X96587400Y-107950000D01*
X122682000Y-72644000D02*
X124968000Y-72644000D01*
X107950000Y-72644000D02*
X108574000Y-72020000D01*
X104902000Y-72644000D02*
X107950000Y-72644000D01*
X122058000Y-72020000D02*
X122682000Y-72644000D01*
X108574000Y-72020000D02*
X122058000Y-72020000D01*
%TO.N,/HIRES*%
X104715604Y-72194000D02*
X107638000Y-72194000D01*
X131871588Y-71374000D02*
X133093827Y-72596239D01*
X107638000Y-72194000D02*
X108458000Y-71374000D01*
X133093827Y-72596239D02*
X138671000Y-72596239D01*
X66040000Y-78994000D02*
X64770000Y-80264000D01*
X104265604Y-72644000D02*
X104715604Y-72194000D01*
X64770000Y-80264000D02*
X64770000Y-82296000D01*
X87884000Y-72644000D02*
X104265604Y-72644000D01*
X87643000Y-78994000D02*
X66040000Y-78994000D01*
X108458000Y-71374000D02*
X131871588Y-71374000D01*
%TO.N,Net-(U37-Pad6)*%
X203835000Y-108712000D02*
X205105000Y-109982000D01*
X221615000Y-101600000D02*
X219583000Y-99568000D01*
X219583000Y-99568000D02*
X212598000Y-99568000D01*
X205105000Y-109982000D02*
X211581994Y-109982000D01*
X211581994Y-109982000D02*
X212597994Y-108966000D01*
%TO.N,/E_half*%
X142172396Y-118814000D02*
X129735701Y-118814000D01*
X119835584Y-119576000D02*
X118855584Y-118596000D01*
X129735701Y-118814000D02*
X128973701Y-119576000D01*
X101876000Y-118596000D02*
X101041000Y-119431000D01*
X128973701Y-119576000D02*
X119835584Y-119576000D01*
X146558000Y-119380000D02*
X142738396Y-119380000D01*
X142738396Y-119380000D02*
X142172396Y-118814000D01*
X64059000Y-119431000D02*
X61976000Y-117348000D01*
X101041000Y-119431000D02*
X64059000Y-119431000D01*
X118855584Y-118596000D02*
X101876000Y-118596000D01*
%TO.N,Net-(D1-K)*%
X118482792Y-119496000D02*
X119742792Y-120756000D01*
X52070000Y-123354679D02*
X55015679Y-120409000D01*
X55015679Y-120409000D02*
X101335792Y-120409000D01*
X119742792Y-120756000D02*
X121412000Y-120756000D01*
X52070000Y-125476000D02*
X52070000Y-123354679D01*
X101335792Y-120409000D02*
X102248792Y-119496000D01*
X102248792Y-119496000D02*
X118482792Y-119496000D01*
D30*
%TO.N,Net-(J4-Pad5)*%
X165170056Y-126527000D02*
X196777000Y-126527000D01*
X160000000Y-130000000D02*
X161697056Y-130000000D01*
X196777000Y-126527000D02*
X200250000Y-130000000D01*
X161697056Y-130000000D02*
X165170056Y-126527000D01*
D28*
%TO.N,/DOUT*%
X224282000Y-129540000D02*
X218496999Y-135325001D01*
X218496999Y-135325001D02*
X169921017Y-135325001D01*
X167096016Y-132500000D02*
X165000000Y-132500000D01*
X169921017Y-135325001D02*
X167096016Y-132500000D01*
D30*
%TO.N,Net-(J4-Pad4)*%
X170250000Y-129750000D02*
X190000000Y-129750000D01*
D28*
%TO.N,/Din*%
X195250000Y-132500000D02*
X196850000Y-134100000D01*
D30*
X165989000Y-127127000D02*
X189877000Y-127127000D01*
X160616000Y-132500000D02*
X165989000Y-127127000D01*
X157500000Y-132500000D02*
X160616000Y-132500000D01*
X189877000Y-127127000D02*
X195250000Y-132500000D01*
D28*
X196850000Y-134100000D02*
X209054000Y-134100000D01*
X209054000Y-134100000D02*
X209804000Y-133350000D01*
%TO.N,Net-(U42-Pad1)*%
X213995000Y-76200000D02*
X215773000Y-77978000D01*
X220472000Y-77978000D02*
X221615000Y-76835000D01*
X215773000Y-77978000D02*
X220472000Y-77978000D01*
X227203000Y-91948000D02*
X222758000Y-91948000D01*
X229235000Y-93980000D02*
X227203000Y-91948000D01*
%TO.N,Net-(U23B-D)*%
X148119998Y-114624998D02*
X149244998Y-115749998D01*
X140719394Y-114624998D02*
X148119998Y-114624998D01*
X139594394Y-115749998D02*
X140719394Y-114624998D01*
%TO.N,Net-(C23-Pad1)*%
X194917000Y-121257000D02*
X196215000Y-122555000D01*
X185153984Y-119250000D02*
X187160984Y-121257000D01*
X183134000Y-119250000D02*
X185153984Y-119250000D01*
X187160984Y-121257000D02*
X194917000Y-121257000D01*
%TO.N,/R2*%
X58165999Y-80518001D02*
X58159498Y-80511500D01*
X112014000Y-62992000D02*
X108093466Y-62992000D01*
X102870000Y-62738000D02*
X99441000Y-62738000D01*
X98216000Y-61513000D02*
X99441000Y-62738000D01*
X166086630Y-61750000D02*
X113256000Y-61750000D01*
X108093466Y-62992000D02*
X106823466Y-61722000D01*
X106823466Y-61722000D02*
X103886000Y-61722000D01*
X72345000Y-61767000D02*
X84074591Y-61767000D01*
X84328591Y-61513000D02*
X98216000Y-61513000D01*
X57979016Y-62162984D02*
X71949016Y-62162984D01*
X71949016Y-62162984D02*
X72345000Y-61767000D01*
X58159498Y-80511500D02*
X42926000Y-80511500D01*
X113256000Y-61750000D02*
X112014000Y-62992000D01*
X84074591Y-61767000D02*
X84328591Y-61513000D01*
X103886000Y-61722000D02*
X102870000Y-62738000D01*
X57912000Y-62230000D02*
X57979016Y-62162984D01*
X166336630Y-62000000D02*
X166086630Y-61750000D01*
%TO.N,/R1*%
X65151748Y-65278000D02*
X47751982Y-65278000D01*
X148193630Y-64262000D02*
X161256622Y-64262000D01*
X86831016Y-65474000D02*
X77862016Y-65474000D01*
X76521016Y-66815000D02*
X73753016Y-66815000D01*
X52578000Y-92456000D02*
X48514000Y-92456000D01*
X73753016Y-66815000D02*
X72595016Y-65657000D01*
X48514000Y-92456000D02*
X47752000Y-93218000D01*
X72595016Y-65657000D02*
X65530748Y-65657000D01*
X77862016Y-65474000D02*
X76521016Y-66815000D01*
X65530748Y-65657000D02*
X65151748Y-65278000D01*
X98806000Y-64516000D02*
X147939630Y-64516000D01*
X96901000Y-66421000D02*
X95250000Y-64770000D01*
X95250000Y-64770000D02*
X87535016Y-64770000D01*
X147939630Y-64516000D02*
X148193630Y-64262000D01*
X87535016Y-64770000D02*
X86831016Y-65474000D01*
X96901000Y-66421000D02*
X98806000Y-64516000D01*
%TO.N,/R0*%
X94361000Y-66421000D02*
X96012000Y-68072000D01*
X87645412Y-65296000D02*
X93236000Y-65296000D01*
X78360396Y-66040000D02*
X86901412Y-66040000D01*
X71427984Y-67582000D02*
X76818396Y-67582000D01*
X93236000Y-65296000D02*
X94361000Y-66421000D01*
X55595003Y-67132000D02*
X70977984Y-67132000D01*
X96012000Y-68072000D02*
X124506984Y-68072000D01*
X136576044Y-68655956D02*
X137432000Y-67800000D01*
X131865880Y-68870664D02*
X132080588Y-68655956D01*
X42672000Y-68834000D02*
X53893003Y-68834000D01*
X124506984Y-68072000D02*
X125305648Y-68870664D01*
X132080588Y-68655956D02*
X136576044Y-68655956D01*
X53893003Y-68834000D02*
X55595003Y-67132000D01*
X86901412Y-66040000D02*
X87645412Y-65296000D01*
X137432000Y-67800000D02*
X149336630Y-67800000D01*
X48514000Y-78994000D02*
X42926000Y-78994000D01*
X76818396Y-67582000D02*
X78360396Y-66040000D01*
X149336630Y-67800000D02*
X151096630Y-66040000D01*
X42926000Y-78994000D02*
X42672000Y-78740000D01*
X70977984Y-67132000D02*
X71427984Y-67582000D01*
X125305648Y-68870664D02*
X131865880Y-68870664D01*
%TO.N,/V10*%
X121331731Y-68580000D02*
X88900010Y-68580000D01*
X78694412Y-46736000D02*
X87839000Y-46736000D01*
X131985236Y-69387704D02*
X122139435Y-69387704D01*
X136888044Y-69105956D02*
X132266984Y-69105956D01*
X132266984Y-69105956D02*
X131985236Y-69387704D01*
X72599000Y-45765000D02*
X77723412Y-45765000D01*
X137744000Y-68250000D02*
X136888044Y-69105956D01*
X166769814Y-68019816D02*
X166539630Y-68250000D01*
X71755000Y-46609000D02*
X72599000Y-45765000D01*
X122139435Y-69387704D02*
X121331731Y-68580000D01*
X77723412Y-45765000D02*
X78694412Y-46736000D01*
X166539630Y-68250000D02*
X137744000Y-68250000D01*
%TO.N,/V9*%
X80368315Y-41669001D02*
X87296822Y-41669001D01*
X155000000Y-77025000D02*
X153471000Y-75496000D01*
X87296822Y-41669001D02*
X87389000Y-41576823D01*
X78681515Y-43355801D02*
X80368315Y-41669001D01*
X115695604Y-74422000D02*
X119888006Y-74422000D01*
X120129006Y-74663000D02*
X119888006Y-74422000D01*
X125868016Y-75496000D02*
X125035016Y-74663000D01*
X125035016Y-74663000D02*
X120129006Y-74663000D01*
X153471000Y-75496000D02*
X125868016Y-75496000D01*
X88646000Y-76200000D02*
X113917604Y-76200000D01*
X113917604Y-76200000D02*
X115695604Y-74422000D01*
%TO.N,/V5*%
X132258885Y-70874198D02*
X110244198Y-70874198D01*
X132517688Y-71133001D02*
X132258885Y-70874198D01*
X156176630Y-76750000D02*
X154356630Y-74930000D01*
X141713000Y-72625000D02*
X140221001Y-71133001D01*
X145269000Y-72625000D02*
X141713000Y-72625000D01*
X82550000Y-68072000D02*
X82550000Y-67056000D01*
X140221001Y-71133001D02*
X132517688Y-71133001D01*
X109474000Y-70104000D02*
X84582000Y-70104000D01*
X84582000Y-70104000D02*
X82550000Y-68072000D01*
X110244198Y-70874198D02*
X109474000Y-70104000D01*
X147574000Y-74930000D02*
X145269000Y-72625000D01*
X154356630Y-74930000D02*
X147574000Y-74930000D01*
%TO.N,/V7*%
X159004000Y-78486000D02*
X159766000Y-77724000D01*
X112014000Y-61722000D02*
X111801000Y-61935000D01*
X114808000Y-78486000D02*
X159004000Y-78486000D01*
X75170999Y-60946999D02*
X73533000Y-59309000D01*
X111801000Y-61935000D02*
X108163000Y-61935000D01*
X73533000Y-59309000D02*
X70104000Y-59309000D01*
X108163000Y-61935000D02*
X107174999Y-60946999D01*
X107174999Y-60946999D02*
X75170999Y-60946999D01*
%TO.N,/V6*%
X97720247Y-48419545D02*
X97676702Y-48376000D01*
X164754630Y-78798000D02*
X166336630Y-77216000D01*
X159525000Y-79235000D02*
X159962000Y-78798000D01*
X112141000Y-81661000D02*
X114567000Y-79235000D01*
X98425004Y-77596996D02*
X98679005Y-77850997D01*
X72782000Y-48376000D02*
X72390000Y-48768000D01*
X98679005Y-77850997D02*
X111806987Y-77850997D01*
X114567000Y-79235000D02*
X159525000Y-79235000D01*
X111806987Y-77850997D02*
X111973995Y-77683989D01*
X159962000Y-78798000D02*
X164754630Y-78798000D01*
X97676702Y-48376000D02*
X72782000Y-48376000D01*
%TO.N,/V4*%
X102883001Y-71868999D02*
X85183017Y-71868999D01*
X169672000Y-79248000D02*
X171416630Y-77503370D01*
X107061000Y-81661000D02*
X109150000Y-83750000D01*
X73198984Y-71120000D02*
X69596000Y-71120000D01*
X160000000Y-82062000D02*
X160000000Y-80250000D01*
X107188000Y-70866000D02*
X103886000Y-70866000D01*
X161002000Y-79248000D02*
X169672000Y-79248000D01*
X109150000Y-83750000D02*
X158312000Y-83750000D01*
X85183017Y-71868999D02*
X84522016Y-72530000D01*
X160000000Y-80250000D02*
X161002000Y-79248000D01*
X158312000Y-83750000D02*
X160000000Y-82062000D01*
X171416630Y-77503370D02*
X171416630Y-73660000D01*
X74608984Y-72530000D02*
X73198984Y-71120000D01*
X103886000Y-70866000D02*
X102883001Y-71868999D01*
X84522016Y-72530000D02*
X74608984Y-72530000D01*
%TO.N,/V8*%
X131389000Y-77996000D02*
X131064000Y-77671000D01*
X76141515Y-50975801D02*
X77841316Y-49276000D01*
X87884000Y-49276000D02*
X89154000Y-50546000D01*
X157208000Y-77996000D02*
X131389000Y-77996000D01*
X158954000Y-76250000D02*
X157208000Y-77996000D01*
X169999994Y-76250000D02*
X158954000Y-76250000D01*
X118107000Y-77975000D02*
X130760000Y-77975000D01*
X89154000Y-50546000D02*
X113203984Y-50546000D01*
X117602000Y-77470000D02*
X118107000Y-77975000D01*
X130760000Y-77975000D02*
X131064000Y-77671000D01*
X114232984Y-49517000D02*
X131813000Y-49517000D01*
X113203984Y-50546000D02*
X114232984Y-49517000D01*
X131813000Y-49517000D02*
X132334000Y-50038000D01*
X77841316Y-49276000D02*
X87884000Y-49276000D01*
%TO.N,/V0*%
X70358000Y-83312000D02*
X68834000Y-81788000D01*
X151096633Y-85875000D02*
X150806633Y-85585000D01*
X95250000Y-83312000D02*
X70358000Y-83312000D01*
X150806633Y-85585000D02*
X107455000Y-85585000D01*
X106159000Y-86881000D02*
X97378000Y-86881000D01*
X96901000Y-81661000D02*
X95250000Y-83312000D01*
X107455000Y-85585000D02*
X106159000Y-86881000D01*
%TO.N,/TDAT*%
X72136000Y-96520000D02*
X74168000Y-94488000D01*
X74168000Y-94488000D02*
X84582000Y-94488000D01*
X80495988Y-123756000D02*
X79335000Y-122595012D01*
X88461000Y-123756000D02*
X80495988Y-123756000D01*
X89662000Y-122555000D02*
X88461000Y-123756000D01*
%TO.N,/~{LOAD}*%
X167750000Y-116250000D02*
X167000000Y-117000000D01*
X165916000Y-120904000D02*
X123952000Y-120904000D01*
X123952000Y-120904000D02*
X123325000Y-121531000D01*
X188750000Y-115750000D02*
X188250000Y-116250000D01*
D30*
X57738000Y-141478000D02*
X56468000Y-141478000D01*
D28*
X101275188Y-121106000D02*
X65965000Y-121106000D01*
X65965000Y-121106000D02*
X64516000Y-122555000D01*
X167000000Y-119820000D02*
X165916000Y-120904000D01*
D30*
X58500000Y-143510000D02*
X68961000Y-143510000D01*
X61802000Y-137414000D02*
X54182000Y-137414000D01*
X61802000Y-137414000D02*
X57738000Y-141478000D01*
D28*
X120904000Y-124968000D02*
X120904000Y-122553604D01*
X188250000Y-116250000D02*
X167750000Y-116250000D01*
X120904000Y-122553604D02*
X119881396Y-121531000D01*
X123325000Y-121531000D02*
X119881396Y-121531000D01*
X102435188Y-119946000D02*
X101275188Y-121106000D01*
D30*
X56468000Y-141478000D02*
X58500000Y-143510000D01*
D28*
X118296396Y-119946000D02*
X102435188Y-119946000D01*
X119881396Y-121531000D02*
X118296396Y-119946000D01*
D30*
X48848000Y-141478000D02*
X56468000Y-141478000D01*
X68961000Y-143510000D02*
X72136000Y-140335000D01*
D28*
%TO.N,/CRV*%
X98087016Y-116295000D02*
X96126016Y-114334000D01*
X133350000Y-80010000D02*
X125983996Y-80010000D01*
X96126016Y-114334000D02*
X88138000Y-114334000D01*
X135001000Y-81661000D02*
X133350000Y-80010000D01*
X121666000Y-114808000D02*
X120179000Y-116295000D01*
X120179000Y-116295000D02*
X98087016Y-116295000D01*
%TO.N,/BL*%
X148603000Y-109207000D02*
X149352000Y-108458000D01*
X149352000Y-108458000D02*
X153149000Y-108458000D01*
X143500000Y-73500000D02*
X143406000Y-73406000D01*
X141830000Y-111750000D02*
X144373000Y-109207000D01*
X143406000Y-73406000D02*
X133096000Y-73406000D01*
X144373000Y-109207000D02*
X148603000Y-109207000D01*
%TO.N,/V1*%
X83138016Y-73914000D02*
X82675016Y-73451000D01*
X162399630Y-84750000D02*
X162049630Y-85100000D01*
X162049630Y-85100000D02*
X100128726Y-85100000D01*
X88832396Y-77528000D02*
X85218396Y-73914000D01*
X89594396Y-77528000D02*
X88832396Y-77528000D01*
X82675016Y-73451000D02*
X69895000Y-73451000D01*
X85218396Y-73914000D02*
X83138016Y-73914000D01*
X91047396Y-78981000D02*
X89594396Y-77528000D01*
X99395497Y-78981000D02*
X91047396Y-78981000D01*
X100128726Y-85100000D02*
X100063000Y-85034274D01*
X69895000Y-73451000D02*
X68326000Y-71882000D01*
%TO.N,/V2*%
X77216000Y-68707000D02*
X78341000Y-67582000D01*
X101305000Y-70599000D02*
X101826000Y-71120000D01*
X101981000Y-81661000D02*
X104970000Y-84650000D01*
X162135198Y-83058000D02*
X165192000Y-83058000D01*
X165192000Y-83058000D02*
X166336630Y-81913370D01*
X84061000Y-70599000D02*
X101305000Y-70599000D01*
X104970000Y-84650000D02*
X160543198Y-84650000D01*
X78341000Y-67582000D02*
X81044000Y-67582000D01*
X160543198Y-84650000D02*
X162135198Y-83058000D01*
X81044000Y-67582000D02*
X84061000Y-70599000D01*
%TO.N,/V3*%
X159550000Y-84200000D02*
X161256630Y-82493370D01*
X77610000Y-62217000D02*
X84260987Y-62217000D01*
X76200000Y-63627000D02*
X77610000Y-62217000D01*
X99119984Y-63513000D02*
X103809000Y-63513000D01*
X84260987Y-62217000D02*
X84514987Y-61963000D01*
X161256630Y-82493370D02*
X161256630Y-81280000D01*
X97569984Y-61963000D02*
X99119984Y-63513000D01*
X107060000Y-84200000D02*
X159550000Y-84200000D01*
X84514987Y-61963000D02*
X97569984Y-61963000D01*
X103809000Y-63513000D02*
X104826000Y-62496000D01*
X104521000Y-81661000D02*
X107060000Y-84200000D01*
%TO.N,/~{RAS}*%
X216154000Y-57404000D02*
X216027003Y-57277003D01*
X135381992Y-23368000D02*
X134874000Y-23875992D01*
X206375000Y-114935000D02*
X209550000Y-111760000D01*
X209550002Y-57023001D02*
X209931001Y-57404000D01*
X208194003Y-58379000D02*
X184149998Y-58379000D01*
X169374422Y-24625000D02*
X168117422Y-23368000D01*
X168117422Y-23368000D02*
X135381992Y-23368000D01*
X185250000Y-24625000D02*
X169374422Y-24625000D01*
X209931001Y-57404000D02*
X216154000Y-57404000D01*
X209550002Y-57023001D02*
X208194003Y-58379000D01*
X209550000Y-111760000D02*
X214757000Y-111760000D01*
%TO.N,Net-(Q2-B)*%
X123252000Y-142748000D02*
X120396000Y-142748000D01*
X128750000Y-139000000D02*
X125250000Y-142500000D01*
X125250000Y-142500000D02*
X123500000Y-142500000D01*
X120396000Y-142748000D02*
X115570000Y-142748000D01*
%TO.N,/~{CPUCLK}*%
X140534996Y-121920000D02*
X159004000Y-121920000D01*
X159004000Y-121920000D02*
X161290000Y-124206000D01*
X172480943Y-53095802D02*
X94732198Y-53095802D01*
X161290000Y-124206000D02*
X161290000Y-124460000D01*
X139084998Y-123369998D02*
X140534996Y-121920000D01*
X94732198Y-53095802D02*
X94234000Y-53594000D01*
%TO.N,Net-(C30-Pad1)*%
X203835000Y-114935000D02*
X201295000Y-114935000D01*
%TO.N,/GDAT*%
X196850000Y-68580000D02*
X199720500Y-71450500D01*
X199720500Y-71450500D02*
X205028500Y-71450500D01*
X205028500Y-71450500D02*
X205740000Y-70739000D01*
%TO.N,/SCLK*%
X113919000Y-46101000D02*
X104012994Y-46101000D01*
X139954000Y-27940000D02*
X142988000Y-27940000D01*
X119441009Y-39750000D02*
X143000000Y-39750000D01*
X142988000Y-27940000D02*
X143750000Y-27178000D01*
X115806000Y-43385009D02*
X115806000Y-44214000D01*
X115806000Y-44214000D02*
X113919000Y-46101000D01*
X119441009Y-39750000D02*
X115806000Y-43385009D01*
%TO.N,/Graphic RAM\u002C MUX and Shiftregister/~{CPUL_En}*%
X150207630Y-32766000D02*
X152226016Y-32766000D01*
X226695000Y-76200000D02*
X228663500Y-74231500D01*
X228663500Y-74231500D02*
X232981500Y-74231500D01*
X152226016Y-32766000D02*
X153877019Y-34417003D01*
X153877019Y-34417003D02*
X225043997Y-34417003D01*
%TO.N,/Graphic RAM\u002C MUX and Shiftregister/~{CPUH_En}*%
X175007396Y-55499000D02*
X173508396Y-54000000D01*
X173508396Y-54000000D02*
X151391630Y-54000000D01*
X229108000Y-55499000D02*
X175007396Y-55499000D01*
%TO.N,/Graphic RAM\u002C MUX and Shiftregister/~{6845L_En}*%
X216649000Y-73546000D02*
X182821000Y-73546000D01*
X151096630Y-58420000D02*
X152874630Y-60198000D01*
X182225000Y-62475000D02*
X182500000Y-62750000D01*
X221615000Y-68580000D02*
X216649000Y-73546000D01*
X175966016Y-62475000D02*
X182225000Y-62475000D01*
X182821000Y-73546000D02*
X181025000Y-71750000D01*
X173689016Y-60198000D02*
X175966016Y-62475000D01*
X152874630Y-60198000D02*
X173689016Y-60198000D01*
%TO.N,/Graphic RAM\u002C MUX and Shiftregister/~{6845H_En}*%
X151096630Y-73660000D02*
X154256630Y-70500000D01*
X165000000Y-72000000D02*
X172983139Y-72000000D01*
X217346017Y-74471017D02*
X219075000Y-76200000D01*
X175454156Y-74471017D02*
X217346017Y-74471017D01*
X172983139Y-72000000D02*
X175454156Y-74471017D01*
X163500000Y-70500000D02*
X165000000Y-72000000D01*
X154256630Y-70500000D02*
X163500000Y-70500000D01*
%TO.N,/~{4000}*%
X142410000Y-100000000D02*
X141285000Y-101125000D01*
X141285000Y-101125000D02*
X129318994Y-101125000D01*
X129318994Y-101125000D02*
X128524000Y-100330006D01*
%TO.N,/~{8000}*%
X166745000Y-120795000D02*
X184455001Y-120795000D01*
X186690000Y-83820000D02*
X185270999Y-82400999D01*
X166855984Y-99372000D02*
X168575984Y-101092000D01*
X165290000Y-122250000D02*
X166745000Y-120795000D01*
X184455001Y-120795000D02*
X184750001Y-120500000D01*
X185270999Y-82400999D02*
X181000000Y-82400999D01*
X144950000Y-100000000D02*
X146296000Y-101346000D01*
X152654000Y-101346000D02*
X154628000Y-99372000D01*
X146296000Y-101346000D02*
X152654000Y-101346000D01*
X154628000Y-99372000D02*
X166855984Y-99372000D01*
X168575984Y-101092000D02*
X181609998Y-101092000D01*
%TO.N,/~{1000}*%
X101564000Y-118146000D02*
X100729000Y-118981000D01*
X73769012Y-118981000D02*
X73406012Y-118618000D01*
X100729000Y-118981000D02*
X73769012Y-118981000D01*
X151130000Y-118618000D02*
X150368000Y-117856000D01*
X128787305Y-119126000D02*
X120021980Y-119126000D01*
X61976000Y-76327000D02*
X61976000Y-75277000D01*
X61976000Y-75277000D02*
X62322999Y-74930001D01*
X150368000Y-117856000D02*
X130057305Y-117856000D01*
X119041980Y-118146000D02*
X101564000Y-118146000D01*
X63441515Y-50975801D02*
X31574199Y-50975801D01*
X31574199Y-50975801D02*
X31496000Y-51054000D01*
X152654008Y-109474008D02*
X156055000Y-112875000D01*
X150607000Y-109474008D02*
X152654008Y-109474008D01*
X156055000Y-112875000D02*
X173695000Y-112875000D01*
X130057305Y-117856000D02*
X128787305Y-119126000D01*
X173695000Y-112875000D02*
X175450000Y-114630000D01*
X120021980Y-119126000D02*
X119041980Y-118146000D01*
X62322999Y-74930001D02*
X75437999Y-74930001D01*
%TO.N,/CHARSET*%
X56388000Y-82550000D02*
X56642000Y-82804000D01*
X133350000Y-22605994D02*
X132588006Y-21844000D01*
X132588006Y-21844000D02*
X63246004Y-21844000D01*
X135890000Y-55372000D02*
X132461000Y-58801000D01*
X44704000Y-82550000D02*
X38100000Y-82550000D01*
X63246004Y-21844000D02*
X62738004Y-22352000D01*
X136398000Y-55372000D02*
X135890000Y-55372000D01*
X43942000Y-84455000D02*
X43942000Y-83058000D01*
X37084000Y-81534000D02*
X28956000Y-81534000D01*
X38100000Y-82550000D02*
X37084000Y-81534000D01*
X44450000Y-82550000D02*
X44704000Y-82550000D01*
X44704000Y-82550000D02*
X56388000Y-82550000D01*
X43942000Y-83058000D02*
X44450000Y-82550000D01*
%TO.N,Net-(U43-Pad3)*%
X219075000Y-89535000D02*
X221615000Y-89535000D01*
%TO.N,Net-(U37-Pad11)*%
X215138000Y-90932000D02*
X209042000Y-90932000D01*
X209042000Y-90932000D02*
X207772002Y-89662002D01*
X216535000Y-89535000D02*
X215138000Y-90932000D01*
X191135000Y-118490996D02*
X199771004Y-118490996D01*
X207772002Y-89662002D02*
X200533002Y-89662002D01*
X199771004Y-118490996D02*
X199898000Y-118364000D01*
X200533002Y-89662002D02*
X200279000Y-89408000D01*
%TO.N,Net-(U20-Cp1)*%
X136289000Y-26815000D02*
X137414000Y-27940000D01*
X132334000Y-27940000D02*
X133459000Y-26815000D01*
X133459000Y-26815000D02*
X136289000Y-26815000D01*
%TO.N,/~{CLK6M}*%
X157301630Y-95235000D02*
X167751630Y-95235000D01*
X207346364Y-81108364D02*
X180641636Y-81108364D01*
X156176630Y-96360000D02*
X157301630Y-95235000D01*
X167751630Y-95235000D02*
X168876630Y-96360000D01*
X177250000Y-84500000D02*
X174000000Y-84500000D01*
X211963007Y-85725007D02*
X207346364Y-81108364D01*
X213994993Y-85725007D02*
X211963007Y-85725007D01*
X180641636Y-81108364D02*
X177250000Y-84500000D01*
%TO.N,/RST*%
X225933000Y-38354000D02*
X225933000Y-26289000D01*
X201422000Y-119380000D02*
X204207792Y-119380000D01*
X129525000Y-30000000D02*
X140503000Y-30000000D01*
X221488000Y-21844000D02*
X143002006Y-21844000D01*
X140503000Y-30000000D02*
X141999000Y-31496000D01*
X201295000Y-122555000D02*
X198755000Y-122555000D01*
X221488000Y-107442000D02*
X232537000Y-107442000D01*
X129286000Y-30239000D02*
X129525000Y-30000000D01*
X204207792Y-119380000D02*
X209795792Y-113792000D01*
X225933000Y-26289000D02*
X221488000Y-21844000D01*
X209795792Y-113792000D02*
X215138000Y-113792000D01*
X143002006Y-21844000D02*
X142240006Y-22606000D01*
X215138000Y-113792000D02*
X221488000Y-107442000D01*
%TO.N,Net-(C14-Pad2)*%
X144370000Y-111750000D02*
X146910000Y-111750000D01*
%TO.N,/AS*%
X87334596Y-39157404D02*
X88392000Y-38100000D01*
X88392000Y-38100000D02*
X104394000Y-38100000D01*
%TO.N,/LTDAT*%
X68834000Y-80518000D02*
X65786000Y-83566000D01*
X64008000Y-83566000D02*
X65786000Y-83566000D01*
X64516000Y-139285000D02*
X65879000Y-137922000D01*
X59898046Y-79456046D02*
X64008000Y-83566000D01*
X136901000Y-76708000D02*
X114936396Y-76708000D01*
X111126396Y-80518000D02*
X68834000Y-80518000D01*
D30*
X61468000Y-141478000D02*
X63373000Y-141478000D01*
D28*
X137414000Y-77221000D02*
X136901000Y-76708000D01*
X114936396Y-76708000D02*
X111126396Y-80518000D01*
X65879000Y-137922000D02*
X80750008Y-137922000D01*
D30*
X63373000Y-141478000D02*
X64516000Y-140335000D01*
D28*
X64516000Y-140335000D02*
X64516000Y-139285000D01*
X55867000Y-79456046D02*
X59898046Y-79456046D01*
%TO.N,/~{E}*%
X160020002Y-101345998D02*
X165099992Y-101345998D01*
X159512000Y-101854000D02*
X160020002Y-101345998D01*
X132250000Y-100000000D02*
X135267000Y-96983000D01*
X143905817Y-97089801D02*
X148573786Y-97089801D01*
X146910000Y-104130000D02*
X149186000Y-101854000D01*
X149186000Y-101854000D02*
X159512000Y-101854000D01*
X136905412Y-96983000D02*
X137622412Y-96266000D01*
X135267000Y-96983000D02*
X136905412Y-96983000D01*
X143082016Y-96266000D02*
X143905817Y-97089801D01*
X165099992Y-101345998D02*
X165354002Y-101600008D01*
X137622412Y-96266000D02*
X143082016Y-96266000D01*
%TO.N,Net-(U44-Pad11)*%
X223550005Y-92710000D02*
X225425000Y-92710000D01*
X225425000Y-92710000D02*
X226695000Y-93980000D01*
X222280005Y-93980000D02*
X223550005Y-92710000D01*
%TO.N,/CLK6M*%
X212979004Y-97535996D02*
X192532000Y-97535996D01*
X216535000Y-93980000D02*
X212979004Y-97535996D01*
X167652630Y-97676000D02*
X192391996Y-97676000D01*
X166336630Y-96360000D02*
X167652630Y-97676000D01*
X192391996Y-97676000D02*
X192532000Y-97535996D01*
%TO.N,/R3*%
X99822000Y-107696000D02*
X97282000Y-107696000D01*
X51816000Y-107442000D02*
X67310000Y-107442000D01*
X95758000Y-106172000D02*
X77216000Y-106172000D01*
X76454000Y-106934000D02*
X77216000Y-106172000D01*
X43688000Y-104648000D02*
X43688000Y-109220000D01*
X41402000Y-102362000D02*
X43688000Y-104648000D01*
X97282000Y-107696000D02*
X95758000Y-106172000D01*
X49022000Y-110236000D02*
X51816000Y-107442000D01*
X43688000Y-109220000D02*
X44704000Y-110236000D01*
X44704000Y-110236000D02*
X49022000Y-110236000D01*
X67310000Y-107442000D02*
X67818000Y-106934000D01*
X67818000Y-106934000D02*
X76454000Y-106934000D01*
%TO.N,Net-(U18-Pad13)*%
X108204000Y-107950000D02*
X148082000Y-107950000D01*
X88791000Y-111361000D02*
X88773000Y-111379000D01*
X107341000Y-108813000D02*
X108204000Y-107950000D01*
X88265000Y-111379000D02*
X87122000Y-110236000D01*
X98705000Y-108813000D02*
X107341000Y-108813000D01*
X97282000Y-110236000D02*
X98705000Y-108813000D01*
X88773000Y-111379000D02*
X88265000Y-111379000D01*
X96157000Y-111361000D02*
X88791000Y-111361000D01*
X148082000Y-107950000D02*
X149098000Y-106934000D01*
X97282000Y-110236000D02*
X96157000Y-111361000D01*
%TO.N,/T{slash}G*%
X223012000Y-26289000D02*
X170402026Y-26289000D01*
X135001000Y-58801000D02*
X138359000Y-55443000D01*
X201295000Y-101092000D02*
X203835000Y-103632000D01*
X138359000Y-55443000D02*
X140147150Y-55443000D01*
X170402026Y-26289000D02*
X168243026Y-24130000D01*
X203835000Y-103632000D02*
X225298000Y-103632000D01*
X168243026Y-24130000D02*
X141224000Y-24130000D01*
%TO.N,/Graphic RAM\u002C MUX and Shiftregister/~{GRAM_En}*%
X224027994Y-73914000D02*
X224155000Y-73786994D01*
X218186000Y-73914000D02*
X224027994Y-73914000D01*
X217945000Y-88252000D02*
X198514000Y-88252000D01*
X219202000Y-86995000D02*
X217945000Y-88252000D01*
X174752004Y-111506000D02*
X174244002Y-112014002D01*
X217932000Y-73660000D02*
X218186000Y-73914000D01*
X198755000Y-108712000D02*
X195961000Y-111506000D01*
X195961000Y-111506000D02*
X174752004Y-111506000D01*
X170370000Y-122250000D02*
X167830000Y-122250000D01*
X198514000Y-88252000D02*
X198120000Y-88646000D01*
%TO.N,Net-(U38-Pad2)*%
X209609396Y-113342000D02*
X214443604Y-113342000D01*
X193675000Y-117602000D02*
X205349396Y-117602000D01*
X205349396Y-117602000D02*
X209609396Y-113342000D01*
X214443604Y-113342000D02*
X221232604Y-106553000D01*
X221232604Y-106553000D02*
X224155000Y-106553000D01*
%TO.N,Net-(U4B-C)*%
X65659000Y-131572000D02*
X56896000Y-131572000D01*
X56896000Y-131572000D02*
X56388000Y-131064000D01*
X67056000Y-130175000D02*
X65659000Y-131572000D01*
%TO.N,Net-(U4A-C)*%
X44958000Y-117094000D02*
X33020000Y-117094000D01*
X33020000Y-117094000D02*
X31750000Y-115824000D01*
X31750000Y-115824000D02*
X31750000Y-115316000D01*
X50546000Y-117348000D02*
X45212000Y-117348000D01*
X68181005Y-115316000D02*
X52578000Y-115316000D01*
X45212000Y-117348000D02*
X44958000Y-117094000D01*
X52578000Y-115316000D02*
X50546000Y-117348000D01*
%TO.N,Net-(U4B-Q)*%
X83993984Y-114554000D02*
X70277984Y-114554000D01*
X51308000Y-117856000D02*
X40640000Y-117856000D01*
X68753984Y-116078000D02*
X53086000Y-116078000D01*
X53086000Y-116078000D02*
X51308000Y-117856000D01*
X95758000Y-116037000D02*
X85476984Y-116037000D01*
X85476984Y-116037000D02*
X83993984Y-114554000D01*
X70277984Y-114554000D02*
X68753984Y-116078000D01*
%TO.N,/Video*%
X121412000Y-110236000D02*
X124968000Y-110236000D01*
%TO.N,/Text RAM\u002C MUX and Shiftregister1/TD2*%
X32258000Y-63246000D02*
X54655998Y-63246000D01*
X54655998Y-63246000D02*
X55762000Y-62139998D01*
%TO.N,/Text RAM\u002C MUX and Shiftregister1/TA6*%
X73660000Y-53340002D02*
X73334046Y-53014048D01*
X57080840Y-53014048D02*
X56898792Y-52832000D01*
X56898792Y-52832000D02*
X34036000Y-52832000D01*
X73334046Y-53014048D02*
X57080840Y-53014048D01*
%TO.N,/Text RAM\u002C MUX and Shiftregister1/TA10*%
X43942000Y-43180000D02*
X45720000Y-41402000D01*
X71647714Y-41402000D02*
X73601515Y-43355801D01*
X45720000Y-41402000D02*
X71647714Y-41402000D01*
%TO.N,/Text RAM\u002C MUX and Shiftregister1/TD1*%
X45416000Y-56134000D02*
X52325396Y-56134000D01*
X52325396Y-56134000D02*
X54356698Y-58165302D01*
X29972000Y-62230000D02*
X53835000Y-62230000D01*
X53835000Y-62230000D02*
X54102000Y-61963000D01*
X45373545Y-56176455D02*
X45416000Y-56134000D01*
%TO.N,/Text RAM\u002C MUX and Shiftregister1/TD3*%
X54355998Y-48006002D02*
X35052000Y-48006002D01*
X59182000Y-43180000D02*
X54355998Y-48006002D01*
%TO.N,/Text RAM\u002C MUX and Shiftregister1/TA5*%
X79629000Y-54356000D02*
X65104016Y-54356000D01*
X64342016Y-53594000D02*
X36576000Y-53594000D01*
X65104016Y-54356000D02*
X64342016Y-53594000D01*
X81280000Y-56007000D02*
X79629000Y-54356000D01*
%TO.N,/Text RAM\u002C MUX and Shiftregister1/TD4*%
X56642000Y-43180000D02*
X52311000Y-47511000D01*
X52311000Y-47511000D02*
X37859000Y-47511000D01*
X37859000Y-47511000D02*
X37592000Y-47244000D01*
%TO.N,/Text RAM\u002C MUX and Shiftregister1/TA0*%
X70390000Y-60230000D02*
X71247000Y-61087000D01*
X50832000Y-60230000D02*
X70390000Y-60230000D01*
X49022000Y-58420000D02*
X50832000Y-60230000D01*
%TO.N,/Text RAM\u002C MUX and Shiftregister1/TA7*%
X61653144Y-52564048D02*
X62044192Y-52173000D01*
X57267236Y-52564048D02*
X61653144Y-52564048D01*
X69864316Y-52173000D02*
X71061515Y-50975801D01*
X31242000Y-52957604D02*
X32521604Y-51678000D01*
X31242000Y-52957604D02*
X31242000Y-53594000D01*
X32521604Y-51678000D02*
X56381188Y-51678000D01*
X62044192Y-52173000D02*
X69864316Y-52173000D01*
X56381188Y-51678000D02*
X57267236Y-52564048D01*
%TO.N,/Text RAM\u002C MUX and Shiftregister1/~{TRAMWE}*%
X70358000Y-90932000D02*
X69596000Y-90170000D01*
X69596000Y-90170000D02*
X26670000Y-90170000D01*
X26670000Y-90170000D02*
X25146000Y-91694000D01*
X36195000Y-35560000D02*
X28956006Y-35560000D01*
X78740000Y-90932000D02*
X70358000Y-90932000D01*
%TO.N,/Text RAM\u002C MUX and Shiftregister1/TA2*%
X78105000Y-70358000D02*
X54356000Y-70358000D01*
X45212000Y-70104000D02*
X54102000Y-70104000D01*
X79756000Y-68707000D02*
X78105000Y-70358000D01*
X54102000Y-70104000D02*
X54356000Y-70358000D01*
%TO.N,/Text RAM\u002C MUX and Shiftregister1/TD7*%
X46958017Y-72390000D02*
X46791009Y-72557008D01*
X51816000Y-72390000D02*
X46958017Y-72390000D01*
%TO.N,/Text RAM\u002C MUX and Shiftregister1/TA1*%
X48742000Y-60680000D02*
X46482000Y-58420000D01*
X69469000Y-61341000D02*
X68808000Y-60680000D01*
X68808000Y-60680000D02*
X48742000Y-60680000D01*
%TO.N,/Text RAM\u002C MUX and Shiftregister1/TD0*%
X50305000Y-57163000D02*
X44717000Y-57163000D01*
X51562000Y-58420000D02*
X50305000Y-57163000D01*
X27844004Y-61455000D02*
X27577000Y-61722004D01*
X44717000Y-57163000D02*
X43688000Y-56134000D01*
X51449610Y-61455000D02*
X27844004Y-61455000D01*
%TO.N,/Text RAM\u002C MUX and Shiftregister1/TA4*%
X63703235Y-54051235D02*
X39420765Y-54051235D01*
X72136000Y-66382000D02*
X72110950Y-66356950D01*
X64262000Y-54610000D02*
X63703235Y-54051235D01*
X39420765Y-54051235D02*
X38862000Y-54610000D01*
X72110950Y-66356950D02*
X65134682Y-66356950D01*
%TO.N,/Text RAM\u002C MUX and Shiftregister1/TA3*%
X41402000Y-58420000D02*
X41402000Y-56642000D01*
X77978008Y-58166000D02*
X78740008Y-58928000D01*
X41402000Y-56642000D02*
X43434000Y-54610000D01*
X45466000Y-54610000D02*
X46540000Y-55684000D01*
X61976000Y-58166000D02*
X77978008Y-58166000D01*
X59494000Y-55684000D02*
X61976000Y-58166000D01*
X43434000Y-54610000D02*
X45466000Y-54610000D01*
X46540000Y-55684000D02*
X59494000Y-55684000D01*
%TO.N,/Text RAM\u002C MUX and Shiftregister1/TD6*%
X39878000Y-45466000D02*
X49276000Y-45466000D01*
X49276000Y-45466000D02*
X51562000Y-43180000D01*
%TO.N,/Text RAM\u002C MUX and Shiftregister1/TD5*%
X50799996Y-46482004D02*
X38862000Y-46482004D01*
X54102000Y-43180000D02*
X50799996Y-46482004D01*
%TO.N,/Text RAM\u002C MUX and Shiftregister1/TA9*%
X38862000Y-40640000D02*
X80518000Y-40640000D01*
X36322000Y-43180000D02*
X38862000Y-40640000D01*
X80772000Y-40894000D02*
X80518000Y-40640000D01*
%TO.N,/Text RAM\u002C MUX and Shiftregister1/TA8*%
X77470000Y-38100000D02*
X35560000Y-38100000D01*
%TO.N,/Text RAM\u002C MUX and Shiftregister1/LD0*%
X28702000Y-64516000D02*
X32766000Y-64516000D01*
X32766000Y-64516000D02*
X33528000Y-63754000D01*
X41402000Y-99822000D02*
X41402000Y-99695000D01*
X41769594Y-88646000D02*
X47752000Y-88646000D01*
X38862000Y-102362000D02*
X41402000Y-99822000D01*
X33528000Y-63754000D02*
X50292000Y-63754000D01*
X50292000Y-63754000D02*
X50546000Y-64008000D01*
X52070000Y-75692000D02*
X46736000Y-75692000D01*
%TO.N,/Text RAM\u002C MUX and Shiftregister1/LD1*%
X38862000Y-99822000D02*
X38862000Y-99695000D01*
X35306000Y-95504000D02*
X35052000Y-95250000D01*
X36322000Y-102362000D02*
X38862000Y-99822000D01*
X40132000Y-95504000D02*
X35306000Y-95504000D01*
%TO.N,/Text RAM\u002C MUX and Shiftregister1/LD2*%
X33782000Y-102362000D02*
X36322000Y-99822000D01*
X36322000Y-99822000D02*
X36322000Y-99695000D01*
%TO.N,/LD7*%
X45212000Y-91440000D02*
X38608010Y-91440000D01*
X29718000Y-91440000D02*
X38608010Y-91440000D01*
%TO.N,/Text RAM\u002C MUX and Shiftregister1/LD3*%
X31242000Y-102362000D02*
X33782000Y-99822000D01*
X33782000Y-99822000D02*
X33782000Y-99695000D01*
X28956000Y-75692000D02*
X28702000Y-75946000D01*
X37592000Y-75692000D02*
X28956000Y-75692000D01*
%TO.N,/Text RAM\u002C MUX and Shiftregister1/LD4*%
X31750010Y-93726010D02*
X31242000Y-93218000D01*
X40132000Y-93726010D02*
X34036000Y-93726010D01*
X34036000Y-93726010D02*
X31750010Y-93726010D01*
%TO.N,/Text RAM\u002C MUX and Shiftregister1/LD6*%
X31242000Y-68580000D02*
X28702000Y-68580000D01*
X32367000Y-66209009D02*
X32367000Y-67455000D01*
X32367000Y-67455000D02*
X31242000Y-68580000D01*
X33782000Y-77724000D02*
X29972000Y-77724000D01*
X33806009Y-64770000D02*
X32367000Y-66209009D01*
X43942000Y-64770000D02*
X33806009Y-64770000D01*
X42817000Y-85997000D02*
X43942000Y-87122000D01*
X36322000Y-84455000D02*
X37864000Y-85997000D01*
X37864000Y-85997000D02*
X42817000Y-85997000D01*
%TO.N,/Text RAM\u002C MUX and Shiftregister1/LD5*%
X33782000Y-84455000D02*
X36322000Y-86995000D01*
X36322000Y-86995000D02*
X36322000Y-87122000D01*
X31750000Y-80010000D02*
X27541000Y-80010000D01*
X41402000Y-66675000D02*
X37719000Y-70358000D01*
X37719000Y-70358000D02*
X26670000Y-70358000D01*
X27541000Y-80010000D02*
X27287000Y-79756000D01*
%TO.N,/Text RAM\u002C MUX and Shiftregister1/XD6*%
X74676000Y-96520000D02*
X73348000Y-97848000D01*
X54494016Y-96832000D02*
X52150016Y-94488000D01*
X60638396Y-96832000D02*
X54494016Y-96832000D01*
X73348000Y-97848000D02*
X61654396Y-97848000D01*
X52150016Y-94488000D02*
X51816000Y-94488000D01*
X61654396Y-97848000D02*
X60638396Y-96832000D01*
%TO.N,/Text RAM\u002C MUX and Shiftregister1/XD7*%
X50419000Y-85852000D02*
X66802000Y-85852000D01*
X49022000Y-84455000D02*
X50419000Y-85852000D01*
X66802000Y-85852000D02*
X68326000Y-87376000D01*
%TO.N,/Text RAM\u002C MUX and Shiftregister1/XD3*%
X74676000Y-104140000D02*
X72332000Y-106484000D01*
X53269000Y-106484000D02*
X53086000Y-106667000D01*
X72332000Y-106484000D02*
X53269000Y-106484000D01*
%TO.N,/Text RAM\u002C MUX and Shiftregister1/XD2*%
X60119991Y-103015000D02*
X59647991Y-103487000D01*
X72136000Y-104140000D02*
X71011000Y-103015000D01*
X59647991Y-103487000D02*
X57767000Y-103487000D01*
X71011000Y-103015000D02*
X60119991Y-103015000D01*
X57767000Y-103487000D02*
X56642000Y-102362000D01*
%TO.N,/Text RAM\u002C MUX and Shiftregister1/XD5*%
X77216000Y-96520000D02*
X75184000Y-98552000D01*
X60452000Y-97282000D02*
X53848000Y-97282000D01*
X75184000Y-98552000D02*
X61722000Y-98552000D01*
X61722000Y-98552000D02*
X60452000Y-97282000D01*
%TO.N,/Text RAM\u002C MUX and Shiftregister1/XD4*%
X55372000Y-101092000D02*
X79852000Y-101092000D01*
X79852000Y-101092000D02*
X80106000Y-100838000D01*
%TO.N,/Video Signal Genration/U18_4*%
X50166384Y-111252012D02*
X26670000Y-111252012D01*
X52822396Y-108596000D02*
X50166384Y-111252012D01*
X88138000Y-108712000D02*
X88022000Y-108596000D01*
X88022000Y-108596000D02*
X52822396Y-108596000D01*
X92202000Y-110236000D02*
X90678000Y-108712000D01*
X90678000Y-108712000D02*
X88138000Y-108712000D01*
%TO.N,/Graphic RAM\u002C MUX and Shiftregister/VA3*%
X211327996Y-44958000D02*
X211454998Y-45085002D01*
X186690000Y-44958000D02*
X211327996Y-44958000D01*
X186309000Y-44577000D02*
X186690000Y-44958000D01*
X163796630Y-43180000D02*
X165193630Y-44577000D01*
X165193630Y-44577000D02*
X186309000Y-44577000D01*
%TO.N,/Graphic RAM\u002C MUX and Shiftregister/VA1*%
X188995006Y-45485006D02*
X158500000Y-45485006D01*
X216045000Y-47135000D02*
X217170000Y-48260000D01*
X191770000Y-48260000D02*
X188995006Y-45485006D01*
X192895000Y-47135000D02*
X216045000Y-47135000D01*
X191770000Y-48260000D02*
X192895000Y-47135000D01*
%TO.N,/Graphic RAM\u002C MUX and Shiftregister/VA0*%
X187706000Y-38862000D02*
X187198000Y-38354000D01*
X212852000Y-38862000D02*
X187706000Y-38862000D01*
X154316626Y-39075000D02*
X154141626Y-39250000D01*
X186477000Y-39075000D02*
X154316626Y-39075000D01*
X187198000Y-38354000D02*
X186477000Y-39075000D01*
%TO.N,/Graphic RAM\u002C MUX and Shiftregister/VA5*%
X191770000Y-27940000D02*
X190645000Y-29065000D01*
X217170000Y-53340000D02*
X215646000Y-54864000D01*
X215646000Y-54864000D02*
X193294000Y-54864000D01*
X193294000Y-54864000D02*
X191770000Y-53340000D01*
X159841630Y-29065000D02*
X158716630Y-27940000D01*
X190645000Y-29065000D02*
X159841630Y-29065000D01*
%TO.N,/Graphic RAM\u002C MUX and Shiftregister/VA6*%
X183007000Y-46736000D02*
X163905630Y-46736000D01*
X208915000Y-27940000D02*
X207750000Y-26775000D01*
X207750000Y-26775000D02*
X185886412Y-26775000D01*
X185886412Y-26775000D02*
X184721412Y-27940000D01*
X163905630Y-46736000D02*
X163891630Y-46750000D01*
%TO.N,/Graphic RAM\u002C MUX and Shiftregister/VA4*%
X188105000Y-37084000D02*
X188831000Y-37810000D01*
X188831000Y-37810000D02*
X213868000Y-37810000D01*
X188087000Y-37084000D02*
X188105000Y-37084000D01*
X170400630Y-37084000D02*
X188087000Y-37084000D01*
X168876630Y-35560000D02*
X170400630Y-37084000D01*
%TO.N,/Graphic RAM\u002C MUX and Shiftregister/VA2*%
X215501000Y-52215000D02*
X205595000Y-52215000D01*
X172824315Y-42055000D02*
X173441315Y-42672000D01*
X205069000Y-51689000D02*
X190373012Y-51689000D01*
X168876630Y-43180000D02*
X170001630Y-42055000D01*
X170001630Y-42055000D02*
X172824315Y-42055000D01*
X173441315Y-42672000D02*
X190499996Y-42672000D01*
X205595000Y-52215000D02*
X205069000Y-51689000D01*
X215900000Y-51816000D02*
X215501000Y-52215000D01*
X190499996Y-42672000D02*
X190500000Y-42672004D01*
X190373012Y-51689000D02*
X190355004Y-51670992D01*
%TO.N,Net-(U31-Pad6)*%
X179500000Y-112250000D02*
X179022000Y-112728000D01*
X212331004Y-96787000D02*
X185500000Y-96787000D01*
X217424004Y-80264004D02*
X212598000Y-80264004D01*
X212598004Y-96520000D02*
X212331004Y-96787000D01*
X219075000Y-81915000D02*
X217424004Y-80264004D01*
X185750000Y-112250000D02*
X179500000Y-112250000D01*
%TO.N,/Graphic RAM\u002C MUX and Shiftregister/GD6*%
X189420728Y-81788000D02*
X189325364Y-81883364D01*
X199897994Y-81788000D02*
X189420728Y-81788000D01*
X197612000Y-71374000D02*
X197739000Y-71247000D01*
X180340000Y-32766000D02*
X196088000Y-32766000D01*
X190500000Y-71374000D02*
X197612000Y-71374000D01*
X200660000Y-82550006D02*
X199897994Y-81788000D01*
%TO.N,/Graphic RAM\u002C MUX and Shiftregister/~{WE}*%
X209296000Y-58674000D02*
X230505006Y-58674000D01*
X221615000Y-86614000D02*
X230378000Y-86614000D01*
X182735000Y-49385000D02*
X181610000Y-48260000D01*
X230378000Y-86614000D02*
X230505000Y-86741000D01*
X207010000Y-48260000D02*
X205885000Y-49385000D01*
X207010000Y-60960000D02*
X209296000Y-58674000D01*
X185674000Y-93472000D02*
X184150000Y-91948000D01*
X210566000Y-91948000D02*
X209042000Y-93472000D01*
X220472000Y-91948000D02*
X210566000Y-91948000D01*
X205885000Y-49385000D02*
X182735000Y-49385000D01*
X209042000Y-93472000D02*
X185674000Y-93472000D01*
%TO.N,/Graphic RAM\u002C MUX and Shiftregister/~{CAS}*%
X224027998Y-33401000D02*
X202691988Y-33401000D01*
X201090988Y-31800000D02*
X178004000Y-31800000D01*
X202691988Y-33401000D02*
X201090988Y-31800000D01*
X178004000Y-31800000D02*
X177800000Y-32004000D01*
%TO.N,/Graphic RAM\u002C MUX and Shiftregister/GD2*%
X196202000Y-43701000D02*
X181115000Y-43701000D01*
X181115000Y-43701000D02*
X180848000Y-43434000D01*
X196469000Y-43434000D02*
X196202000Y-43701000D01*
%TO.N,/Graphic RAM\u002C MUX and Shiftregister/GD7*%
X181102000Y-57150000D02*
X180847998Y-57404002D01*
X192786000Y-77978000D02*
X203200010Y-77978000D01*
X203200010Y-77978000D02*
X203454000Y-78231990D01*
X193040000Y-57150000D02*
X181102000Y-57150000D01*
%TO.N,/Graphic RAM\u002C MUX and Shiftregister/GD5*%
X201930000Y-68580000D02*
X203962000Y-70612000D01*
X203962000Y-70612000D02*
X204089000Y-70612000D01*
%TO.N,/Graphic RAM\u002C MUX and Shiftregister/GD3*%
X204851000Y-44196000D02*
X205613000Y-43434000D01*
X200406000Y-44196000D02*
X204851000Y-44196000D01*
%TO.N,Net-(U42-Pad12)*%
X220205000Y-67450000D02*
X225565000Y-67450000D01*
X219075000Y-68580000D02*
X220205000Y-67450000D01*
X220218000Y-84328000D02*
X226695000Y-84328000D01*
X225565000Y-67450000D02*
X226695000Y-68580000D01*
%TO.N,/Graphic RAM\u002C MUX and Shiftregister/~{RASCLKIN}*%
X137889000Y-124714000D02*
X145360996Y-124714000D01*
X183500000Y-140750000D02*
X139500002Y-140750000D01*
X191897000Y-99314000D02*
X187960000Y-99314000D01*
X136544998Y-123369998D02*
X137889000Y-124714000D01*
X139500002Y-140750000D02*
X137959996Y-139209994D01*
X145360996Y-124714000D02*
X146704998Y-123369998D01*
X193675000Y-101092000D02*
X191897000Y-99314000D01*
%TO.N,/Graphic RAM\u002C MUX and Shiftregister/RASCLKIN*%
X168461396Y-116821016D02*
X166918412Y-118364000D01*
X171525000Y-140000000D02*
X171512500Y-139987500D01*
X207518000Y-137250000D02*
X204768000Y-140000000D01*
X204768000Y-140000000D02*
X171525000Y-140000000D01*
X171512500Y-139987500D02*
X150129492Y-139987500D01*
X198755000Y-114935000D02*
X196868984Y-116821016D01*
X196868984Y-116821016D02*
X168461396Y-116821016D01*
X150129492Y-139987500D02*
X148119996Y-137978004D01*
X166918412Y-118364000D02*
X165250000Y-118364000D01*
%TO.N,/TDOTCLK*%
X79756000Y-104140000D02*
X78337000Y-102721000D01*
X78337000Y-102721000D02*
X73406000Y-102721000D01*
%TO.N,/GDOTCLK*%
X137941998Y-135307998D02*
X145307998Y-135307998D01*
X155611396Y-139225000D02*
X151966394Y-135579998D01*
X147829998Y-135579998D02*
X146704998Y-136704998D01*
X151966394Y-135579998D02*
X147829998Y-135579998D01*
X182683000Y-139225000D02*
X155611396Y-139225000D01*
X184658000Y-137250000D02*
X182683000Y-139225000D01*
X145307998Y-135307998D02*
X146704998Y-136704998D01*
X136544998Y-136704998D02*
X137941998Y-135307998D01*
X204470002Y-72771000D02*
X187815000Y-72771000D01*
%TO.N,Net-(U31-Pad10)*%
X170370000Y-114630000D02*
X172910000Y-114630000D01*
%TO.N,/~{R3}*%
X84582000Y-117856000D02*
X82042000Y-115316000D01*
X82042000Y-115316000D02*
X72136000Y-115316000D01*
%TO.N,/Text RAM\u002C MUX and Shiftregister1/TRAMWE*%
X28448000Y-49022000D02*
X27178000Y-50292000D01*
X41402000Y-49022000D02*
X28448000Y-49022000D01*
X70866000Y-89662000D02*
X25654000Y-89662000D01*
X25654000Y-89662000D02*
X25400000Y-89408000D01*
%TO.N,/Text RAM\u002C MUX and Shiftregister1/TA11*%
X38862000Y-43180000D02*
X39987000Y-44305000D01*
X65280146Y-64770000D02*
X65717146Y-65207000D01*
X49276000Y-64770000D02*
X65280146Y-64770000D01*
X74097000Y-65207000D02*
X74930000Y-66040000D01*
X65717146Y-65207000D02*
X74097000Y-65207000D01*
X39987000Y-44305000D02*
X47607000Y-44305000D01*
X47607000Y-44305000D02*
X48006000Y-44704000D01*
X49022000Y-64516000D02*
X49276000Y-64770000D01*
%TO.N,/V11*%
X91186000Y-79756000D02*
X110998000Y-79756000D01*
X110998000Y-79756000D02*
X115316000Y-75438000D01*
X76327000Y-77978000D02*
X89408000Y-77978000D01*
X74676000Y-76327000D02*
X76327000Y-77978000D01*
X89408000Y-77978000D02*
X91186000Y-79756000D01*
X115316000Y-75438000D02*
X124714000Y-75438000D01*
%TO.N,/4M6*%
X101785000Y-112083000D02*
X103124000Y-110744000D01*
X58021000Y-111759982D02*
X58344018Y-112083000D01*
X117025000Y-112268000D02*
X132324696Y-112268000D01*
X149244998Y-129084998D02*
X153834998Y-129084998D01*
X147668000Y-127508000D02*
X149244998Y-129084998D01*
X148461016Y-108712588D02*
X149823384Y-107350220D01*
X103124000Y-110744000D02*
X115501000Y-110744000D01*
X139084998Y-129084998D02*
X140661996Y-127508000D01*
X135880108Y-108712588D02*
X148461016Y-108712588D01*
X153834998Y-129084998D02*
X154000000Y-129250000D01*
X58344018Y-112083000D02*
X101785000Y-112083000D01*
X132324696Y-112268000D02*
X135880108Y-108712588D01*
X115501000Y-110744000D02*
X117025000Y-112268000D01*
X140661996Y-127508000D02*
X147668000Y-127508000D01*
X149823384Y-107350220D02*
X154018747Y-107350220D01*
%TO.N,/Graphic RAM\u002C MUX and Shiftregister/VA7*%
X168846016Y-29750000D02*
X192500000Y-29750000D01*
X199136000Y-29337000D02*
X217678000Y-29337000D01*
X194310000Y-27940000D02*
X197739000Y-27940000D01*
X197739000Y-27940000D02*
X199136000Y-29337000D01*
X192500000Y-29750000D02*
X194310000Y-27940000D01*
X153641630Y-31000000D02*
X167596016Y-31000000D01*
X167596016Y-31000000D02*
X168846016Y-29750000D01*
X217678000Y-29337000D02*
X219075000Y-27940000D01*
%TO.N,Net-(Y2-OUT)*%
X173620000Y-104500000D02*
X154250000Y-104500000D01*
X150820000Y-105500000D02*
X149450000Y-104130000D01*
X175490000Y-102630000D02*
X173620000Y-104500000D01*
X153250000Y-105500000D02*
X150820000Y-105500000D01*
X178240000Y-102630000D02*
X175490000Y-102630000D01*
D30*
X170610849Y-102645099D02*
X170639948Y-102616000D01*
X170639948Y-102616000D02*
X178226000Y-102616000D01*
X178226000Y-102616000D02*
X178240000Y-102630000D01*
D28*
X154250000Y-104500000D02*
X153250000Y-105500000D01*
D30*
%TO.N,Net-(U30-C2+)*%
X222758000Y-112776000D02*
X222758000Y-114878000D01*
X222758000Y-114878000D02*
X225630000Y-117750000D01*
%TO.N,Net-(U30-C2-)*%
X220258000Y-112776000D02*
X220258000Y-114918000D01*
X220258000Y-114918000D02*
X223090000Y-117750000D01*
%TO.N,Net-(U30-VS-)*%
X220712000Y-110250000D02*
X218948000Y-112014000D01*
X218948000Y-112014000D02*
X218948000Y-116148000D01*
X226750000Y-110250000D02*
X220712000Y-110250000D01*
X218948000Y-116148000D02*
X220550000Y-117750000D01*
%TO.N,Net-(U30-C1-)*%
X228170000Y-117750000D02*
X233144000Y-112776000D01*
%TO.N,Net-(U30-C1+)*%
X233250000Y-117750000D02*
X233250000Y-115250000D01*
X233250000Y-115250000D02*
X235712000Y-112788000D01*
D28*
%TO.N,Net-(D2-A)*%
X190125001Y-134875001D02*
X211326999Y-134875001D01*
X216662000Y-129540000D02*
X211326999Y-134875001D01*
X187750000Y-132500000D02*
X190125001Y-134875001D01*
%TO.N,Net-(JP1-C)*%
X65754000Y-105442000D02*
X47720000Y-105442000D01*
X67056000Y-104140000D02*
X65754000Y-105442000D01*
X47720000Y-105442000D02*
X46228000Y-106934000D01*
X46228000Y-106934000D02*
X46228000Y-108682000D01*
%TO.N,Net-(JP2-C)*%
X48768000Y-107188000D02*
X48768000Y-108682000D01*
X50064000Y-105892000D02*
X48768000Y-107188000D01*
X67844000Y-105892000D02*
X50064000Y-105892000D01*
X69596000Y-104140000D02*
X67844000Y-105892000D01*
%TO.N,Net-(JP4-C)*%
X36702998Y-82295998D02*
X27432000Y-82295998D01*
X38862000Y-84455000D02*
X36702998Y-82295998D01*
%TD*%
M02*
