M48
; DRILL file {KiCad 8.0.7-8.0.7-0~ubuntu22.04.1} date 2025-01-30T17:32:53+0100
; FORMAT={-:-/ absolute / inch / decimal}
; #@! TF.CreationDate,2025-01-30T17:32:53+01:00
; #@! TF.GenerationSoftware,Kicad,Pcbnew,8.0.7-8.0.7-0~ubuntu22.04.1
; #@! TF.FileFunction,MixedPlating,1,2
FMAT,2
INCH
; #@! TA.AperFunction,Plated,PTH,ViaDrill
T1C0.0157
; #@! TA.AperFunction,Plated,PTH,ViaDrill
T2C0.0236
; #@! TA.AperFunction,Plated,PTH,ComponentDrill
T3C0.0315
; #@! TA.AperFunction,Plated,PTH,ComponentDrill
T4C0.0354
; #@! TA.AperFunction,Plated,PTH,ComponentDrill
T5C0.0394
; #@! TA.AperFunction,Plated,PTH,ComponentDrill
T6C0.0472
; #@! TA.AperFunction,Plated,PTH,ComponentDrill
T7C0.0512
; #@! TA.AperFunction,NonPlated,NPTH,ComponentDrill
T8C0.0945
; #@! TA.AperFunction,NonPlated,NPTH,ComponentDrill
T9C0.1260
%
G90
G05
T1
X0.88Y-1.7
X0.89Y-2.63
X0.89Y-2.92
X0.89Y-3.33
X0.89Y-3.44
X0.89Y-4.04
X0.89Y-4.25
X0.89Y-4.65
X0.95Y-1.18
X0.95Y-4.6
X0.99Y-3.61
X1.0Y-3.52
X1.05Y-2.77
X1.05Y-4.38
X1.07Y-1.98
X1.0743Y-3.14
X1.08Y-3.24
X1.0857Y-2.43
X1.13Y-1.99
X1.13Y-2.54
X1.13Y-2.7
X1.13Y-2.99
X1.14Y-1.03
X1.14Y-3.21
X1.14Y-1.4
X1.17Y-3.6
X1.18Y-2.45
X1.18Y-3.06
X1.18Y-4.6488
X1.23Y-2.11
X1.23Y-3.67
X1.24Y-2.01
X1.25Y-3.15
X1.27Y-2.49
X1.33Y-3.06
X1.34Y-2.08
X1.34Y-3.69
X1.35Y-4.66
X1.38Y-1.89
X1.38Y-3.75
X1.4Y-1.5
X1.4144Y-4.4105
X1.44Y-2.11
X1.48Y-1.86
X1.48Y-2.98
X1.52Y-3.6
X1.53Y-1.83
X1.53Y-2.15
X1.57Y-1.79
X1.58Y-3.69
X1.58Y-3.76
X1.6Y-4.64
X1.63Y-1.93
X1.63Y-3.22
X1.6445Y-3.49
X1.68Y-2.71
X1.68Y-3.1
X1.69Y-3.1697
X1.72Y-2.21
X1.725Y-1.295
X1.73Y-2.55
X1.78Y-2.76
X1.78Y-3.6
X1.7864Y-2.2117
X1.82Y-1.21
X1.82Y-4.2788
X1.83Y-1.93
X1.84Y-2.98
X1.84Y-3.2065
X1.8422Y-2.8566
X1.88Y-2.57
X1.88Y-3.49
X1.88Y-3.67
X1.89Y-1.76
X1.91Y-3.11
X1.92Y-1.0
X1.92Y-4.2788
X1.925Y-1.29
X1.93Y-2.54
X1.99Y-2.52
X2.0Y-4.7
X2.0256Y-2.4195
X2.04Y-2.85
X2.04Y-3.72
X2.04Y-4.45
X2.05Y-2.98
X2.07Y-3.64
X2.09Y-4.1995
X2.0928Y-4.75
X2.12Y-3.83
X2.13Y-2.4395
X2.14Y-4.89
X2.16Y-4.84
X2.18Y-3.98
X2.1954Y-2.4465
X2.1954Y-2.6796
X2.1995Y-3.1282
X2.22Y-5.16
X2.23Y-3.26
X2.28Y-2.45
X2.2843Y-4.4
X2.29Y-3.17
X2.31Y-2.8724
X2.32Y-4.115
X2.33Y-1.94
X2.42Y-1.56
X2.4272Y-2.205
X2.45Y-3.8
X2.47Y-0.88
X2.485Y-4.945
X2.51Y-3.49
X2.53Y-2.15
X2.5362Y-2.8724
X2.55Y-3.24
X2.5644Y-2.6125
X2.59Y-1.37
X2.59Y-3.29
X2.6Y-2.34
X2.61Y-1.5635
X2.64Y-2.89
X2.64Y-5.34
X2.6843Y-4.54
X2.69Y-2.83
X2.69Y-3.44
X2.69Y-3.7
X2.6922Y-4.2405
X2.71Y-3.22
X2.735Y-2.415
X2.74Y-2.8
X2.74Y-5.374
X2.76Y-2.335
X2.76Y-3.38
X2.79Y-3.53
X2.805Y-2.405
X2.825Y-1.835
X2.84Y-2.6135
X2.84Y-3.43
X2.84Y-3.53
X2.84Y-4.54
X2.85Y-1.92
X2.865Y-3.695
X2.89Y-2.85
X2.89Y-4.0441
X2.89Y-4.67
X2.9Y-1.84
X2.9Y-2.1
X2.91Y-1.04
X2.935Y-1.0919
X2.94Y-2.8
X2.95Y-2.6
X2.97Y-2.95
X2.99Y-0.89
X2.99Y-5.01
X2.995Y-4.96
X3.0Y-2.11
X3.03Y-3.94
X3.04Y-4.18
X3.05Y-1.5
X3.09Y-1.09
X3.1Y-3.58
X3.1Y-2.32
X3.1116Y-1.4484
X3.1234Y-4.8266
X3.1538Y-3.97
X3.1631Y-1.2423
X3.1791Y-5.43
X3.18Y-1.61
X3.1813Y-4.82
X3.2Y-4.48
X3.22Y-1.3159
X3.22Y-1.53
X3.24Y-2.95
X3.25Y-4.6149
X3.25Y-2.64
X3.26Y-5.13
X3.2895Y-2.8055
X3.3026Y-2.07
X3.3182Y-1.67
X3.32Y-1.8
X3.33Y-3.72
X3.33Y-4.49
X3.335Y-1.595
X3.3351Y-3.3949
X3.34Y-5.245
X3.3584Y-3.5216
X3.36Y-1.0075
X3.36Y-1.31
X3.37Y-2.315
X3.37Y-2.51
X3.3705Y-1.99
X3.38Y-3.23
X3.38Y-3.0
X3.3836Y-1.1905
X3.3857Y-5.0295
X3.4005Y-3.9532
X3.4113Y-2.5418
X3.43Y-3.88
X3.4384Y-1.5416
X3.44Y-3.56
X3.4405Y-1.6369
X3.45Y-4.04
X3.4505Y-3.11
X3.4537Y-3.4484
X3.4582Y-1.84
X3.46Y-2.86
X3.47Y-4.5013
X3.49Y-3.0
X3.4967Y-0.9865
X3.5Y-4.25
X3.5Y-2.7
X3.51Y-2.23
X3.56Y-2.04
X3.57Y-2.92
X3.57Y-3.74
X3.58Y-4.8863
X3.6Y-0.98
X3.62Y-1.47
X3.62Y-1.61
X3.63Y-2.95
X3.66Y-0.98
X3.67Y-2.37
X3.67Y-4.4413
X3.685Y-5.035
X3.71Y-2.11
X3.7243Y-3.84
X3.73Y-2.06
X3.76Y-1.17
X3.77Y-4.5684
X3.78Y-4.9518
X3.785Y-5.065
X3.82Y-2.91
X3.8221Y-4.2695
X3.8338Y-3.4205
X3.8473Y-1.9063
X3.86Y-1.29
X3.86Y-1.8509
X3.875Y-3.055
X3.88Y-4.965
X3.885Y-5.5
X3.91Y-2.96
X3.9132Y-3.1095
X3.915Y-2.47
X3.92Y-2.13
X3.93Y-4.24
X3.93Y-5.2
X3.9395Y-3.3478
X3.95Y-1.22
X3.9597Y-2.23
X3.96Y-2.36
X3.99Y-3.96
X4.0089Y-2.8
X4.08Y-4.0149
X4.09Y-2.13
X4.095Y-1.815
X4.11Y-1.5
X4.127Y-2.4605
X4.16Y-2.9039
X4.18Y-3.93
X4.22Y-2.79
X4.2243Y-4.2265
X4.26Y-1.65
X4.28Y-3.97
X4.3078Y-2.3978
X4.31Y-2.76
X4.37Y-3.78
X4.4084Y-3.0584
X4.41Y-2.43
X4.41Y-2.7395
X4.43Y-3.59
X4.4784Y-3.9016
X4.48Y-3.68
X4.49Y-0.95
X4.5Y-3.85
X4.51Y-3.4095
X4.52Y-2.47
X4.52Y-3.09
X4.53Y-0.91
X4.56Y-3.45
X4.58Y-2.01
X4.58Y-3.63
X4.62Y-1.84
X4.6207Y-2.4596
X4.63Y-3.05
X4.64Y-5.29
X4.72Y-2.93
X4.7299Y-3.59
X4.73Y-1.88
X4.73Y-3.46
X4.78Y-4.7542
X4.79Y-4.52
X4.8086Y-2.7318
X4.84Y-3.65
X4.85Y-2.02
X4.91Y-2.97
X4.9132Y-1.9895
X4.92Y-2.86
X4.93Y-1.2736
X4.96Y-3.15
X4.975Y-2.68
X4.98Y-3.83
X5.0Y-2.16
X5.0Y-3.7386
X5.01Y-5.27
X5.0191Y-1.7859
X5.03Y-3.4095
X5.04Y-2.2
X5.06Y-1.33
X5.06Y-3.95
X5.0689Y-5.29
X5.07Y-4.07
X5.09Y-1.1905
X5.09Y-5.21
X5.1Y-3.76
X5.1516Y-3.6016
X5.16Y-3.0579
X5.16Y-4.12
X5.21Y-1.97
X5.2224Y-2.7663
X5.24Y-2.89
X5.25Y-0.89
X5.2589Y-1.8789
X5.28Y-2.92
X5.28Y-4.07
X5.31Y-0.94
X5.315Y-1.97
X5.32Y-4.46
X5.37Y-2.18
X5.37Y-3.77
X5.41Y-3.0402
X5.415Y-1.955
X5.4315Y-5.4807
X5.4427Y-2.755
X5.4595Y-2.8581
X5.46Y-1.25
X5.47Y-1.82
X5.4724Y-5.2657
X5.5176Y-2.1828
X5.56Y-0.95
X5.5752Y-4.7082
X5.5905Y-1.24
X5.5906Y-1.6339
X5.6Y-0.89
X5.6005Y-1.5079
X5.6102Y-1.7618
X5.6197Y-3.8197
X5.6299Y-1.565
X5.6496Y-2.8937
X5.65Y-4.46
X5.6594Y-1.07
X5.66Y-4.04
X5.6946Y-1.3091
X5.7241Y-2.3979
X5.7327Y-1.998
X5.77Y-4.7
X5.7721Y-1.7
X5.79Y-3.7595
X5.8315Y-5.4322
X5.8494Y-3.8224
X5.8585Y-3.57
X5.87Y-4.21
X5.9127Y-1.291
X5.9294Y-4.31
X5.9487Y-3.3809
X5.95Y-4.67
X5.9547Y-5.2756
X5.9603Y-2.126
X6.0295Y-4.27
X6.0423Y-3.89
X6.0489Y-1.2205
X6.063Y-5.0886
X6.0637Y-3.4937
X6.0637Y-4.2264
X6.0686Y-1.5453
X6.1024Y-3.0325
X6.1487Y-1.4961
X6.1487Y-3.0217
X6.1499Y-1.8426
X6.1516Y-2.8248
X6.1909Y-2.2146
X6.1909Y-1.6142
X6.193Y-2.7461
X6.2008Y-1.0305
X6.2402Y-1.7907
X6.2894Y-4.065
X6.2894Y-4.1634
X6.29Y-3.06
X6.3446Y-1.8406
X6.3487Y-2.53
X6.35Y-4.9
X6.3937Y-3.3366
X6.4524Y-1.8406
X6.4937Y-3.5541
X6.5059Y-4.66
X6.51Y-4.0
X6.5453Y-1.1821
X6.5487Y-2.4409
X6.5487Y-3.04
X6.5657Y-2.6779
X6.5748Y-4.6063
X6.5748Y-4.7173
X6.59Y-3.89
X6.6339Y-5.315
X6.6831Y-3.376
X6.6929Y-3.002
X6.7487Y-1.6043
X6.7525Y-5.5113
X6.7906Y-2.0904
X6.8504Y-3.3268
X6.86Y-4.41
X6.865Y-0.9
X6.865Y-1.095
X6.865Y-1.405
X6.865Y-1.595
X6.865Y-2.0
X6.865Y-2.095
X6.865Y-2.34
X6.865Y-2.6
X6.8799Y-4.2815
X6.8996Y-3.1594
X7.0Y-1.26
X7.0177Y-3.2185
X7.0276Y-3.7992
X7.0481Y-4.4381
X7.0669Y-2.4902
X7.0669Y-3.735
X7.0931Y-4.3406
X7.0965Y-3.1398
X7.0965Y-3.645
X7.1025Y-1.2875
X7.12Y-2.26
X7.12Y-1.71
X7.126Y-2.4902
X7.126Y-3.2441
X7.127Y-2.8248
X7.15Y-3.98
X7.1654Y-3.3
X7.1752Y-2.6969
X7.185Y-2.4705
X7.205Y-1.84
X7.2244Y-5.5413
X7.25Y-2.2984
X7.27Y-5.4035
X7.2736Y-4.7441
X7.2933Y-0.9695
X7.3Y-2.22
X7.3031Y-3.8105
X7.313Y-4.4193
X7.335Y-1.755
X7.3524Y-4.7146
X7.357Y-4.205
X7.37Y-1.51
X7.3726Y-4.4876
X7.3943Y-2.865
X7.4Y-3.91
X7.405Y-1.46
X7.4311Y-4.5571
X7.4538Y-3.2238
X7.4943Y-2.0343
X7.5Y-1.68
X7.5Y-2.81
X7.525Y-4.665
X7.58Y-3.84
X7.59Y-3.07
X7.6Y-2.25
X7.625Y-4.63
X7.72Y-1.29
X7.735Y-1.71
X7.785Y-2.805
X7.8Y-3.49
X7.84Y-1.1
X7.84Y-1.41
X7.84Y-1.91
X7.84Y-2.1
X7.84Y-2.39
X7.84Y-2.59
X7.84Y-0.975
X7.845Y-1.6
X7.87Y-4.66
X7.88Y-3.775
X7.885Y-3.52
X7.89Y-1.74
X7.9Y-3.25
X7.93Y-4.7
X7.98Y-1.315
X7.98Y-4.92
X8.01Y-3.08
X8.035Y-2.78
X8.05Y-2.865
X8.095Y-1.71
X8.1Y-2.785
X8.17Y-5.4035
X8.22Y-2.59
X8.25Y-2.245
X8.26Y-5.25
X8.2776Y-4.1535
X8.2776Y-2.5066
X8.32Y-2.74
X8.32Y-3.22
X8.32Y-3.695
X8.32Y-4.015
X8.32Y-4.22
X8.325Y-1.775
X8.37Y-4.29
X8.37Y-3.16
X8.37Y-3.92
X8.37Y-3.8
X8.38Y-1.53
X8.4207Y-1.4893
X8.425Y-3.375
X8.455Y-4.4
X8.5Y-2.04
X8.505Y-2.255
X8.53Y-3.305
X8.535Y-4.16
X8.58Y-2.9
X8.63Y-3.425
X8.635Y-4.155
X8.67Y-3.32
X8.68Y-3.62
X8.725Y-3.41
X8.73Y-0.9931
X8.77Y-3.62
X8.78Y-1.035
X8.82Y-1.315
X8.825Y-2.905
X8.825Y-4.195
X8.86Y-1.355
X8.87Y-4.08
X8.895Y-1.51
X8.925Y-3.32
X9.02Y-2.185
X9.075Y-3.415
X9.075Y-2.31
X9.11Y-3.52
X9.11Y-4.01
X9.12Y-3.0
X9.12Y-2.53
X9.155Y-4.23
X9.16Y-4.14
X9.165Y-3.12
X9.1725Y-2.9225
T2
X5.7654Y-3.2436
X7.0669Y-4.92
X7.91Y-5.01
T3
X1.03Y-1.7
X1.03Y-2.3
X1.03Y-2.625
X1.03Y-2.925
X1.03Y-3.43
X1.03Y-4.03
X1.05Y-4.24
X1.05Y-4.54
X1.13Y-1.7
X1.13Y-2.3
X1.13Y-2.625
X1.13Y-2.925
X1.13Y-3.43
X1.13Y-4.03
X1.15Y-4.24
X1.15Y-4.54
X1.23Y-1.7
X1.23Y-2.3
X1.23Y-2.625
X1.23Y-2.925
X1.23Y-3.325
X1.23Y-3.43
X1.23Y-3.925
X1.23Y-4.03
X1.25Y-4.24
X1.25Y-4.54
X1.33Y-1.7
X1.33Y-2.3
X1.33Y-2.625
X1.33Y-2.925
X1.33Y-3.325
X1.33Y-3.43
X1.33Y-3.925
X1.33Y-4.03
X1.35Y-4.24
X1.35Y-4.54
X1.425Y-1.1
X1.425Y-1.4
X1.43Y-1.7
X1.43Y-2.3
X1.43Y-2.625
X1.43Y-2.925
X1.43Y-3.325
X1.43Y-3.43
X1.43Y-3.925
X1.43Y-4.03
X1.45Y-4.24
X1.45Y-4.54
X1.525Y-1.1
X1.525Y-1.4
X1.53Y-1.7
X1.53Y-2.3
X1.53Y-2.625
X1.53Y-2.925
X1.53Y-3.325
X1.53Y-3.43
X1.53Y-3.925
X1.53Y-4.03
X1.55Y-4.24
X1.55Y-4.54
X1.625Y-1.1
X1.625Y-1.4
X1.63Y-1.7
X1.63Y-2.3
X1.63Y-2.625
X1.63Y-2.925
X1.63Y-3.325
X1.63Y-3.43
X1.63Y-3.925
X1.63Y-4.03
X1.65Y-4.24
X1.65Y-4.54
X1.725Y-1.1
X1.725Y-1.4
X1.73Y-1.7
X1.73Y-2.3
X1.73Y-2.625
X1.73Y-2.925
X1.73Y-3.325
X1.73Y-3.43
X1.73Y-3.925
X1.73Y-4.03
X1.82Y-1.0
X1.825Y-1.1
X1.825Y-1.4
X1.83Y-1.7
X1.83Y-2.3
X1.83Y-2.625
X1.83Y-2.925
X1.83Y-3.325
X1.83Y-3.43
X1.83Y-3.925
X1.83Y-4.03
X1.925Y-1.1
X1.925Y-1.4
X1.93Y-1.7
X1.93Y-2.3
X1.93Y-2.625
X1.93Y-2.925
X1.93Y-3.325
X1.93Y-3.43
X1.93Y-3.925
X1.93Y-4.03
X1.9363Y-5.41
X2.0169Y-1.0
X2.025Y-1.1
X2.025Y-1.4
X2.03Y-1.7
X2.03Y-2.3
X2.03Y-3.325
X2.03Y-3.43
X2.03Y-3.925
X2.03Y-4.03
X2.125Y-1.1
X2.125Y-1.4
X2.13Y-1.7
X2.13Y-2.3
X2.13Y-3.325
X2.13Y-3.43
X2.13Y-3.925
X2.13Y-4.03
X2.1331Y-5.41
X2.14Y-4.32
X2.14Y-4.62
X2.2231Y-5.57
X2.225Y-1.1
X2.225Y-1.4
X2.23Y-1.7
X2.23Y-2.3
X2.23Y-3.325
X2.23Y-3.43
X2.23Y-3.925
X2.23Y-4.03
X2.24Y-4.32
X2.24Y-4.62
X2.31Y-5.0331
X2.31Y-5.23
X2.325Y-1.1
X2.325Y-1.4
X2.33Y-1.7
X2.33Y-2.3
X2.33Y-3.325
X2.33Y-3.43
X2.33Y-3.925
X2.33Y-4.03
X2.34Y-4.32
X2.34Y-4.62
X2.42Y-5.57
X2.44Y-2.705
X2.44Y-3.005
X2.44Y-3.09
X2.44Y-3.2869
X2.44Y-4.32
X2.44Y-4.62
X2.44Y-4.825
X2.44Y-5.125
X2.4977Y-1.7069
X2.4977Y-2.0069
X2.5Y-2.205
X2.5Y-2.505
X2.54Y-2.705
X2.54Y-3.005
X2.54Y-3.8
X2.54Y-4.1
X2.54Y-4.32
X2.54Y-4.62
X2.54Y-4.825
X2.54Y-5.125
X2.54Y-5.225
X2.54Y-5.525
X2.5977Y-1.7069
X2.5977Y-2.0069
X2.6Y-2.205
X2.6Y-2.505
X2.64Y-2.705
X2.64Y-3.005
X2.64Y-3.8
X2.64Y-4.1
X2.64Y-4.32
X2.64Y-4.62
X2.64Y-4.825
X2.64Y-5.125
X2.64Y-5.225
X2.64Y-5.525
X2.6977Y-1.7069
X2.6977Y-2.0069
X2.7Y-2.205
X2.7Y-2.505
X2.74Y-2.705
X2.74Y-3.005
X2.74Y-3.8
X2.74Y-4.1
X2.74Y-4.32
X2.74Y-4.62
X2.74Y-4.825
X2.74Y-5.125
X2.74Y-5.225
X2.74Y-5.525
X2.7977Y-1.7069
X2.7977Y-2.0069
X2.8Y-2.205
X2.8Y-2.505
X2.84Y-2.705
X2.84Y-3.005
X2.84Y-3.8
X2.84Y-4.1
X2.84Y-4.32
X2.84Y-4.62
X2.84Y-4.825
X2.84Y-5.125
X2.84Y-5.225
X2.84Y-5.525
X2.8977Y-1.7069
X2.8977Y-2.0069
X2.9Y-2.205
X2.9Y-2.505
X2.94Y-2.705
X2.94Y-3.005
X2.94Y-3.8
X2.94Y-4.1
X2.94Y-4.32
X2.94Y-4.62
X2.94Y-4.825
X2.94Y-5.125
X2.94Y-5.225
X2.94Y-5.525
X2.9977Y-1.7069
X2.9977Y-2.0069
X3.0Y-2.205
X3.0Y-2.505
X3.04Y-2.705
X3.04Y-3.005
X3.04Y-3.8
X3.04Y-4.1
X3.04Y-4.32
X3.04Y-4.62
X3.04Y-4.825
X3.04Y-5.125
X3.04Y-5.225
X3.04Y-5.525
X3.0977Y-1.7069
X3.0977Y-2.0069
X3.1Y-2.205
X3.1Y-2.505
X3.14Y-2.705
X3.14Y-3.005
X3.14Y-3.8
X3.14Y-4.1
X3.14Y-5.225
X3.14Y-5.525
X3.16Y-1.1
X3.16Y-1.4
X3.1977Y-1.7069
X3.1977Y-2.0069
X3.2Y-2.205
X3.2Y-2.505
X3.24Y-3.8
X3.24Y-4.1
X3.24Y-5.225
X3.24Y-5.525
X3.26Y-1.1
X3.26Y-1.4
X3.33Y-4.34
X3.33Y-4.64
X3.33Y-4.825
X3.33Y-5.125
X3.36Y-1.1
X3.36Y-1.4
X3.395Y-5.3381
X3.395Y-5.535
X3.43Y-4.34
X3.43Y-4.64
X3.43Y-4.825
X3.43Y-5.125
X3.46Y-1.1
X3.46Y-1.4
X3.515Y-1.715
X3.515Y-2.315
X3.515Y-2.615
X3.515Y-3.215
X3.53Y-3.8831
X3.53Y-4.08
X3.53Y-4.34
X3.53Y-4.64
X3.53Y-4.825
X3.53Y-5.125
X3.56Y-1.1
X3.56Y-1.4
X3.615Y-1.715
X3.615Y-2.315
X3.615Y-2.615
X3.615Y-3.215
X3.63Y-4.34
X3.63Y-4.64
X3.63Y-4.825
X3.63Y-5.125
X3.66Y-1.1
X3.66Y-1.4
X3.68Y-3.53
X3.68Y-4.13
X3.715Y-1.715
X3.715Y-2.315
X3.715Y-2.615
X3.715Y-3.215
X3.73Y-4.34
X3.73Y-4.64
X3.73Y-4.825
X3.73Y-5.125
X3.76Y-1.1
X3.76Y-1.4
X3.78Y-3.53
X3.78Y-4.13
X3.815Y-1.715
X3.815Y-2.315
X3.815Y-2.615
X3.815Y-3.215
X3.83Y-4.34
X3.83Y-4.64
X3.83Y-4.825
X3.83Y-5.125
X3.86Y-1.1
X3.86Y-1.4
X3.88Y-3.53
X3.88Y-4.13
X3.915Y-1.715
X3.915Y-2.315
X3.915Y-2.615
X3.915Y-3.215
X3.93Y-4.34
X3.93Y-4.64
X3.93Y-4.825
X3.93Y-5.125
X3.96Y-1.1
X3.96Y-1.4
X3.98Y-3.53
X3.98Y-4.13
X4.015Y-1.715
X4.015Y-2.315
X4.015Y-2.615
X4.015Y-3.215
X4.06Y-1.1
X4.06Y-1.4
X4.08Y-3.53
X4.08Y-4.13
X4.115Y-1.715
X4.115Y-2.315
X4.115Y-2.615
X4.115Y-3.215
X4.18Y-3.53
X4.18Y-4.13
X4.215Y-1.715
X4.215Y-2.315
X4.215Y-2.615
X4.215Y-3.215
X4.22Y-5.505
X4.28Y-3.53
X4.28Y-4.13
X4.315Y-1.715
X4.315Y-2.315
X4.315Y-2.615
X4.315Y-3.215
X4.32Y-5.405
X4.32Y-5.605
X4.38Y-3.53
X4.38Y-4.13
X4.415Y-1.715
X4.415Y-2.315
X4.415Y-2.615
X4.415Y-3.215
X4.44Y-5.51
X4.48Y-3.53
X4.48Y-4.13
X4.515Y-1.715
X4.515Y-2.315
X4.515Y-2.615
X4.515Y-3.215
X4.54Y-5.41
X4.54Y-5.61
X4.58Y-3.53
X4.58Y-4.13
X4.615Y-1.715
X4.615Y-2.315
X4.615Y-2.615
X4.615Y-3.215
X4.68Y-3.53
X4.68Y-4.13
X4.715Y-1.715
X4.715Y-2.315
X4.715Y-2.615
X4.715Y-3.215
X4.78Y-3.53
X4.78Y-4.13
X4.815Y-1.715
X4.815Y-2.315
X4.815Y-2.615
X4.815Y-3.215
X4.88Y-3.53
X4.88Y-4.13
X4.91Y-1.1
X4.91Y-1.4
X4.915Y-1.715
X4.915Y-2.315
X4.915Y-2.615
X4.915Y-3.215
X4.9311Y-5.0197
X4.9311Y-5.2165
X4.98Y-3.53
X4.98Y-4.13
X5.01Y-1.1
X5.01Y-1.4
X5.015Y-1.715
X5.015Y-2.315
X5.015Y-2.615
X5.015Y-3.215
X5.0716Y-4.15
X5.11Y-1.1
X5.11Y-1.4
X5.115Y-1.715
X5.115Y-2.315
X5.115Y-2.615
X5.115Y-3.215
X5.1616Y-3.49
X5.2067Y-3.637
X5.2067Y-3.937
X5.21Y-1.1
X5.21Y-1.4
X5.215Y-1.715
X5.215Y-2.315
X5.215Y-2.615
X5.215Y-3.215
X5.2684Y-4.15
X5.2758Y-4.5571
X5.2758Y-4.8571
X5.2758Y-5.0821
X5.2758Y-5.3821
X5.3067Y-3.637
X5.3067Y-3.937
X5.31Y-1.1
X5.31Y-1.4
X5.315Y-1.715
X5.315Y-2.315
X5.315Y-2.615
X5.315Y-3.215
X5.3584Y-3.49
X5.3758Y-4.5571
X5.3758Y-4.8571
X5.3758Y-5.0821
X5.3758Y-5.3821
X5.3839Y-4.0996
X5.3839Y-4.3996
X5.4067Y-3.637
X5.4067Y-3.937
X5.41Y-1.1
X5.41Y-1.4
X5.415Y-1.715
X5.415Y-2.315
X5.415Y-2.615
X5.415Y-3.215
X5.4758Y-4.5571
X5.4758Y-4.8571
X5.4758Y-5.0821
X5.4758Y-5.3821
X5.4839Y-4.0996
X5.4839Y-4.3996
X5.5067Y-3.637
X5.5067Y-3.937
X5.51Y-1.1
X5.51Y-1.4
X5.5758Y-4.5571
X5.5758Y-4.8571
X5.5758Y-5.0821
X5.5758Y-5.3821
X5.5839Y-4.0996
X5.5839Y-4.3996
X5.6067Y-3.637
X5.6067Y-3.937
X5.6552Y-2.1949
X5.6631Y-2.79
X5.6758Y-4.5571
X5.6758Y-4.8571
X5.6758Y-5.0821
X5.6758Y-5.3821
X5.6839Y-4.0996
X5.6839Y-4.3996
X5.7067Y-3.637
X5.7067Y-3.937
X5.7087Y-1.2008
X5.7087Y-1.3976
X5.7758Y-4.5571
X5.7758Y-4.8571
X5.7758Y-5.0821
X5.7758Y-5.3821
X5.7831Y-4.96
X5.7839Y-4.0996
X5.7839Y-4.3996
X5.8067Y-3.637
X5.8067Y-3.937
X5.8487Y-1.1
X5.8487Y-1.4
X5.8487Y-1.7
X5.8487Y-2.0
X5.8487Y-2.3
X5.8487Y-2.6
X5.8487Y-2.9
X5.8487Y-3.2
X5.852Y-2.1949
X5.86Y-2.79
X5.8758Y-4.5571
X5.8758Y-4.8571
X5.8758Y-5.0821
X5.8758Y-5.3821
X5.8839Y-4.0996
X5.8839Y-4.3996
X5.9067Y-3.637
X5.9067Y-3.937
X5.9487Y-1.1
X5.9487Y-1.4
X5.9487Y-1.7
X5.9487Y-2.0
X5.9487Y-2.3
X5.9487Y-2.6
X5.9487Y-2.9
X5.9487Y-3.2
X5.98Y-4.96
X5.9839Y-4.0996
X5.9839Y-4.3996
X6.0487Y-1.1
X6.0487Y-1.4
X6.0487Y-1.7
X6.0487Y-2.0
X6.0487Y-2.3
X6.0487Y-2.6
X6.0487Y-2.9
X6.0487Y-3.2
X6.1487Y-1.1
X6.1487Y-1.4
X6.1487Y-1.7
X6.1487Y-2.0
X6.1487Y-2.3
X6.1487Y-2.6
X6.1487Y-2.9
X6.1487Y-3.2
X6.1487Y-3.4937
X6.1487Y-3.7937
X6.2487Y-1.1
X6.2487Y-1.4
X6.2487Y-1.7
X6.2487Y-2.0
X6.2487Y-2.3
X6.2487Y-2.6
X6.2487Y-2.9
X6.2487Y-3.2
X6.2487Y-3.4937
X6.2487Y-3.7937
X6.26Y-4.7
X6.26Y-4.8969
X6.3487Y-1.1
X6.3487Y-1.4
X6.3487Y-1.7
X6.3487Y-2.0
X6.3487Y-2.3
X6.3487Y-2.6
X6.3487Y-2.9
X6.3487Y-3.2
X6.3487Y-3.4937
X6.3487Y-3.7937
X6.4075Y-4.513
X6.4075Y-4.813
X6.417Y-4.0411
X6.417Y-4.3411
X6.4173Y-4.0406
X6.4173Y-4.3406
X6.4487Y-1.1
X6.4487Y-1.4
X6.4487Y-1.7
X6.4487Y-2.0
X6.4487Y-2.3
X6.4487Y-2.6
X6.4487Y-2.9
X6.4487Y-3.2
X6.4487Y-3.4937
X6.4487Y-3.7937
X6.5075Y-4.513
X6.5075Y-4.813
X6.5487Y-1.1
X6.5487Y-1.4
X6.5487Y-1.7
X6.5487Y-2.0
X6.5487Y-2.3
X6.5487Y-2.6
X6.5487Y-2.9
X6.5487Y-3.2
X6.5487Y-3.4937
X6.5487Y-3.7937
X6.6075Y-4.513
X6.6075Y-4.813
X6.6487Y-1.1
X6.6487Y-1.4
X6.6487Y-1.7
X6.6487Y-2.0
X6.6487Y-2.3
X6.6487Y-2.6
X6.6487Y-2.9
X6.6487Y-3.2
X6.6487Y-3.4937
X6.6487Y-3.7937
X6.7075Y-4.513
X6.7075Y-4.813
X6.717Y-4.0411
X6.717Y-4.3411
X6.7487Y-1.1
X6.7487Y-1.4
X6.7487Y-1.7
X6.7487Y-2.0
X6.7487Y-2.3
X6.7487Y-2.6
X6.7487Y-2.9
X6.7487Y-3.2
X6.7487Y-3.4937
X6.7487Y-3.7937
X6.8075Y-4.513
X6.8075Y-4.813
X6.9075Y-4.513
X6.9075Y-4.813
X6.95Y-1.1
X6.95Y-1.4
X6.95Y-1.6
X6.95Y-1.9
X6.95Y-2.1
X6.95Y-2.4
X6.998Y-5.0591
X7.0075Y-4.513
X7.0075Y-4.813
X7.0173Y-4.0406
X7.0173Y-4.3406
X7.05Y-1.1
X7.05Y-1.4
X7.05Y-1.6
X7.05Y-1.9
X7.05Y-2.1
X7.05Y-2.4
X7.0553Y-5.2264
X7.15Y-1.1
X7.15Y-1.4
X7.15Y-1.6
X7.15Y-1.9
X7.15Y-2.1
X7.15Y-2.4
X7.1537Y-5.2264
X7.1949Y-5.0591
X7.25Y-1.1
X7.25Y-1.4
X7.25Y-1.6
X7.25Y-1.9
X7.25Y-2.1
X7.25Y-2.4
X7.25Y-2.6
X7.25Y-2.7969
X7.25Y-3.3
X7.25Y-3.6
X7.35Y-1.1
X7.35Y-1.4
X7.35Y-1.6
X7.35Y-1.9
X7.35Y-2.1
X7.35Y-2.4
X7.35Y-3.3
X7.35Y-3.6
X7.45Y-1.1
X7.45Y-1.4
X7.45Y-1.6
X7.45Y-1.9
X7.45Y-2.1
X7.45Y-2.4
X7.45Y-2.7
X7.45Y-3.0
X7.45Y-3.3
X7.45Y-3.6
X7.525Y-3.98
X7.525Y-4.28
X7.525Y-4.525
X7.525Y-4.825
X7.55Y-1.1
X7.55Y-1.4
X7.55Y-1.6
X7.55Y-1.9
X7.55Y-2.1
X7.55Y-2.4
X7.55Y-2.7
X7.55Y-3.0
X7.55Y-3.3
X7.55Y-3.6
X7.625Y-3.98
X7.625Y-4.28
X7.625Y-4.525
X7.625Y-4.825
X7.65Y-1.1
X7.65Y-1.4
X7.65Y-1.6
X7.65Y-1.9
X7.65Y-2.1
X7.65Y-2.4
X7.65Y-2.7
X7.65Y-3.0
X7.65Y-3.3
X7.65Y-3.6
X7.725Y-3.98
X7.725Y-4.28
X7.725Y-4.525
X7.725Y-4.825
X7.75Y-2.7
X7.75Y-3.0
X7.75Y-3.3
X7.75Y-3.6
X7.78Y-0.9731
X7.78Y-1.17
X7.825Y-3.98
X7.825Y-4.28
X7.825Y-4.525
X7.825Y-4.825
X7.85Y-2.7
X7.85Y-3.0
X7.85Y-3.3
X7.85Y-3.6
X7.925Y-1.1
X7.925Y-1.4
X7.925Y-3.98
X7.925Y-4.28
X7.925Y-4.525
X7.925Y-4.825
X7.93Y-4.4
X7.9316Y-2.52
X7.95Y-1.6
X7.95Y-1.9
X7.95Y-2.1
X7.95Y-2.4
X7.95Y-2.7
X7.95Y-3.0
X7.95Y-3.3
X7.95Y-3.6
X8.025Y-1.1
X8.025Y-1.4
X8.025Y-3.98
X8.025Y-4.28
X8.025Y-4.525
X8.025Y-4.825
X8.05Y-1.6
X8.05Y-1.9
X8.05Y-2.1
X8.05Y-2.4
X8.05Y-2.7
X8.05Y-3.0
X8.05Y-3.3
X8.05Y-3.6
X8.125Y-1.1
X8.125Y-1.4
X8.125Y-3.98
X8.125Y-4.28
X8.125Y-4.525
X8.125Y-4.825
X8.1269Y-4.4
X8.1284Y-2.52
X8.15Y-1.6
X8.15Y-1.9
X8.15Y-2.1
X8.15Y-2.4
X8.15Y-2.7
X8.15Y-3.0
X8.15Y-3.3
X8.15Y-3.6
X8.225Y-1.1
X8.225Y-1.4
X8.25Y-1.6
X8.25Y-1.9
X8.25Y-2.1
X8.25Y-2.4
X8.325Y-1.1
X8.325Y-1.4
X8.35Y-1.6
X8.35Y-1.9
X8.35Y-2.1
X8.35Y-2.4
X8.3563Y-4.6457
X8.3563Y-4.8425
X8.425Y-1.1
X8.425Y-1.4
X8.425Y-2.7
X8.425Y-3.0
X8.425Y-3.225
X8.425Y-3.525
X8.425Y-3.7
X8.425Y-4.0
X8.45Y-1.6
X8.45Y-1.9
X8.45Y-2.1
X8.45Y-2.4
X8.4831Y-4.6358
X8.4831Y-4.9358
X8.525Y-1.1
X8.525Y-1.4
X8.525Y-2.7
X8.525Y-3.0
X8.525Y-3.225
X8.525Y-3.525
X8.525Y-3.7
X8.525Y-4.0
X8.55Y-1.6
X8.55Y-1.9
X8.55Y-2.1
X8.55Y-2.4
X8.5831Y-4.6358
X8.5831Y-4.9358
X8.625Y-1.1
X8.625Y-1.4
X8.625Y-2.53
X8.625Y-2.7
X8.625Y-3.0
X8.625Y-3.225
X8.625Y-3.525
X8.625Y-3.7
X8.625Y-4.0
X8.65Y-1.6
X8.65Y-1.9
X8.65Y-2.1
X8.65Y-2.4
X8.6716Y-4.44
X8.6831Y-4.6358
X8.6831Y-4.9358
X8.725Y-2.7
X8.725Y-3.0
X8.725Y-3.225
X8.725Y-3.525
X8.725Y-3.7
X8.725Y-4.0
X8.77Y-4.44
X8.78Y-1.7281
X8.78Y-1.925
X8.7831Y-4.6358
X8.7831Y-4.9358
X8.8219Y-2.53
X8.825Y-2.7
X8.825Y-3.0
X8.825Y-3.225
X8.825Y-3.525
X8.825Y-3.7
X8.825Y-4.0
X8.8831Y-4.6358
X8.8831Y-4.9358
X8.925Y-2.7
X8.925Y-3.0
X8.925Y-3.225
X8.925Y-3.525
X8.925Y-3.7
X8.925Y-4.0
X8.9272Y-4.3406
X8.9831Y-4.6358
X8.9831Y-4.9358
X9.025Y-2.7
X9.025Y-3.0
X9.025Y-3.225
X9.025Y-3.525
X9.025Y-3.7
X9.025Y-4.0
X9.0256Y-4.3406
X9.0831Y-4.6358
X9.0831Y-4.9358
X9.1816Y-4.44
X9.1831Y-4.6358
X9.1831Y-4.9358
X9.28Y-4.44
T4
X4.78Y-4.34
X4.78Y-4.64
X8.53Y-5.1
X8.83Y-5.1
T5
X3.73Y-5.275
X3.83Y-5.275
X3.93Y-5.275
X4.03Y-5.275
X4.31Y-4.31
X4.41Y-4.31
X4.51Y-4.31
X4.62Y-1.13
X4.62Y-1.4
X4.76Y-4.92
X5.14Y-0.91
X6.2Y-3.9618
X6.2Y-4.0618
X6.2Y-4.1618
X6.2Y-4.2618
X6.2Y-4.3618
X7.2047Y-4.8228
T6
X1.55Y-4.94
X1.9231Y-5.57
X1.9331Y-5.41
X2.05Y-4.94
X2.4231Y-5.57
X2.4331Y-5.41
X3.57Y-5.43
X3.57Y-5.6
X4.07Y-5.43
X4.07Y-5.6
X4.11Y-4.45
X4.11Y-4.95
X4.27Y-4.45
X4.27Y-4.95
X4.43Y-4.43
X4.43Y-4.93
X4.64Y-4.34
X4.64Y-4.84
X4.74Y-5.12
X4.74Y-5.62
X4.8622Y-5.6102
X4.92Y-4.34
X4.92Y-4.84
X5.0689Y-4.9724
X5.0689Y-5.4724
X5.08Y-4.34
X5.08Y-4.84
X5.3622Y-5.6102
X5.44Y-3.51
X5.94Y-3.51
X7.21Y-4.1949
X7.21Y-4.6949
T7
X6.2008Y-5.2165
X6.2992Y-5.1181
X6.3976Y-5.6102
X6.4961Y-5.2165
X6.5945Y-5.6102
X6.6929Y-5.1181
X6.7913Y-5.2165
X7.3917Y-5.2165
X7.4902Y-5.1181
X7.5886Y-5.6102
X7.687Y-5.2165
X7.7854Y-5.6102
X7.8839Y-5.1181
X7.9823Y-5.2165
T8
X6.2008Y-5.4134
X6.7913Y-5.4134
X7.3917Y-5.4134
X7.9823Y-5.4134
T9
X1.1811Y-1.2205
X1.1811Y-5.1575
X4.3307Y-1.2205
X4.3307Y-5.1575
X9.0551Y-1.2205
X9.0551Y-5.1575
T3
G00X1.6188Y-5.16
M15
G01X1.7212Y-5.16
M16
G05
G00X1.6267Y-5.3883
M15
G01X1.7133Y-5.3883
M16
G05
G00X1.859Y-5.3214
M15
G01X1.859Y-5.2348
M16
G05
M30
